<svg xmlns="http://www.w3.org/2000/svg" xmlns:xlink="http://www.w3.org/1999/xlink" width="180" height="54" viewBox="0 0 180 54">
    <defs>
        <linearGradient id="b" x1="50%" x2="50%" y1="0%" y2="38.913%">
            <stop offset="0%" stop-color="#FBDA09"/>
            <stop offset="100%" stop-color="#FFBC00"/>
        </linearGradient>
        <path id="a" d="M18.67 3.625l12.972 22.74a3.906 3.906 0 0 1-3.393 5.841H2.304a3.906 3.906 0 0 1-3.392-5.84L11.884 3.624a3.906 3.906 0 0 1 6.785 0z"/>
        <linearGradient id="c" x1="0%" x2="69.306%" y1="58.476%" y2="39.083%">
            <stop offset="0%" stop-color="#01E2FF"/>
            <stop offset="100%" stop-color="#01C4FF"/>
        </linearGradient>
        <linearGradient id="e" x1="20.281%" x2="83.82%" y1="20.102%" y2="83.621%">
            <stop offset="0%" stop-color="#28D781"/>
            <stop offset="100%" stop-color="#02F076"/>
        </linearGradient>
        <linearGradient id="f" x1="74.488%" x2="10.108%" y1="17.43%" y2="91.184%">
            <stop offset="0%" stop-color="#F2414E"/>
            <stop offset="100%" stop-color="#E02554"/>
        </linearGradient>
    </defs>
    <g fill="none" fill-rule="evenodd">
        <g>
            <rect width="180" height="54" fill="#034" rx="4"/>
            <text fill="#FFF" font-family="SFUIText-Light, SF UI Text" font-size="12" font-weight="300">
                <tspan x="55.18" y="19.688">Disponível no</tspan>
            </text>
            <text fill="#FFF" font-family="SFUIText-Medium, SF UI Text" font-size="19" font-weight="400">
                <tspan x="55.18" y="41.568">Google Play</tspan>
            </text>
        </g>
        <g transform="translate(12 10)">
            <mask id="d" fill="#fff">
                <use xlink:href="#a"/>
            </mask>
            <use fill="url(#b)" transform="rotate(90 15.277 17)" xlink:href="#a"/>
            <path fill="url(#c)" d="M0-1.093l17.962 17.8L-.232 35.213z" mask="url(#d)"/>
            <path fill="url(#e)" d="M-3.694-4.758l21.654 21.47 6.438-6.123z" mask="url(#d)"/>
            <path fill="url(#f)" d="M17.963 16.709l9.856 9.905-29.443 9.905z" mask="url(#d)"/>
        </g>
    </g>
</svg>
