<svg xmlns="http://www.w3.org/2000/svg" width="24" height="17" viewBox="0 0 24 17">
    <g fill="none" fill-rule="evenodd">
        <path fill="#FFF" fill-rule="nonzero" d="M21.28 7.558c1.349-.114 2.263-.744 2.615-1.6-.486.308-1.996.643-2.83.324a10.84 10.84 0 0 0-.13-.566c-.636-2.398-2.81-4.33-5.09-4.096a9.51 9.51 0 0 1 .559-.212c.25-.092 1.722-.339 1.49-.873-.195-.47-1.993.355-2.331.463.446-.173 1.186-.47 1.265-.998a3.529 3.529 0 0 0-1.876.913c.187-.207.33-.46.36-.732-1.827 1.2-2.893 3.617-3.757 5.963-.677-.675-1.278-1.207-1.817-1.502-1.512-.834-3.32-1.704-6.158-2.787-.087.965.465 2.249 2.054 3.103-.345-.048-.974.058-1.478.182.205 1.106.875 2.017 2.688 2.458-.829.056-1.257.25-1.645.668.378.769 1.298 1.674 2.955 1.488-1.842.817-.751 2.328.748 2.103A6.24 6.24 0 0 1 0 12.1c6.043 8.467 19.179 5.007 21.137-3.148 1.466.013 2.328-.522 2.863-1.112-.845.147-2.07-.005-2.72-.283z"/>
        <path d="M0-4h24v24H0z"/>
    </g>
</svg>
