<svg xmlns="http://www.w3.org/2000/svg" width="180" height="54" viewBox="0 0 180 54">
    <g fill="none" fill-rule="evenodd">
        <g>
            <rect width="180" height="54" fill="#034" rx="4"/>
            <text fill="#FFF" font-family="SFUIText-Light, SF UI Text" font-size="12" font-weight="300">
                <tspan x="55.18" y="19.688">Disponível na</tspan>
            </text>
            <text fill="#FFF" font-family="SFUIText-Medium, SF UI Text" font-size="19" font-weight="400">
                <tspan x="55.18" y="41.568">App Store</tspan>
            </text>
        </g>
        <g fill="#FFF">
            <path d="M35.825 27.774c-.038-4.223 3.457-6.277 3.617-6.372-1.98-2.886-5.048-3.28-6.126-3.312-2.577-.271-5.076 1.542-6.389 1.542-1.339 0-3.36-1.516-5.539-1.471-2.803.043-5.426 1.666-6.865 4.187-2.968 5.139-.754 12.691 2.09 16.845 1.423 2.036 3.085 4.307 5.261 4.227 2.129-.087 2.924-1.357 5.493-1.357 2.546 0 3.292 1.357 5.512 1.304 2.284-.034 3.723-2.042 5.096-4.096 1.644-2.33 2.304-4.629 2.33-4.747-.052-.017-4.436-1.69-4.48-6.75M31.633 15.357c1.145-1.432 1.928-3.38 1.71-5.357-1.657.074-3.729 1.147-4.922 2.547-1.056 1.234-2 3.257-1.756 5.159 1.862.139 3.773-.94 4.968-2.349"/>
        </g>
    </g>
</svg>
