<svg width="135" height="40" viewBox="0 0 135 40" version="1.1" xmlns="http://www.w3.org/2000/svg" xmlns:xlink="http://www.w3.org/1999/xlink"><defs><linearGradient x1="91.49%" y1="4.96%" x2="-38.317%" y2="71.909%" id="linearGradient-1"><stop stop-color="#00A0FF" offset="0%"/><stop stop-color="#00A1FF" offset=".66%"/><stop stop-color="#00BEFF" offset="26.01%"/><stop stop-color="#00D2FF" offset="51.22%"/><stop stop-color="#00DFFF" offset="76.04%"/><stop stop-color="#00E3FF" offset="100%"/></linearGradient><linearGradient x1="107.586%" y1="50.016%" x2="-130.492%" y2="50.016%" id="linearGradient-2"><stop stop-color="#FFE000" offset="0%"/><stop stop-color="#FFBD00" offset="40.87%"/><stop stop-color="#FFA500" offset="77.54%"/><stop stop-color="#FF9C00" offset="100%"/></linearGradient><linearGradient x1="86.238%" y1="117.851%" x2="-50.131%" y2="294.785%" id="linearGradient-3"><stop stop-color="#FF3A44" offset="0%"/><stop stop-color="#C31162" offset="100%"/></linearGradient><linearGradient x1="-18.801%" y1="-154.171%" x2="42.094%" y2="-75.137%" id="linearGradient-4"><stop stop-color="#32A071" offset="0%"/><stop stop-color="#2DA771" offset="6.85%"/><stop stop-color="#15CF74" offset="47.62%"/><stop stop-color="#06E775" offset="80.09%"/><stop stop-color="#00F076" offset="100%"/></linearGradient></defs><g id="Symbols" stroke="none" stroke-width="1" fill="none" fill-rule="evenodd"><g id="google-play-badge"><path d="M129.579501,0.311455423 L5.20178021,0.311455423 C2.46671412,0.311455423 0.226671365,2.52543592 0.226671365,5.22868028 L0.226671365,34.7320295 C0.226671365,37.4352738 2.46671412,39.6492543 5.20178021,39.6492543 L129.579501,39.6492543 C132.314567,39.6492543 134.55461,37.4352738 134.55461,34.7320295 L134.55461,5.22868028 C134.55461,2.52543592 132.314567,0.311455423 129.579501,0.311455423 Z" id="path14" fill="#000" fill-rule="nonzero" transform="translate(67.390641, 19.980355) scale(-1, 1) rotate(-180.000000) translate(-67.390641, -19.980355)"/><path d="M42.4296875,11 L42.4296875,5.3125 L44.109375,5.3125 C44.4895852,5.3125 44.836587,5.37630145 45.1503906,5.50390625 C45.4641943,5.63151105 45.7337228,5.81314986 45.9589844,6.04882812 C46.1842459,6.28450639 46.3593744,6.56900875 46.484375,6.90234375 C46.6093756,7.23567875 46.671875,7.60807086 46.671875,8.01953125 L46.671875,8.30078125 C46.671875,8.71224164 46.6100267,9.08398271 46.4863281,9.41601562 C46.3626296,9.74804854 46.1868501,10.0312488 45.9589844,10.265625 C45.7311187,10.5000012 45.4563818,10.6809889 45.1347656,10.8085938 C44.8131494,10.9361986 44.4557311,11 44.0625,11 L42.4296875,11 Z M43.4179688,6.109375 L43.4179688,10.2109375 L44.0625,10.2109375 C44.3307305,10.2109375 44.5664052,10.1673181 44.7695312,10.0800781 C44.9726573,9.99283811 45.1412754,9.86718832 45.2753906,9.703125 C45.4095059,9.53906168 45.5104163,9.33854285 45.578125,9.1015625 C45.6458337,8.86458215 45.6796875,8.59765773 45.6796875,8.30078125 L45.6796875,8.01171875 C45.6796875,7.39452816 45.5455743,6.92317871 45.2773438,6.59765625 C45.0091132,6.27213379 44.6197942,6.109375 44.109375,6.109375 L43.4179688,6.109375 Z M48.5742188,11 L47.625,11 L47.625,6.7734375 L48.5742188,6.7734375 L48.5742188,11 Z M47.5664062,5.67578125 C47.5664062,5.52994719 47.6126297,5.40885465 47.7050781,5.3125 C47.7975265,5.21614535 47.9296866,5.16796875 48.1015625,5.16796875 C48.2734384,5.16796875 48.4062495,5.21614535 48.5,5.3125 C48.5937505,5.40885465 48.640625,5.52994719 48.640625,5.67578125 C48.640625,5.81901113 48.5937505,5.93815057 48.5,6.03320312 C48.4062495,6.12825568 48.2734384,6.17578125 48.1015625,6.17578125 C47.9296866,6.17578125 47.7975265,6.12825568 47.7050781,6.03320312 C47.6126297,5.93815057 47.5664062,5.81901113 47.5664062,5.67578125 Z M51.9765625,9.8515625 C51.9765625,9.78385383 51.9654949,9.72070342 51.9433594,9.66210938 C51.9212238,9.60351533 51.8776045,9.54882838 51.8125,9.49804688 C51.7473955,9.44726537 51.6555996,9.3997398 51.5371094,9.35546875 C51.4186192,9.3111977 51.2643239,9.26953145 51.0742188,9.23046875 C50.8476551,9.18359352 50.641277,9.12500035 50.4550781,9.0546875 C50.2688793,8.98437465 50.1093757,8.89908904 49.9765625,8.79882812 C49.8437493,8.69856721 49.7402347,8.58072984 49.6660156,8.4453125 C49.5917965,8.30989516 49.5546875,8.15364672 49.5546875,7.9765625 C49.5546875,7.80468664 49.5924475,7.64127682 49.6679688,7.48632812 C49.74349,7.33137943 49.8522128,7.19531309 49.9941406,7.078125 C50.1360684,6.96093691 50.3079417,6.86783889 50.5097656,6.79882812 C50.7115896,6.72981736 50.9374987,6.6953125 51.1875,6.6953125 C51.4505221,6.6953125 51.6868479,6.72981736 51.8964844,6.79882812 C52.1061208,6.86783889 52.2838534,6.96289002 52.4296875,7.08398438 C52.5755216,7.20507873 52.6868486,7.34765543 52.7636719,7.51171875 C52.8404952,7.67578207 52.8789062,7.85286363 52.8789062,8.04296875 L51.9296875,8.04296875 C51.9296875,7.96223918 51.9140627,7.88346393 51.8828125,7.80664062 C51.8515623,7.72981732 51.8046878,7.66145863 51.7421875,7.6015625 C51.6796872,7.54166637 51.602214,7.4941408 51.5097656,7.45898438 C51.4173172,7.42382795 51.3098964,7.40625 51.1875,7.40625 C51.0677077,7.40625 50.9635421,7.42122381 50.875,7.45117188 C50.7864579,7.48111994 50.7128909,7.52018205 50.6542969,7.56835938 C50.5957028,7.6165367 50.5520835,7.67252572 50.5234375,7.73632812 C50.4947915,7.80013053 50.4804688,7.86718715 50.4804688,7.9375 C50.4804688,8.00781285 50.4934895,8.07031223 50.5195312,8.125 C50.545573,8.17968777 50.5917965,8.22916645 50.6582031,8.2734375 C50.7246097,8.31770855 50.8138015,8.35872377 50.9257812,8.39648438 C51.037761,8.43424498 51.1783846,8.47135398 51.3476562,8.5078125 C51.5924491,8.55989609 51.811848,8.6210934 52.0058594,8.69140625 C52.1998708,8.7617191 52.3639316,8.84765574 52.4980469,8.94921875 C52.6321621,9.05078176 52.7343746,9.17057223 52.8046875,9.30859375 C52.8750004,9.44661527 52.9101562,9.61067613 52.9101562,9.80078125 C52.9101562,9.98828219 52.8697921,10.1601555 52.7890625,10.3164062 C52.7083329,10.472657 52.5930997,10.6074213 52.4433594,10.7207031 C52.293619,10.8339849 52.1132823,10.9218747 51.9023438,10.984375 C51.6914052,11.0468753 51.4570325,11.078125 51.1992188,11.078125 C50.9101548,11.078125 50.654298,11.0371098 50.4316406,10.9550781 C50.2089833,10.8730465 50.0221362,10.7656257 49.8710938,10.6328125 C49.7200513,10.4999993 49.6061202,10.3496102 49.5292969,10.1816406 C49.4524736,10.013671 49.4140625,9.84244879 49.4140625,9.66796875 L50.3359375,9.66796875 C50.34375,9.79817773 50.3736977,9.90755164 50.4257812,9.99609375 C50.4778648,10.0846359 50.5442704,10.1562497 50.625,10.2109375 C50.7057296,10.2656253 50.7968745,10.3053384 50.8984375,10.3300781 C51.0000005,10.3548178 51.1041661,10.3671875 51.2109375,10.3671875 C51.4609388,10.3671875 51.651041,10.3196619 51.78125,10.2246094 C51.911459,10.1295568 51.9765625,10.0052091 51.9765625,9.8515625 Z M57.4375,8.9296875 C57.4375,9.2369807 57.4016931,9.5221341 57.3300781,9.78515625 C57.2584632,10.0481784 57.1529955,10.2753897 57.0136719,10.4667969 C56.8743483,10.6582041 56.702475,10.8079422 56.4980469,10.9160156 C56.2936188,11.0240891 56.0598971,11.078125 55.796875,11.078125 C55.5546863,11.078125 55.3424488,11.0390629 55.1601562,10.9609375 C54.9778637,10.8828121 54.8190111,10.769532 54.6835938,10.6210938 L54.6835938,12.625 L53.734375,12.625 L53.734375,6.7734375 L54.609375,6.7734375 L54.6484375,7.203125 C54.7838548,7.03906168 54.9446605,6.91341189 55.1308594,6.82617188 C55.3170582,6.73893186 55.535155,6.6953125 55.7851562,6.6953125 C56.0533868,6.6953125 56.2903636,6.74739531 56.4960938,6.8515625 C56.7018239,6.95572969 56.8743483,7.1022126 57.0136719,7.29101562 C57.1529955,7.47981865 57.2584632,7.70637889 57.3300781,7.97070312 C57.4016931,8.23502736 57.4375,8.52734215 57.4375,8.84765625 L57.4375,8.9296875 Z M56.4921875,8.84765625 C56.4921875,8.65755113 56.4733075,8.4791675 56.4355469,8.3125 C56.3977863,8.1458325 56.3398441,8.00000063 56.2617188,7.875 C56.1835934,7.74999937 56.0833339,7.65169307 55.9609375,7.58007812 C55.8385411,7.50846318 55.6914071,7.47265625 55.5195312,7.47265625 C55.3111969,7.47265625 55.1393236,7.51562457 55.0039062,7.6015625 C54.8684889,7.68750043 54.7617191,7.80468676 54.6835938,7.953125 L54.6835938,9.828125 C54.7617191,9.97656324 54.8678379,10.0957027 55.0019531,10.1855469 C55.1360684,10.2753911 55.3111968,10.3203125 55.5273438,10.3203125 C55.6992196,10.3203125 55.8457025,10.2832035 55.9667969,10.2089844 C56.0878912,10.1347653 56.1874996,10.0345058 56.265625,9.90820312 C56.3437504,9.78190041 56.4010415,9.63411543 56.4375,9.46484375 C56.4739585,9.29557207 56.4921875,9.11718844 56.4921875,8.9296875 L56.4921875,8.84765625 Z M58.0625,8.84765625 C58.0625,8.54036305 58.1074214,8.25586068 58.1972656,7.99414062 C58.2871098,7.73242057 58.4160148,7.5052093 58.5839844,7.3125 C58.751954,7.1197907 58.95703,6.96875055 59.1992188,6.859375 C59.4414075,6.74999945 59.7161443,6.6953125 60.0234375,6.6953125 C60.3333349,6.6953125 60.6106759,6.74999945 60.8554688,6.859375 C61.1002616,6.96875055 61.3066398,7.1197907 61.4746094,7.3125 C61.642579,7.5052093 61.7708329,7.73242057 61.859375,7.99414062 C61.9479171,8.25586068 61.9921875,8.54036305 61.9921875,8.84765625 L61.9921875,8.9296875 C61.9921875,9.2369807 61.9479171,9.5221341 61.859375,9.78515625 C61.7708329,10.0481784 61.642579,10.2753897 61.4746094,10.4667969 C61.3066398,10.6582041 61.1009127,10.8079422 60.8574219,10.9160156 C60.6139311,11.0240891 60.3385432,11.078125 60.03125,11.078125 C59.7213526,11.078125 59.4446627,11.0240891 59.2011719,10.9160156 C58.9576811,10.8079422 58.751954,10.6582041 58.5839844,10.4667969 C58.4160148,10.2753897 58.2871098,10.0481784 58.1972656,9.78515625 C58.1074214,9.5221341 58.0625,9.2369807 58.0625,8.9296875 L58.0625,8.84765625 Z M59.0117188,8.9296875 C59.0117188,9.11979262 59.0312498,9.29947832 59.0703125,9.46875 C59.1093752,9.63802168 59.1705725,9.78580666 59.2539062,9.91210938 C59.33724,10.0384121 59.4433587,10.1380205 59.5722656,10.2109375 C59.7011725,10.2838545 59.8541658,10.3203125 60.03125,10.3203125 C60.20573,10.3203125 60.3574212,10.2838545 60.4863281,10.2109375 C60.615235,10.1380205 60.7207027,10.0384121 60.8027344,9.91210938 C60.884766,9.78580666 60.9459633,9.63802168 60.9863281,9.46875 C61.0266929,9.29947832 61.046875,9.11979262 61.046875,8.9296875 L61.046875,8.84765625 C61.046875,8.66015531 61.0266929,8.48242271 60.9863281,8.31445312 C60.9459633,8.14648354 60.884115,7.99934959 60.8007812,7.87304688 C60.7174475,7.74674416 60.6113288,7.64583371 60.4824219,7.5703125 C60.353515,7.49479129 60.2005217,7.45703125 60.0234375,7.45703125 C59.8463533,7.45703125 59.6946621,7.49479129 59.5683594,7.5703125 C59.4420567,7.64583371 59.33724,7.74674416 59.2539062,7.87304688 C59.1705725,7.99934959 59.1093752,8.14648354 59.0703125,8.31445312 C59.0312498,8.48242271 59.0117188,8.66015531 59.0117188,8.84765625 L59.0117188,8.9296875 Z M63.6757812,6.7734375 L63.703125,7.26171875 C63.8515632,7.08203035 64.0299469,6.94270883 64.2382812,6.84375 C64.4466156,6.74479117 64.6783841,6.6953125 64.9335938,6.6953125 C65.1367198,6.6953125 65.3209627,6.72330701 65.4863281,6.77929688 C65.6516935,6.83528674 65.7929682,6.92578062 65.9101562,7.05078125 C66.0273443,7.17578188 66.1178382,7.33854066 66.1816406,7.5390625 C66.245443,7.73958434 66.2773438,7.98307148 66.2773438,8.26953125 L66.2773438,11 L65.328125,11 L65.328125,8.26171875 C65.328125,8.11588469 65.3118491,7.99283904 65.2792969,7.89257812 C65.2467446,7.79231721 65.1992191,7.71093781 65.1367188,7.6484375 C65.0742184,7.58593719 64.9967453,7.54101576 64.9042969,7.51367188 C64.8118485,7.48632799 64.7057298,7.47265625 64.5859375,7.47265625 C64.390624,7.47265625 64.2207038,7.51953078 64.0761719,7.61328125 C63.9316399,7.70703172 63.8164067,7.83333254 63.7304688,7.9921875 L63.7304688,11 L62.78125,11 L62.78125,6.7734375 L63.6757812,6.7734375 Z M68.265625,11 L67.3164062,11 L67.3164062,6.7734375 L68.265625,6.7734375 L68.265625,11 Z M68.0859375,5.02734375 L69.1679688,5.02734375 L68.0859375,6.2109375 L67.3242188,6.2109375 L68.0859375,5.02734375 Z M70.8359375,9.796875 L71.7304688,6.7734375 L72.7109375,6.7734375 L71.2460938,11 L70.421875,11 L68.9453125,6.7734375 L69.9296875,6.7734375 L70.8359375,9.796875 Z M75.1640625,11.078125 C74.8515609,11.078125 74.5703138,11.0260422 74.3203125,10.921875 C74.0703112,10.8177078 73.8580738,10.6744801 73.6835938,10.4921875 C73.5091137,10.3098949 73.3750005,10.0937512 73.28125,9.84375 C73.1874995,9.59374875 73.140625,9.3242202 73.140625,9.03515625 L73.140625,8.87890625 C73.140625,8.54557125 73.1901037,8.24414197 73.2890625,7.97460938 C73.3880213,7.70507678 73.5234366,7.4759124 73.6953125,7.28710938 C73.8671884,7.09830635 74.0696603,6.95247447 74.3027344,6.84960938 C74.5358085,6.74674428 74.786457,6.6953125 75.0546875,6.6953125 C75.3619807,6.6953125 75.6289051,6.74674428 75.8554688,6.84960938 C76.0820324,6.95247447 76.2695305,7.09635324 76.4179688,7.28125 C76.566407,7.46614676 76.677083,7.68619664 76.75,7.94140625 C76.822917,8.19661586 76.859375,8.47656098 76.859375,8.78125 L76.859375,9.1875 L74.0976562,9.1875 C74.1106771,9.35156332 74.145182,9.50260348 74.2011719,9.640625 C74.2571617,9.77864652 74.3333329,9.89778596 74.4296875,9.99804688 C74.5260421,10.0983078 74.6399733,10.177083 74.7714844,10.234375 C74.9029954,10.291667 75.0520825,10.3203125 75.21875,10.3203125 C75.4531262,10.3203125 75.6569002,10.273438 75.8300781,10.1796875 C76.0032561,10.085937 76.1536452,9.95703207 76.28125,9.79296875 L76.7929688,10.28125 C76.7252601,10.382813 76.6412765,10.4811193 76.5410156,10.5761719 C76.4407547,10.6712244 76.3235684,10.755859 76.1894531,10.8300781 C76.0553379,10.9042972 75.9036467,10.9641925 75.734375,11.0097656 C75.5651033,11.0553388 75.3750011,11.078125 75.1640625,11.078125 Z M75.0507812,7.45703125 C74.7903633,7.45703125 74.5800789,7.54817617 74.4199219,7.73046875 C74.2597648,7.91276133 74.1575523,8.16666504 74.1132812,8.4921875 L75.921875,8.4921875 L75.921875,8.421875 C75.9140625,8.29687437 75.8938804,8.17643287 75.8613281,8.06054688 C75.8287759,7.94466088 75.7786462,7.84179732 75.7109375,7.75195312 C75.6432288,7.66210893 75.5553391,7.59049506 75.4472656,7.53710938 C75.3391922,7.48372369 75.207032,7.45703125 75.0507812,7.45703125 Z M78.6054688,11 L77.65625,11 L77.65625,5 L78.6054688,5 L78.6054688,11 Z M82.5117188,6.7734375 L82.5390625,7.26171875 C82.6875007,7.08203035 82.8658844,6.94270883 83.0742188,6.84375 C83.2825531,6.74479117 83.5143216,6.6953125 83.7695312,6.6953125 C83.9726573,6.6953125 84.1569002,6.72330701 84.3222656,6.77929688 C84.487631,6.83528674 84.6289057,6.92578062 84.7460938,7.05078125 C84.8632818,7.17578188 84.9537757,7.33854066 85.0175781,7.5390625 C85.0813805,7.73958434 85.1132812,7.98307148 85.1132812,8.26953125 L85.1132812,11 L84.1640625,11 L84.1640625,8.26171875 C84.1640625,8.11588469 84.1477866,7.99283904 84.1152344,7.89257812 C84.0826821,7.79231721 84.0351566,7.71093781 83.9726562,7.6484375 C83.9101559,7.58593719 83.8326828,7.54101576 83.7402344,7.51367188 C83.647786,7.48632799 83.5416673,7.47265625 83.421875,7.47265625 C83.2265615,7.47265625 83.0566413,7.51953078 82.9121094,7.61328125 C82.7675774,7.70703172 82.6523442,7.83333254 82.5664062,7.9921875 L82.5664062,11 L81.6171875,11 L81.6171875,6.7734375 L82.5117188,6.7734375 Z M85.9023438,8.84765625 C85.9023438,8.54036305 85.9472652,8.25586068 86.0371094,7.99414062 C86.1269536,7.73242057 86.2558585,7.5052093 86.4238281,7.3125 C86.5917977,7.1197907 86.7968738,6.96875055 87.0390625,6.859375 C87.2812512,6.74999945 87.555988,6.6953125 87.8632812,6.6953125 C88.1731786,6.6953125 88.4505196,6.74999945 88.6953125,6.859375 C88.9401054,6.96875055 89.1464835,7.1197907 89.3144531,7.3125 C89.4824227,7.5052093 89.6106766,7.73242057 89.6992188,7.99414062 C89.7877609,8.25586068 89.8320312,8.54036305 89.8320312,8.84765625 L89.8320312,8.9296875 C89.8320312,9.2369807 89.7877609,9.5221341 89.6992188,9.78515625 C89.6106766,10.0481784 89.4824227,10.2753897 89.3144531,10.4667969 C89.1464835,10.6582041 88.9407564,10.8079422 88.6972656,10.9160156 C88.4537748,11.0240891 88.178387,11.078125 87.8710938,11.078125 C87.5611964,11.078125 87.2845064,11.0240891 87.0410156,10.9160156 C86.7975248,10.8079422 86.5917977,10.6582041 86.4238281,10.4667969 C86.2558585,10.2753897 86.1269536,10.0481784 86.0371094,9.78515625 C85.9472652,9.5221341 85.9023438,9.2369807 85.9023438,8.9296875 L85.9023438,8.84765625 Z M86.8515625,8.9296875 C86.8515625,9.11979262 86.8710936,9.29947832 86.9101562,9.46875 C86.9492189,9.63802168 87.0104162,9.78580666 87.09375,9.91210938 C87.1770838,10.0384121 87.2832025,10.1380205 87.4121094,10.2109375 C87.5410163,10.2838545 87.6940095,10.3203125 87.8710938,10.3203125 C88.0455738,10.3203125 88.197265,10.2838545 88.3261719,10.2109375 C88.4550788,10.1380205 88.5605465,10.0384121 88.6425781,9.91210938 C88.7246098,9.78580666 88.7858071,9.63802168 88.8261719,9.46875 C88.8665367,9.29947832 88.8867188,9.11979262 88.8867188,8.9296875 L88.8867188,8.84765625 C88.8867188,8.66015531 88.8665367,8.48242271 88.8261719,8.31445312 C88.7858071,8.14648354 88.7239588,7.99934959 88.640625,7.87304688 C88.5572912,7.74674416 88.4511725,7.64583371 88.3222656,7.5703125 C88.1933587,7.49479129 88.0403655,7.45703125 87.8632812,7.45703125 C87.686197,7.45703125 87.5345058,7.49479129 87.4082031,7.5703125 C87.2819004,7.64583371 87.1770838,7.74674416 87.09375,7.87304688 C87.0104162,7.99934959 86.9492189,8.14648354 86.9101562,8.31445312 C86.8710936,8.48242271 86.8515625,8.66015531 86.8515625,8.84765625 L86.8515625,8.9296875 Z" id="Disponível-no" fill="#FFF"/><path d="M129.579501,38.861269 C131.882977,38.861269 133.757349,37.0087046 133.757349,34.7320295 L133.757349,5.22868028 C133.757349,2.95200517 131.882977,1.09944071 129.579501,1.09944071 L5.20178021,1.09944071 C2.89830481,1.09944071 1.02393256,2.95200517 1.02393256,5.22868028 L1.02393256,34.7320295 C1.02393256,37.0087046 2.89830481,38.861269 5.20178021,38.861269 L129.579501,38.861269 L129.579501,38.861269 Z M129.579501,39.6492543 L5.20178021,39.6492543 C2.46671412,39.6492543 0.226671365,37.4352738 0.226671365,34.7320295 L0.226671365,5.22868028 C0.226671365,2.52543592 2.46671412,0.311455423 5.20178021,0.311455423 L129.579501,0.311455423 C132.314567,0.311455423 134.55461,2.52543592 134.55461,5.22868028 L134.55461,34.7320295 C134.55461,37.4352738 132.314567,39.6492543 129.579501,39.6492543 Z" id="path16" fill="#A6A6A6" fill-rule="nonzero" transform="translate(67.390641, 19.980355) scale(-1, 1) rotate(-180.000000) translate(-67.390641, -19.980355)"/><path d="M68.0224796,29.1964636 C65.6854222,29.1964636 63.7762242,27.4385557 63.7762242,25.0131345 C63.7762242,22.6073823 65.6854222,20.8310348 68.0224796,20.8310348 C70.364512,20.8310348 72.2737101,22.6073823 72.2737101,25.0131345 C72.2737101,27.4385557 70.364512,29.1964636 68.0224796,29.1964636 Z M68.0224796,22.4783051 C66.7401453,22.4783051 65.6369149,23.5244447 65.6369149,25.0131345 C65.6369149,26.5214932 66.7401453,27.5491932 68.0224796,27.5491932 C69.3048139,27.5491932 70.4130194,26.5214932 70.4130194,25.0131345 C70.4130194,23.5244447 69.3048139,22.4783051 68.0224796,22.4783051 L68.0224796,22.4783051 Z M58.7575831,29.1964636 C56.4155506,29.1964636 54.5113277,27.4385557 54.5113277,25.0131345 C54.5113277,22.6073823 56.4155506,20.8310348 58.7575831,20.8310348 C61.0983718,20.8310348 63.0038385,22.6073823 63.0038385,25.0131345 C63.0038385,27.4385557 61.0983718,29.1964636 58.7575831,29.1964636 Z M58.7575831,22.4783051 C57.474005,22.4783051 56.3670433,23.5244447 56.3670433,25.0131345 C56.3670433,26.5214932 57.474005,27.5491932 58.7575831,27.5491932 C60.0399174,27.5491932 61.1431478,26.5214932 61.1431478,25.0131345 C61.1431478,23.5244447 60.0399174,22.4783051 58.7575831,22.4783051 Z M47.7327419,27.9142972 L47.7327419,26.1367204 L52.0275046,26.1367204 C51.9018831,25.143441 51.5660633,24.4132331 51.0511395,23.9043003 C50.4242758,23.2896472 49.4479107,22.6073823 47.7327419,22.6073823 C45.0897153,22.6073823 43.0200701,24.7156424 43.0200701,27.3279181 C43.0200701,29.9401938 45.0897153,32.048454 47.7327419,32.048454 C49.1618419,32.048454 50.2016397,31.4964955 50.9690502,30.7810393 L52.2364592,32.0337023 C51.1630795,33.0466506 49.7352232,33.8248015 47.7327419,33.8248015 C44.1083751,33.8248015 41.0623647,30.9101164 41.0623647,27.3279181 C41.0623647,23.7457198 44.1083751,20.8310348 47.7327419,20.8310348 C49.691691,20.8310348 51.1630795,21.4653568 52.3197923,22.6553252 C53.505112,23.826854 53.8745138,25.4741243 53.8745138,26.8042337 C53.8745138,27.2172806 53.839688,27.5971362 53.7774992,27.9142972 L47.7327419,27.9142972 Z M92.8146907,26.5362449 C92.4651893,27.4717469 91.3868345,29.1964636 89.1903239,29.1964636 C87.0137138,29.1964636 85.2015304,27.5012503 85.2015304,25.0131345 C85.2015304,22.6700769 86.9950571,20.8310348 89.3992785,20.8310348 C91.3433023,20.8310348 92.4651893,22.0025636 92.9266306,22.6848285 L91.4838491,23.6350823 C91.0025073,22.9392949 90.3470367,22.4783051 89.3992785,22.4783051 C88.4577391,22.4783051 87.7823681,22.9048744 87.3495336,23.7457198 L93.0099637,26.0605034 L92.8146907,26.5362449 L92.8146907,26.5362449 Z M87.0435644,25.143441 C86.9950571,26.7562907 88.3109734,27.5823845 89.2537565,27.5823845 C89.9925602,27.5823845 90.6194239,27.2172806 90.8283785,26.6948254 L87.0435644,25.143441 L87.0435644,25.143441 Z M82.4428325,21.0855012 L84.3035232,21.0855012 L84.3035232,33.3785633 L82.4428325,33.3785633 L82.4428325,21.0855012 Z M79.3955784,28.2646495 L79.3333895,28.2646495 C78.9154804,28.7539133 78.1182192,29.1964636 77.1082721,29.1964636 C74.9888757,29.1964636 73.0510708,27.3574215 73.0510708,24.9996121 C73.0510708,22.6553252 74.9888757,20.8310348 77.1082721,20.8310348 C78.1182192,20.8310348 78.9154804,21.2772729 79.3333895,21.7812885 L79.3955784,21.7812885 L79.3955784,21.181387 C79.3955784,19.5820597 78.5311532,18.7227746 77.136879,18.7227746 C76.0000666,18.7227746 75.2948449,19.5341167 75.003801,20.2163817 L73.3856469,19.5488684 C73.8520633,18.4400342 75.0871341,17.0755043 77.136879,17.0755043 C79.3184642,17.0755043 81.1592545,18.3441483 81.1592545,21.4309362 L81.1592545,28.9419972 L79.3955784,28.9419972 L79.3955784,28.2646495 L79.3955784,28.2646495 Z M77.2674756,22.4783051 C75.9851413,22.4783051 74.9117615,23.5391964 74.9117615,24.9996121 C74.9117615,26.4735503 75.9851413,27.5491932 77.2674756,27.5491932 C78.5311532,27.5491932 79.5274188,26.4735503 79.5274188,24.9996121 C79.5274188,23.5391964 78.5311532,22.4783051 77.2674756,22.4783051 L77.2674756,22.4783051 Z M101.526106,33.3785633 L97.0758714,33.3785633 L97.0758714,21.0855012 L98.931587,21.0855012 L98.931587,25.7433424 L101.526106,25.7433424 C103.587045,25.7433424 105.608183,27.2172806 105.608183,29.5615675 C105.608183,31.9046252 103.58207,33.3785633 101.526106,33.3785633 L101.526106,33.3785633 Z M101.574614,27.4533074 L98.931587,27.4533074 L98.931587,31.6685984 L101.574614,31.6685984 C102.960181,31.6685984 103.751224,30.5314901 103.751224,29.5615675 C103.751224,28.6100845 102.960181,27.4533074 101.574614,27.4533074 Z M113.045971,29.2198204 C111.705179,29.2198204 110.310905,28.6346706 109.737523,27.3377526 L111.384284,26.6554876 C111.738761,27.3377526 112.3905,27.5590277 113.079553,27.5590277 C114.042236,27.5590277 115.018601,26.9874003 115.033527,25.9781399 L115.033527,25.8490627 C114.697707,26.0408345 113.978804,26.3248042 113.094478,26.3248042 C111.320852,26.3248042 109.513644,25.3597989 109.513644,23.5588653 C109.513644,21.9115949 110.966375,20.8507037 112.599455,20.8507037 C113.848207,20.8507037 114.53726,21.4075794 114.970094,22.0554238 L115.033527,22.0554238 L115.033527,21.1051701 L116.82581,21.1051701 L116.82581,25.8207887 C116.82581,28.0003486 115.179049,29.2198204 113.045971,29.2198204 Z M112.822091,22.4832223 C112.215128,22.4832223 111.369359,22.7807144 111.369359,23.5244447 C111.369359,24.4759277 112.424082,24.8410316 113.337015,24.8410316 C114.154176,24.8410316 114.53726,24.6627822 115.033527,24.4279848 C114.888005,23.2896472 113.896714,22.4832223 112.822091,22.4832223 L112.822091,22.4832223 Z M123.35564,28.9506023 L121.222562,23.6215599 L121.15913,23.6215599 L118.953913,28.9506023 L116.952675,28.9506023 L120.266098,21.5034653 L118.375556,17.359474 L120.314605,17.359474 L125.42031,28.9506023 L123.35564,28.9506023 L123.35564,28.9506023 Z M106.62808,21.0855012 L108.488771,21.0855012 L108.488771,33.3785633 L106.62808,33.3785633 L106.62808,21.0855012 Z" id="path46" fill="#FFF" fill-rule="nonzero" transform="translate(83.241338, 25.450153) scale(-1, 1) rotate(-180.000000) translate(-83.241338, -25.450153)"/><g id="g48" transform="translate(16.395775, 19.980355) scale(-1, 1) rotate(-180.000000) translate(-16.395775, -19.980355) translate(8.933112, 6.457987)" fill-rule="nonzero" fill="url(#linearGradient-1)"><path d="M1.67661168,25.777322 C1.38432404,25.4749127 1.21517033,25.0040884 1.21517033,24.3943525 L1.21517033,2.64546698 C1.21517033,2.03573109 1.38432404,1.56490681 1.67661168,1.26249748 L1.74875076,1.19611495 L14.079558,13.3785395 L14.079558,13.6661972 L1.74875076,25.8486218 L1.67661168,25.777322 Z" id="path64"/></g><g id="g66" transform="translate(28.211659, 19.980355) scale(-1, 1) rotate(-180.000000) translate(-28.211659, -19.980355) translate(22.614661, 15.063130)" fill-rule="nonzero" fill="url(#linearGradient-2)"><path d="M4.50371728,0.710538993 L0.398008707,4.77339603 L0.398008707,5.06105369 L4.50869239,9.12391073 L4.6007319,9.07105056 L9.4688759,6.33338562 C10.858175,5.55646409 10.858175,4.27798563 9.4688759,3.49614688 L4.6007319,0.76339916 L4.50371728,0.710538993 L4.50371728,0.710538993 Z" id="path78"/></g><g id="g80" transform="translate(18.883330, 26.741539) scale(-1, 1) rotate(-180.000000) translate(-18.883330, -26.741539) translate(10.176889, 19.980355)" fill-rule="nonzero" fill="url(#linearGradient-3)"><path d="M17.038504,9.36854267 L12.8357808,13.5223684 L0.432834469,1.26249748 C0.894275814,0.783068059 1.64676103,0.725290667 2.50247975,1.20472009 L17.038504,9.36854267" id="path88"/></g><g id="g90" transform="translate(18.883330, 13.219171) scale(-1, 1) rotate(-180.000000) translate(-18.883330, -13.219171) translate(10.176889, 6.457987)" fill-rule="nonzero" fill="url(#linearGradient-4)"><path d="M17.038504,4.1538257 L2.50247975,12.3176483 C1.64676103,12.7921605 0.894275814,12.7343831 0.432834469,12.2549537 L12.8357808,0 L17.038504,4.1538257 Z" id="path104"/></g></g></g></svg>