<svg xmlns="http://www.w3.org/2000/svg" width="142" height="142" viewBox="0 0 142 142"><g fill="none" fill-rule="evenodd" transform="translate(1 1)"><circle cx="70" cy="70" r="70" stroke="#069" stroke-width="2"/><circle cx="70" cy="70" r="60" fill="#069"/><path stroke="#FFF" d="M105.441 64.444c0-1.104-.887-2-1.98-2a1.99 1.99 0 0 0-1.98 2c0 1.105.887 2 1.98 2a1.99 1.99 0 0 0 1.98-2z"/><path stroke="#FFF" stroke-width="2" d="M106.637 57.644h-10.7v13.6h10.7c1.52 0 2.765-1.29 2.765-2.866v-7.866c0-1.577-1.245-2.868-2.765-2.868z"/><path stroke="#FFF" d="M41.246 46.444a4.411 4.411 0 0 0-2.34.825l2.377.775M72.174 79.244v2.4h2.376"/><path stroke="#FFF" stroke-dasharray="6.091,6.091" d="M78.77 81.644h8.408c2.639 0 4.798-2.09 4.798-4.647V51.092c0-2.557-2.16-4.648-4.798-4.648H42.075"/><path stroke="#FFF" stroke-width="2" d="M66.63 54.444c2.94 1.098 5.384 2.71 5.544 7.2v24h18.218c3.063 0 5.544-2.499 5.544-5.6v-32c0-3.1-2.48-5.6-5.544-5.6H38.114c-2.088 0-4.531 1.749-5.544 3.2.039.178 34.06 8.8 34.06 8.8z"/><path stroke="#FFF" stroke-width="2" d="M68.35 106.405L34.57 90.333c-2.301-1.275-2.792-2.871-2.792-4.304l.105-37.706c-.065-2.043.799-2.929.687-2.679l34.338 9.169c2.673.975 5.145 2.592 5.266 7.017v39.52c0 1.434-.73 5.54-3.824 5.055z"/><path stroke="#FFF" d="M66.63 78.844c0-1.546-.71-2.8-1.585-2.8s-1.584 1.254-1.584 2.8c0 1.547.709 2.8 1.584 2.8.875 0 1.584-1.253 1.584-2.8zM85.05 52.044H56.332l11.881 3.2H85.05c.76 0 1.381-.72 1.381-1.6 0-.88-.62-1.6-1.38-1.6zM85.071 63.244H72.174v3.2H85.07c.749 0 1.36-.72 1.36-1.6 0-.88-.611-1.6-1.36-1.6z"/><path d="M30 30h80v80H30z"/></g></svg>