<svg xmlns="http://www.w3.org/2000/svg" width="40" height="57" viewBox="0 0 40 57"><g fill="none" fill-rule="evenodd"><path fill="#034" fill-rule="nonzero" stroke="#FFF" stroke-width="2" d="M20 1C9.496 1 1 9.451 1 19.9 1 34.075 20 55 20 55s19-20.925 19-35.1C39 9.451 30.504 1 20 1z"/><path stroke="#FFF" stroke-dasharray="3.456" stroke-width=".8" d="M20 33c-7.176 0-13-5.824-13-13S12.824 7 20 7s13 5.824 13 13-5.824 13-13 13z"/><path fill="#FFF" d="M19.281 16.852c0 1.718-1.062 2.867-2.64 2.867-1.57 0-2.641-1.149-2.641-2.867C14 15.148 15.062 14 16.64 14c1.579 0 2.641 1.14 2.641 2.852zm-2.64 1.367c.546 0 .898-.524.898-1.367 0-.86-.336-1.368-.898-1.368-.555 0-.899.524-.899 1.368 0 .843.352 1.367.899 1.367zm.804 7.312h-2.203l4.258-5.906 3.39-5.367h2.196l-4.328 5.953-3.313 5.32zm8.828-2.601c0 1.71-1.062 2.86-2.64 2.86-1.57 0-2.633-1.15-2.633-2.86 0-1.711 1.062-2.86 2.633-2.86 1.578 0 2.64 1.14 2.64 2.86zm-2.64 1.36c.547 0 .898-.524.898-1.368 0-.86-.336-1.36-.898-1.36-.555 0-.899.516-.899 1.36 0 .844.352 1.367.899 1.367z"/><path d="M-12-4h64v64h-64z"/></g></svg>