<svg xmlns="http://www.w3.org/2000/svg" width="48" height="48" viewBox="0 0 48 48"><g fill="#FFF" fill-rule="evenodd"><path d="M38.405 47.505H9.595c-5.247 0-9.5-4.227-9.5-9.44V9.44C.095 4.226 4.348 0 9.595 0h28.81c5.247 0 9.5 4.226 9.5 9.44v28.625c0 5.213-4.253 9.44-9.5 9.44zm2.836-38.866h-4.378c-4.26 0-9.076 1.682-12.088 4.675a.983.983 0 0 1-.519.02l-.836-.198a1.092 1.092 0 0 0-1.02.288l-.678.673a1.335 1.335 0 0 1-1.176.366l-1.311-.236a.574.574 0 0 0-.455.113l-5.135 4.016a4.566 4.566 0 0 0-1.756 3.596v2.69c0 .476-.127.944-.366 1.356l-2.076 3.573-.013-.008-2.906 5.005a1.95 1.95 0 0 0 .722 2.673l6.376 3.658c2.173 1.247 4.952.507 6.207-1.653l5.754-9.903c1.056-1.817 1.86-4.341 1.678-6.379-.182-2.037-.806-3.122-.806-3.122-.365-.838-.19-1.797.436-2.385.342-.322.487-.805.379-1.26l-.199-.834a.45.45 0 0 1 .123-.425c2.279-2.265 6.27-3.786 9.93-3.786h3.874a.763.763 0 0 0 .764-.743V9.162a.524.524 0 0 0-.525-.523zm.337 26.699l-.004-.008a4.438 4.438 0 0 0-.34-.631l-3.78-7.024-3.777 7.02a4.429 4.429 0 0 0-.344.64l-.002.003a4.42 4.42 0 0 0-.366 1.767c0 2.464 2.01 4.461 4.49 4.461 2.48 0 4.49-1.997 4.49-4.46 0-.629-.132-1.226-.367-1.768z"/><path d="M19.661 32.946l-2.932 5.012c-.159.273-.578.16-.578-.155v-4.699c0-1.031.84-1.867 1.879-1.867h.638c.883 0 1.435.95.993 1.71"/><path d="M14.657 31.757v5.72a.357.357 0 0 1-.536.307l-3.147-1.806a1.3 1.3 0 0 1-.48-1.781l3.833-6.598c.961-1.654 3.327-1.866 4.599-.602 1.272 1.264-.758 1.271-.758 1.271-1.94 0-3.511 1.562-3.511 3.489"/></g></svg>