<svg xmlns="http://www.w3.org/2000/svg" width="110" height="24" viewBox="0 0 110 24"><g fill="none" fill-rule="evenodd"><path fill="#0CF" d="M8.17 17.494c-2.279 0-4.134-.724-5.566-2.17C1.173 13.875.457 11.947.457 9.54v-.417c0-1.615.302-3.06.905-4.334.603-1.273 1.458-2.255 2.564-2.944C5.032 1.157 6.293.812 7.71.812c2.125 0 3.798.694 5.02 2.082 1.22 1.388 1.83 3.355 1.83 5.902v1.754H4.667c.134 1.051.538 1.894 1.213 2.528.675.635 1.53.951 2.564.951 1.6 0 2.849-.599 3.749-1.799l2.04 2.365c-.623.911-1.466 1.623-2.529 2.133-1.062.51-2.24.766-3.533.766M7.696 4.276c-.823 0-1.492.289-2.003.867-.513.577-.84 1.403-.985 2.478h5.775v-.343c-.02-.956-.269-1.695-.747-2.218-.48-.522-1.16-.784-2.04-.784"/><path fill="#FFF" d="M16.833 9.034c0-2.468.568-4.455 1.702-5.962C19.67 1.565 21.2.812 23.125.812c1.704 0 3.03.605 3.978 1.814l.172-1.516h3.763V16.66c0 1.407-.308 2.632-.926 3.673-.618 1.04-1.487 1.833-2.607 2.378-1.12.545-2.432.818-3.936.818-1.139 0-2.25-.235-3.332-.706-1.082-.471-1.9-1.078-2.456-1.821l1.839-2.617c1.034 1.199 2.288 1.799 3.763 1.799 1.1 0 1.958-.305 2.57-.914.614-.61.92-1.475.92-2.595v-.862c-.958 1.12-2.217 1.68-3.777 1.68-1.868 0-3.378-.756-4.532-2.268-1.154-1.511-1.73-3.516-1.73-6.013v-.179zm4.151.306c0 1.463.282 2.61.848 3.443.564.831 1.34 1.246 2.326 1.246 1.265 0 2.17-.492 2.715-1.478V5.755c-.556-.986-1.45-1.479-2.686-1.479-.996 0-1.779.423-2.348 1.27-.57.847-.855 2.111-.855 3.794zM43.233 17.196c-.192-.386-.33-.867-.417-1.442-1.005 1.16-2.312 1.74-3.921 1.74-1.522 0-2.784-.456-3.784-1.368-1.001-.912-1.501-2.062-1.501-3.45 0-1.704.61-3.013 1.831-3.925 1.22-.911 2.985-1.372 5.292-1.382h1.91v-.922c0-.743-.183-1.338-.552-1.784-.369-.446-.95-.67-1.745-.67-.7 0-1.248.175-1.645.521-.397.347-.596.823-.596 1.428h-4.15c0-.932.277-1.795.832-2.587.556-.793 1.34-1.415 2.356-1.867 1.015-.45 2.154-.676 3.418-.676 1.915 0 3.435.498 4.56 1.494 1.126.996 1.688 2.396 1.688 4.2v6.974c.01 1.526.216 2.68.617 3.464v.252h-4.193zM39.8 14.208c.613 0 1.178-.141 1.695-.424.517-.282.9-.661 1.149-1.137V9.881h-1.551c-2.078 0-3.184.744-3.318 2.23l-.015.254c0 .535.182.976.546 1.322.364.348.862.521 1.494.521zM58.76 12.75c0-.525-.25-.938-.753-1.24-.503-.303-1.31-.573-2.42-.81-3.697-.803-5.545-2.429-5.545-4.877 0-1.427.573-2.62 1.717-3.576 1.144-.956 2.64-1.435 4.488-1.435 1.973 0 3.55.481 4.733 1.442 1.182.962 1.774 2.21 1.774 3.747h-4.151c0-.614-.192-1.123-.575-1.524-.383-.402-.981-.602-1.795-.602-.7 0-1.24.163-1.623.49a1.571 1.571 0 0 0-.575 1.25c0 .475.218.86.654 1.152.435.292 1.17.545 2.205.758 1.034.213 1.905.453 2.614.721 2.192.832 3.289 2.275 3.289 4.327 0 1.466-.609 2.653-1.824 3.56-1.217.907-2.787 1.36-4.711 1.36-1.303 0-2.46-.24-3.47-.72-1.01-.48-1.801-1.14-2.376-1.978-.575-.837-.862-1.742-.862-2.713h3.936c.038.763.31 1.348.818 1.754.508.407 1.187.61 2.04.61.794 0 1.395-.156 1.802-.469.407-.312.61-.72.61-1.226M64.476 9.004c0-1.595.296-3.018.89-4.267.594-1.248 1.448-2.215 2.564-2.9 1.115-.683 2.41-1.025 3.885-1.025 2.097 0 3.808.664 5.135 1.992 1.326 1.329 2.066 3.133 2.219 5.412l.029 1.1c0 2.468-.666 4.449-1.997 5.94-1.331 1.492-3.117 2.237-5.357 2.237s-4.029-.743-5.365-2.23c-1.336-1.486-2.003-3.508-2.003-6.066v-.193zm4.15.305c0 1.53.278 2.698.833 3.507.556.809 1.35 1.214 2.385 1.214 1.005 0 1.79-.4 2.355-1.2.565-.798.848-2.076.848-3.833 0-1.5-.283-2.661-.848-3.485-.564-.824-1.36-1.236-2.384-1.236-1.015 0-1.8.41-2.356 1.229-.555.819-.832 2.087-.832 3.804zM89.825 12.75c0-.525-.252-.938-.754-1.24-.503-.303-1.31-.573-2.42-.81-3.697-.804-5.545-2.429-5.545-4.877 0-1.428.572-2.62 1.717-3.576C83.967 1.29 85.463.812 87.31.812c1.973 0 3.55.481 4.733 1.442 1.182.962 1.773 2.21 1.773 3.747h-4.15c0-.614-.192-1.122-.575-1.524-.383-.402-.982-.602-1.795-.602-.7 0-1.24.163-1.624.49a1.571 1.571 0 0 0-.574 1.25c0 .475.218.86.654 1.152.435.292 1.17.545 2.204.758 1.035.213 1.906.453 2.614.721 2.193.832 3.29 2.275 3.29 4.327 0 1.466-.609 2.653-1.825 3.56s-2.786 1.36-4.71 1.36c-1.303 0-2.46-.24-3.47-.72-1.01-.48-1.802-1.14-2.376-1.978-.575-.837-.862-1.742-.862-2.713h3.936c.038.763.31 1.348.818 1.754.508.407 1.187.61 2.04.61.794 0 1.395-.156 1.802-.469.407-.312.61-.72.61-1.226M105.71 17.196c-.19-.386-.33-.867-.416-1.442-1.005 1.16-2.312 1.74-3.92 1.74-1.523 0-2.785-.456-3.785-1.368-1.001-.912-1.501-2.062-1.501-3.45 0-1.704.61-3.013 1.83-3.925 1.222-.911 2.986-1.372 5.294-1.382h1.91v-.922c0-.743-.184-1.338-.553-1.784-.368-.446-.95-.67-1.745-.67-.7 0-1.247.175-1.645.52-.397.348-.596.824-.596 1.429h-4.15c0-.932.277-1.795.833-2.587.555-.793 1.34-1.415 2.355-1.867 1.015-.45 2.154-.676 3.418-.676 1.915 0 3.435.498 4.56 1.494 1.126.996 1.688 2.396 1.688 4.2v6.974c.01 1.526.216 2.68.618 3.464v.252h-4.194zm-3.432-2.988c.613 0 1.178-.141 1.695-.424.517-.282.9-.661 1.15-1.137V9.881h-1.552c-2.078 0-3.184.744-3.318 2.23l-.014.254c0 .535.181.976.545 1.322.364.348.862.521 1.494.521z"/></g></svg>