<svg xmlns="http://www.w3.org/2000/svg" width="514" height="514" viewBox="0 0 514 514"><g fill="none" fill-rule="evenodd"><path fill="#069" d="M510.194 167.647a3.76 3.76 0 0 1-3.754-3.763c0-2.067 1.679-3.74 3.754-3.74a3.744 3.744 0 0 1 3.755 3.74 3.76 3.76 0 0 1-3.755 3.763zm0-13.207a3.76 3.76 0 0 1-3.754-3.763c0-2.068 1.679-3.74 3.754-3.74a3.744 3.744 0 0 1 3.755 3.74 3.76 3.76 0 0 1-3.755 3.763zm0 26.517a3.746 3.746 0 0 1-3.754-3.747 3.76 3.76 0 0 1 3.754-3.763 3.76 3.76 0 0 1 3.755 3.763 3.746 3.746 0 0 1-3.755 3.747zm0 13.302a3.744 3.744 0 0 1-3.754-3.74 3.76 3.76 0 0 1 3.754-3.763 3.76 3.76 0 0 1 3.755 3.763c0 2.068-1.68 3.74-3.755 3.74zm-13.308-39.921a3.756 3.756 0 0 1-3.747-3.755 3.744 3.744 0 0 1 3.747-3.748 3.746 3.746 0 0 1 3.755 3.748 3.758 3.758 0 0 1-3.755 3.755zm0 13.31c-2.067 0-3.747-1.688-3.747-3.764 0-2.067 1.68-3.74 3.747-3.74a3.744 3.744 0 0 1 3.755 3.74 3.76 3.76 0 0 1-3.755 3.763zm0 13.309a3.744 3.744 0 0 1-3.747-3.747c0-2.076 1.68-3.763 3.747-3.763a3.76 3.76 0 0 1 3.755 3.763 3.746 3.746 0 0 1-3.755 3.747zm0 13.302a3.743 3.743 0 0 1-3.747-3.74c0-2.075 1.68-3.763 3.747-3.763a3.76 3.76 0 0 1 3.755 3.763c0 2.068-1.68 3.74-3.755 3.74zm0 13.31a3.744 3.744 0 0 1-3.747-3.748 3.756 3.756 0 0 1 3.747-3.755 3.758 3.758 0 0 1 3.755 3.755 3.746 3.746 0 0 1-3.755 3.747zm13.208 0a3.744 3.744 0 0 1-3.747-3.748 3.756 3.756 0 0 1 3.747-3.755 3.758 3.758 0 0 1 3.755 3.755 3.746 3.746 0 0 1-3.755 3.747zm-26.516-53.231a3.758 3.758 0 0 1-3.755-3.755 3.746 3.746 0 0 1 3.755-3.748 3.744 3.744 0 0 1 3.747 3.748 3.756 3.756 0 0 1-3.747 3.755zm0-13.208a3.758 3.758 0 0 1-3.755-3.755 3.746 3.746 0 0 1 3.755-3.747 3.744 3.744 0 0 1 3.747 3.747 3.756 3.756 0 0 1-3.747 3.755zm0 26.517a3.76 3.76 0 0 1-3.755-3.763c0-2.067 1.68-3.74 3.755-3.74a3.743 3.743 0 0 1 3.747 3.74c0 2.076-1.68 3.763-3.747 3.763zm0 13.31a3.746 3.746 0 0 1-3.755-3.747 3.76 3.76 0 0 1 3.755-3.763c2.067 0 3.747 1.687 3.747 3.763a3.744 3.744 0 0 1-3.747 3.747zm0 13.302a3.744 3.744 0 0 1-3.755-3.74 3.76 3.76 0 0 1 3.755-3.763c2.067 0 3.747 1.688 3.747 3.763 0 2.068-1.68 3.74-3.747 3.74zm0 13.31a3.746 3.746 0 0 1-3.755-3.748 3.758 3.758 0 0 1 3.755-3.755 3.756 3.756 0 0 1 3.747 3.755 3.744 3.744 0 0 1-3.747 3.747zm0 13.309a3.746 3.746 0 0 1-3.755-3.748 3.76 3.76 0 0 1 3.755-3.763c2.067 0 3.747 1.688 3.747 3.763a3.744 3.744 0 0 1-3.747 3.748zm13.207 0a3.746 3.746 0 0 1-3.754-3.748 3.76 3.76 0 0 1 3.754-3.763c2.068 0 3.747 1.688 3.747 3.763a3.744 3.744 0 0 1-3.747 3.748zm-26.516-79.842a3.76 3.76 0 0 1-3.754-3.763 3.746 3.746 0 0 1 3.754-3.747 3.746 3.746 0 0 1 3.755 3.747 3.76 3.76 0 0 1-3.755 3.763zm0-13.208a3.76 3.76 0 0 1-3.754-3.763 3.746 3.746 0 0 1 3.754-3.747 3.746 3.746 0 0 1 3.755 3.747 3.76 3.76 0 0 1-3.755 3.763zm0 26.51a3.758 3.758 0 0 1-3.754-3.755 3.746 3.746 0 0 1 3.754-3.748 3.746 3.746 0 0 1 3.755 3.748 3.758 3.758 0 0 1-3.755 3.755zm0 13.31a3.76 3.76 0 0 1-3.754-3.764c0-2.067 1.679-3.74 3.754-3.74a3.744 3.744 0 0 1 3.755 3.74 3.76 3.76 0 0 1-3.755 3.763zm0 13.309a3.746 3.746 0 0 1-3.754-3.747 3.76 3.76 0 0 1 3.754-3.763 3.76 3.76 0 0 1 3.755 3.763 3.746 3.746 0 0 1-3.755 3.747zm0 13.302a3.744 3.744 0 0 1-3.754-3.74 3.76 3.76 0 0 1 3.754-3.763 3.76 3.76 0 0 1 3.755 3.763c0 2.068-1.68 3.74-3.755 3.74zm0 13.31a3.746 3.746 0 0 1-3.754-3.748 3.758 3.758 0 0 1 3.754-3.755 3.758 3.758 0 0 1 3.755 3.755 3.746 3.746 0 0 1-3.755 3.747zm0 13.309a3.746 3.746 0 0 1-3.754-3.748 3.76 3.76 0 0 1 3.754-3.763 3.76 3.76 0 0 1 3.755 3.763 3.746 3.746 0 0 1-3.755 3.748zm0 13.317a3.753 3.753 0 0 1-3.754-3.755 3.746 3.746 0 0 1 3.754-3.747 3.746 3.746 0 0 1 3.755 3.747 3.753 3.753 0 0 1-3.755 3.755zm13.208 0a3.753 3.753 0 0 1-3.755-3.755 3.746 3.746 0 0 1 3.755-3.747 3.746 3.746 0 0 1 3.755 3.747 3.753 3.753 0 0 1-3.755 3.755zm-26.516-106.484a3.744 3.744 0 0 1-3.747-3.748 3.756 3.756 0 0 1 3.747-3.755 3.758 3.758 0 0 1 3.755 3.755 3.746 3.746 0 0 1-3.755 3.748zm0-13.208a3.744 3.744 0 0 1-3.747-3.747 3.756 3.756 0 0 1 3.747-3.755 3.758 3.758 0 0 1 3.755 3.755 3.746 3.746 0 0 1-3.755 3.747zm0 26.533c-2.067 0-3.747-1.687-3.747-3.763a3.744 3.744 0 0 1 3.747-3.747 3.746 3.746 0 0 1 3.755 3.747 3.76 3.76 0 0 1-3.755 3.763zm0 13.302a3.756 3.756 0 0 1-3.747-3.755 3.744 3.744 0 0 1 3.747-3.748 3.746 3.746 0 0 1 3.755 3.748 3.758 3.758 0 0 1-3.755 3.755zm0 13.31c-2.067 0-3.747-1.688-3.747-3.764 0-2.067 1.68-3.74 3.747-3.74a3.744 3.744 0 0 1 3.755 3.74 3.76 3.76 0 0 1-3.755 3.763zm0 13.309a3.744 3.744 0 0 1-3.747-3.747c0-2.076 1.68-3.763 3.747-3.763a3.76 3.76 0 0 1 3.755 3.763 3.746 3.746 0 0 1-3.755 3.747zm0 13.302a3.743 3.743 0 0 1-3.747-3.74c0-2.075 1.68-3.763 3.747-3.763a3.76 3.76 0 0 1 3.755 3.763c0 2.068-1.68 3.74-3.755 3.74zm0 13.31a3.744 3.744 0 0 1-3.747-3.748 3.756 3.756 0 0 1 3.747-3.755 3.758 3.758 0 0 1 3.755 3.755 3.746 3.746 0 0 1-3.755 3.747zm0 13.309a3.744 3.744 0 0 1-3.747-3.748c0-2.075 1.68-3.763 3.747-3.763a3.76 3.76 0 0 1 3.755 3.763 3.746 3.746 0 0 1-3.755 3.748zm0 13.317a3.751 3.751 0 0 1-3.747-3.755 3.744 3.744 0 0 1 3.747-3.747 3.746 3.746 0 0 1 3.755 3.747 3.753 3.753 0 0 1-3.755 3.755zm0 13.31c-2.067 0-3.747-1.688-3.747-3.763 0-2.068 1.68-3.74 3.747-3.74a3.744 3.744 0 0 1 3.755 3.74 3.76 3.76 0 0 1-3.755 3.763zm13.208 0c-2.068 0-3.747-1.688-3.747-3.763 0-2.068 1.68-3.74 3.747-3.74a3.744 3.744 0 0 1 3.755 3.74 3.76 3.76 0 0 1-3.755 3.763zm-13.208 13.31c-2.067 0-3.747-1.688-3.747-3.764 0-2.075 1.68-3.74 3.747-3.74a3.74 3.74 0 0 1 3.755 3.74 3.76 3.76 0 0 1-3.755 3.763zm0 13.301a3.738 3.738 0 0 1-3.747-3.74c0-2.075 1.68-3.762 3.747-3.762a3.76 3.76 0 0 1 3.755 3.763 3.74 3.74 0 0 1-3.755 3.739zm0 13.31a3.744 3.744 0 0 1-3.747-3.748 3.756 3.756 0 0 1 3.747-3.755 3.758 3.758 0 0 1 3.755 3.755 3.746 3.746 0 0 1-3.755 3.748zm0 13.31a3.744 3.744 0 0 1-3.747-3.748 3.751 3.751 0 1 1 3.747 3.747zm-13.3-173.025a3.746 3.746 0 0 1-3.755-3.748 3.758 3.758 0 0 1 3.755-3.755 3.756 3.756 0 0 1 3.747 3.755 3.744 3.744 0 0 1-3.747 3.748zm0-13.208a3.746 3.746 0 0 1-3.755-3.747A3.758 3.758 0 0 1 443.66 107a3.756 3.756 0 0 1 3.747 3.755 3.744 3.744 0 0 1-3.747 3.747zm0 26.533a3.76 3.76 0 0 1-3.755-3.763 3.746 3.746 0 0 1 3.755-3.747 3.744 3.744 0 0 1 3.747 3.747c0 2.076-1.68 3.763-3.747 3.763zm0 13.302a3.758 3.758 0 0 1-3.755-3.755 3.746 3.746 0 0 1 3.755-3.748 3.744 3.744 0 0 1 3.747 3.748 3.756 3.756 0 0 1-3.747 3.755zm0 13.31a3.76 3.76 0 0 1-3.755-3.764c0-2.067 1.68-3.74 3.755-3.74a3.743 3.743 0 0 1 3.747 3.74c0 2.076-1.68 3.763-3.747 3.763zm0 13.309a3.746 3.746 0 0 1-3.755-3.747 3.76 3.76 0 0 1 3.755-3.763c2.067 0 3.747 1.687 3.747 3.763a3.744 3.744 0 0 1-3.747 3.747zm0 13.302a3.744 3.744 0 0 1-3.755-3.74 3.76 3.76 0 0 1 3.755-3.763c2.067 0 3.747 1.688 3.747 3.763 0 2.068-1.68 3.74-3.747 3.74zm0 13.31a3.746 3.746 0 0 1-3.755-3.748 3.758 3.758 0 0 1 3.755-3.755 3.756 3.756 0 0 1 3.747 3.755 3.744 3.744 0 0 1-3.747 3.747zm0 13.309a3.746 3.746 0 0 1-3.755-3.748 3.76 3.76 0 0 1 3.755-3.763c2.067 0 3.747 1.688 3.747 3.763a3.744 3.744 0 0 1-3.747 3.748zm0 13.317a3.753 3.753 0 0 1-3.755-3.755 3.746 3.746 0 0 1 3.755-3.747 3.744 3.744 0 0 1 3.747 3.747 3.751 3.751 0 0 1-3.747 3.755zm0 13.31a3.76 3.76 0 0 1-3.755-3.763c0-2.068 1.68-3.74 3.755-3.74a3.743 3.743 0 0 1 3.747 3.74c0 2.075-1.68 3.763-3.747 3.763zm0 13.31a3.76 3.76 0 0 1-3.755-3.764 3.74 3.74 0 0 1 3.755-3.74 3.738 3.738 0 0 1 3.747 3.74c0 2.076-1.68 3.763-3.747 3.763zm0 13.301a3.74 3.74 0 0 1-3.755-3.74 3.76 3.76 0 0 1 3.755-3.762c2.067 0 3.747 1.687 3.747 3.763 0 2.075-1.68 3.739-3.747 3.739zm0 13.31a3.746 3.746 0 0 1-3.755-3.748 3.758 3.758 0 0 1 3.755-3.755 3.756 3.756 0 0 1 3.747 3.755 3.744 3.744 0 0 1-3.747 3.748zm0 13.31a3.746 3.746 0 0 1-3.755-3.748 3.751 3.751 0 0 1 7.502 0 3.744 3.744 0 0 1-3.747 3.747zm0 13.317a3.753 3.753 0 0 1-3.755-3.756 3.746 3.746 0 0 1 3.755-3.747 3.744 3.744 0 0 1 3.747 3.747 3.751 3.751 0 0 1-3.747 3.756zm0 13.31a3.758 3.758 0 0 1-3.755-3.756 3.746 3.746 0 0 1 3.755-3.747 3.744 3.744 0 0 1 3.747 3.747 3.756 3.756 0 0 1-3.747 3.755zm0 13.309a3.76 3.76 0 0 1-3.755-3.763c0-2.068 1.68-3.74 3.755-3.74a3.743 3.743 0 0 1 3.747 3.74c0 2.075-1.68 3.763-3.747 3.763zM430.344 127.71a3.746 3.746 0 0 1-3.754-3.748 3.758 3.758 0 0 1 3.754-3.755 3.758 3.758 0 0 1 3.755 3.755 3.746 3.746 0 0 1-3.755 3.748zm0-13.208a3.746 3.746 0 0 1-3.754-3.747 3.758 3.758 0 0 1 3.754-3.755 3.758 3.758 0 0 1 3.755 3.755 3.746 3.746 0 0 1-3.755 3.747zm0 26.533a3.76 3.76 0 0 1-3.754-3.763 3.746 3.746 0 0 1 3.754-3.747 3.746 3.746 0 0 1 3.755 3.747 3.76 3.76 0 0 1-3.755 3.763zm0 13.302a3.758 3.758 0 0 1-3.754-3.755 3.746 3.746 0 0 1 3.754-3.748 3.746 3.746 0 0 1 3.755 3.748 3.758 3.758 0 0 1-3.755 3.755zm0 13.31a3.76 3.76 0 0 1-3.754-3.764c0-2.067 1.679-3.74 3.754-3.74a3.744 3.744 0 0 1 3.755 3.74 3.76 3.76 0 0 1-3.755 3.763zm0 13.309a3.746 3.746 0 0 1-3.754-3.747 3.76 3.76 0 0 1 3.754-3.763 3.76 3.76 0 0 1 3.755 3.763 3.746 3.746 0 0 1-3.755 3.747zm0 13.302a3.744 3.744 0 0 1-3.754-3.74 3.76 3.76 0 0 1 3.754-3.763 3.76 3.76 0 0 1 3.755 3.763c0 2.068-1.68 3.74-3.755 3.74zm0 13.31a3.746 3.746 0 0 1-3.754-3.748 3.758 3.758 0 0 1 3.754-3.755 3.758 3.758 0 0 1 3.755 3.755 3.746 3.746 0 0 1-3.755 3.747zm0 13.309a3.746 3.746 0 0 1-3.754-3.748 3.76 3.76 0 0 1 3.754-3.763 3.76 3.76 0 0 1 3.755 3.763 3.746 3.746 0 0 1-3.755 3.748zm0 13.317a3.753 3.753 0 0 1-3.754-3.755 3.746 3.746 0 0 1 3.754-3.747 3.746 3.746 0 0 1 3.755 3.747 3.753 3.753 0 0 1-3.755 3.755zm0 13.31a3.76 3.76 0 0 1-3.754-3.763c0-2.068 1.679-3.74 3.754-3.74a3.744 3.744 0 0 1 3.755 3.74 3.76 3.76 0 0 1-3.755 3.763zm0 13.31a3.76 3.76 0 0 1-3.754-3.764 3.74 3.74 0 0 1 3.754-3.74 3.74 3.74 0 0 1 3.755 3.74 3.76 3.76 0 0 1-3.755 3.763zm0 13.301a3.74 3.74 0 0 1-3.754-3.74 3.76 3.76 0 0 1 3.754-3.762 3.76 3.76 0 0 1 3.755 3.763 3.74 3.74 0 0 1-3.755 3.739zm0 13.31a3.746 3.746 0 0 1-3.754-3.748 3.758 3.758 0 0 1 3.754-3.755 3.758 3.758 0 0 1 3.755 3.755 3.746 3.746 0 0 1-3.755 3.748zm0 13.31a3.746 3.746 0 0 1-3.754-3.748 3.753 3.753 0 0 1 3.754-3.755 3.753 3.753 0 0 1 3.755 3.755 3.746 3.746 0 0 1-3.755 3.747zm0 13.317a3.753 3.753 0 0 1-3.754-3.756 3.746 3.746 0 0 1 3.754-3.747 3.746 3.746 0 0 1 3.755 3.747 3.753 3.753 0 0 1-3.755 3.756zm0 13.31a3.758 3.758 0 0 1-3.754-3.756 3.746 3.746 0 0 1 3.754-3.747 3.746 3.746 0 0 1 3.755 3.747 3.758 3.758 0 0 1-3.755 3.755zm0 13.309a3.76 3.76 0 0 1-3.754-3.763c0-2.068 1.679-3.74 3.754-3.74a3.744 3.744 0 0 1 3.755 3.74 3.76 3.76 0 0 1-3.755 3.763zm0 13.31a3.76 3.76 0 0 1-3.754-3.764 3.746 3.746 0 0 1 3.754-3.747 3.746 3.746 0 0 1 3.755 3.747 3.76 3.76 0 0 1-3.755 3.763zM417.036 127.71a3.744 3.744 0 0 1-3.747-3.748 3.756 3.756 0 0 1 3.747-3.755 3.758 3.758 0 0 1 3.755 3.755 3.746 3.746 0 0 1-3.755 3.748zm0-13.208a3.744 3.744 0 0 1-3.747-3.747 3.756 3.756 0 0 1 3.747-3.755 3.758 3.758 0 0 1 3.755 3.755 3.746 3.746 0 0 1-3.755 3.747zm0 26.533c-2.067 0-3.747-1.687-3.747-3.763a3.744 3.744 0 0 1 3.747-3.747 3.746 3.746 0 0 1 3.755 3.747 3.76 3.76 0 0 1-3.755 3.763zm0 13.302a3.756 3.756 0 0 1-3.747-3.755 3.744 3.744 0 0 1 3.747-3.748 3.746 3.746 0 0 1 3.755 3.748 3.758 3.758 0 0 1-3.755 3.755zm0 13.31c-2.067 0-3.747-1.688-3.747-3.764 0-2.067 1.68-3.74 3.747-3.74a3.744 3.744 0 0 1 3.755 3.74 3.76 3.76 0 0 1-3.755 3.763zm0 13.309a3.744 3.744 0 0 1-3.747-3.747c0-2.076 1.68-3.763 3.747-3.763a3.76 3.76 0 0 1 3.755 3.763 3.746 3.746 0 0 1-3.755 3.747zm0 13.302a3.743 3.743 0 0 1-3.747-3.74c0-2.075 1.68-3.763 3.747-3.763a3.76 3.76 0 0 1 3.755 3.763c0 2.068-1.68 3.74-3.755 3.74zm0 13.31a3.744 3.744 0 0 1-3.747-3.748 3.756 3.756 0 0 1 3.747-3.755 3.758 3.758 0 0 1 3.755 3.755 3.746 3.746 0 0 1-3.755 3.747zm0 13.309a3.744 3.744 0 0 1-3.747-3.748c0-2.075 1.68-3.763 3.747-3.763a3.76 3.76 0 0 1 3.755 3.763 3.746 3.746 0 0 1-3.755 3.748zm0 13.317a3.751 3.751 0 0 1-3.747-3.755 3.744 3.744 0 0 1 3.747-3.747 3.746 3.746 0 0 1 3.755 3.747 3.753 3.753 0 0 1-3.755 3.755zm0 13.31c-2.067 0-3.747-1.688-3.747-3.763 0-2.068 1.68-3.74 3.747-3.74a3.744 3.744 0 0 1 3.755 3.74 3.76 3.76 0 0 1-3.755 3.763zm0 13.31c-2.067 0-3.747-1.688-3.747-3.764 0-2.075 1.68-3.74 3.747-3.74a3.74 3.74 0 0 1 3.755 3.74 3.76 3.76 0 0 1-3.755 3.763zm0 13.301a3.738 3.738 0 0 1-3.747-3.74c0-2.075 1.68-3.762 3.747-3.762a3.76 3.76 0 0 1 3.755 3.763 3.74 3.74 0 0 1-3.755 3.739zm0 13.31a3.744 3.744 0 0 1-3.747-3.748 3.756 3.756 0 0 1 3.747-3.755 3.758 3.758 0 0 1 3.755 3.755 3.746 3.746 0 0 1-3.755 3.748zm0 13.31a3.744 3.744 0 0 1-3.747-3.748 3.751 3.751 0 1 1 3.747 3.747zm0 13.317a3.751 3.751 0 0 1-3.747-3.756 3.744 3.744 0 0 1 3.747-3.747 3.746 3.746 0 0 1 3.755 3.747 3.753 3.753 0 0 1-3.755 3.756zm0 13.31a3.756 3.756 0 0 1-3.747-3.756 3.744 3.744 0 0 1 3.747-3.747 3.746 3.746 0 0 1 3.755 3.747 3.758 3.758 0 0 1-3.755 3.755zm0 13.309c-2.067 0-3.747-1.688-3.747-3.763 0-2.068 1.68-3.74 3.747-3.74a3.744 3.744 0 0 1 3.755 3.74 3.76 3.76 0 0 1-3.755 3.763zm0 13.31c-2.067 0-3.747-1.688-3.747-3.764a3.744 3.744 0 0 1 3.747-3.747 3.746 3.746 0 0 1 3.755 3.747 3.76 3.76 0 0 1-3.755 3.763zm0 13.301a3.743 3.743 0 0 1-3.747-3.74c0-2.075 1.68-3.763 3.747-3.763a3.76 3.76 0 0 1 3.755 3.764c0 2.067-1.68 3.739-3.755 3.739zm0 13.31a3.744 3.744 0 0 1-3.747-3.748 3.756 3.756 0 0 1 3.747-3.755 3.758 3.758 0 0 1 3.755 3.755 3.746 3.746 0 0 1-3.755 3.748zm-13.3-266.192a3.744 3.744 0 0 1-3.755-3.74 3.76 3.76 0 0 1 3.755-3.762c2.067 0 3.747 1.687 3.747 3.763 0 2.068-1.68 3.74-3.747 3.74zm13.3-13.106a3.744 3.744 0 0 1-3.747-3.747 3.756 3.756 0 0 1 3.747-3.755 3.758 3.758 0 0 1 3.755 3.755 3.746 3.746 0 0 1-3.755 3.747zm-13.3-.102a3.744 3.744 0 0 1-3.755-3.739 3.76 3.76 0 0 1 3.755-3.763c2.067 0 3.747 1.687 3.747 3.763 0 2.068-1.68 3.74-3.747 3.74zm0 26.518a3.746 3.746 0 0 1-3.755-3.748 3.758 3.758 0 0 1 3.755-3.755 3.756 3.756 0 0 1 3.747 3.755 3.744 3.744 0 0 1-3.747 3.748zm0 13.325a3.76 3.76 0 0 1-3.755-3.763 3.746 3.746 0 0 1 3.755-3.747 3.744 3.744 0 0 1 3.747 3.747c0 2.076-1.68 3.763-3.747 3.763zm0 13.302a3.758 3.758 0 0 1-3.755-3.755 3.746 3.746 0 0 1 3.755-3.748 3.744 3.744 0 0 1 3.747 3.748 3.756 3.756 0 0 1-3.747 3.755zm0 13.31a3.76 3.76 0 0 1-3.755-3.764c0-2.067 1.68-3.74 3.755-3.74a3.743 3.743 0 0 1 3.747 3.74c0 2.076-1.68 3.763-3.747 3.763zm0 13.309a3.746 3.746 0 0 1-3.755-3.747 3.76 3.76 0 0 1 3.755-3.763c2.067 0 3.747 1.687 3.747 3.763a3.744 3.744 0 0 1-3.747 3.747zm0 13.302a3.744 3.744 0 0 1-3.755-3.74 3.76 3.76 0 0 1 3.755-3.763c2.067 0 3.747 1.688 3.747 3.763 0 2.068-1.68 3.74-3.747 3.74zm0 13.31a3.746 3.746 0 0 1-3.755-3.748 3.758 3.758 0 0 1 3.755-3.755 3.756 3.756 0 0 1 3.747 3.755 3.744 3.744 0 0 1-3.747 3.747zm0 13.309a3.746 3.746 0 0 1-3.755-3.748 3.76 3.76 0 0 1 3.755-3.763c2.067 0 3.747 1.688 3.747 3.763a3.744 3.744 0 0 1-3.747 3.748zm0 13.317a3.753 3.753 0 0 1-3.755-3.755 3.746 3.746 0 0 1 3.755-3.747 3.744 3.744 0 0 1 3.747 3.747 3.751 3.751 0 0 1-3.747 3.755zm0 13.31a3.76 3.76 0 0 1-3.755-3.763c0-2.068 1.68-3.74 3.755-3.74a3.743 3.743 0 0 1 3.747 3.74c0 2.075-1.68 3.763-3.747 3.763zm0 13.31a3.76 3.76 0 0 1-3.755-3.764 3.74 3.74 0 0 1 3.755-3.74 3.738 3.738 0 0 1 3.747 3.74c0 2.076-1.68 3.763-3.747 3.763zm0 13.301a3.74 3.74 0 0 1-3.755-3.74 3.76 3.76 0 0 1 3.755-3.762c2.067 0 3.747 1.687 3.747 3.763 0 2.075-1.68 3.739-3.747 3.739zm0 13.31a3.746 3.746 0 0 1-3.755-3.748 3.758 3.758 0 0 1 3.755-3.755 3.756 3.756 0 0 1 3.747 3.755 3.744 3.744 0 0 1-3.747 3.748zm0 13.31a3.746 3.746 0 0 1-3.755-3.748 3.751 3.751 0 0 1 7.502 0 3.744 3.744 0 0 1-3.747 3.747zm0 13.317a3.753 3.753 0 0 1-3.755-3.756 3.746 3.746 0 0 1 3.755-3.747 3.744 3.744 0 0 1 3.747 3.747 3.751 3.751 0 0 1-3.747 3.756zm0 13.31a3.758 3.758 0 0 1-3.755-3.756 3.746 3.746 0 0 1 3.755-3.747 3.744 3.744 0 0 1 3.747 3.747 3.756 3.756 0 0 1-3.747 3.755zm0 13.309a3.76 3.76 0 0 1-3.755-3.763c0-2.068 1.68-3.74 3.755-3.74a3.743 3.743 0 0 1 3.747 3.74c0 2.075-1.68 3.763-3.747 3.763zm0 13.31a3.76 3.76 0 0 1-3.755-3.764 3.746 3.746 0 0 1 3.755-3.747 3.744 3.744 0 0 1 3.747 3.747c0 2.076-1.68 3.763-3.747 3.763zm0 13.301a3.744 3.744 0 0 1-3.755-3.74 3.76 3.76 0 0 1 3.755-3.763c2.067 0 3.747 1.688 3.747 3.764 0 2.067-1.68 3.739-3.747 3.739zm0 13.31a3.746 3.746 0 0 1-3.755-3.748 3.758 3.758 0 0 1 3.755-3.755 3.756 3.756 0 0 1 3.747 3.755 3.744 3.744 0 0 1-3.747 3.748zM390.419 127.71a3.746 3.746 0 0 1-3.754-3.748 3.758 3.758 0 0 1 3.754-3.755 3.758 3.758 0 0 1 3.755 3.755 3.746 3.746 0 0 1-3.755 3.748zm0-13.208a3.746 3.746 0 0 1-3.754-3.747 3.758 3.758 0 0 1 3.754-3.755 3.758 3.758 0 0 1 3.755 3.755 3.746 3.746 0 0 1-3.755 3.747zm0-13.208a3.746 3.746 0 0 1-3.754-3.747 3.758 3.758 0 0 1 3.754-3.755 3.758 3.758 0 0 1 3.755 3.755 3.746 3.746 0 0 1-3.755 3.747zm0 39.741a3.76 3.76 0 0 1-3.754-3.763 3.746 3.746 0 0 1 3.754-3.747 3.746 3.746 0 0 1 3.755 3.747 3.76 3.76 0 0 1-3.755 3.763zm0 13.302a3.758 3.758 0 0 1-3.754-3.755 3.746 3.746 0 0 1 3.754-3.748 3.746 3.746 0 0 1 3.755 3.748 3.758 3.758 0 0 1-3.755 3.755zm0 13.31a3.76 3.76 0 0 1-3.754-3.764c0-2.067 1.679-3.74 3.754-3.74a3.744 3.744 0 0 1 3.755 3.74 3.76 3.76 0 0 1-3.755 3.763zm0 13.309a3.746 3.746 0 0 1-3.754-3.747 3.76 3.76 0 0 1 3.754-3.763 3.76 3.76 0 0 1 3.755 3.763 3.746 3.746 0 0 1-3.755 3.747zm0 13.302a3.744 3.744 0 0 1-3.754-3.74 3.76 3.76 0 0 1 3.754-3.763 3.76 3.76 0 0 1 3.755 3.763c0 2.068-1.68 3.74-3.755 3.74zm0 13.31a3.746 3.746 0 0 1-3.754-3.748 3.758 3.758 0 0 1 3.754-3.755 3.758 3.758 0 0 1 3.755 3.755 3.746 3.746 0 0 1-3.755 3.747zm0 13.309a3.746 3.746 0 0 1-3.754-3.748 3.76 3.76 0 0 1 3.754-3.763 3.76 3.76 0 0 1 3.755 3.763 3.746 3.746 0 0 1-3.755 3.748zm0 13.317a3.753 3.753 0 0 1-3.754-3.755 3.746 3.746 0 0 1 3.754-3.747 3.746 3.746 0 0 1 3.755 3.747 3.753 3.753 0 0 1-3.755 3.755zm0 13.31a3.76 3.76 0 0 1-3.754-3.763c0-2.068 1.679-3.74 3.754-3.74a3.744 3.744 0 0 1 3.755 3.74 3.76 3.76 0 0 1-3.755 3.763zm0 13.31a3.76 3.76 0 0 1-3.754-3.764 3.74 3.74 0 0 1 3.754-3.74 3.74 3.74 0 0 1 3.755 3.74 3.76 3.76 0 0 1-3.755 3.763zm0 13.301a3.74 3.74 0 0 1-3.754-3.74 3.76 3.76 0 0 1 3.754-3.762 3.76 3.76 0 0 1 3.755 3.763 3.74 3.74 0 0 1-3.755 3.739zm0 13.31a3.746 3.746 0 0 1-3.754-3.748 3.758 3.758 0 0 1 3.754-3.755 3.758 3.758 0 0 1 3.755 3.755 3.746 3.746 0 0 1-3.755 3.748zm0 13.31a3.746 3.746 0 0 1-3.754-3.748 3.753 3.753 0 0 1 3.754-3.755 3.753 3.753 0 0 1 3.755 3.755 3.746 3.746 0 0 1-3.755 3.747zm0 13.317a3.753 3.753 0 0 1-3.754-3.756 3.746 3.746 0 0 1 3.754-3.747 3.746 3.746 0 0 1 3.755 3.747 3.753 3.753 0 0 1-3.755 3.756zm0 13.31a3.758 3.758 0 0 1-3.754-3.756 3.746 3.746 0 0 1 3.754-3.747 3.746 3.746 0 0 1 3.755 3.747 3.758 3.758 0 0 1-3.755 3.755zm0 13.309a3.76 3.76 0 0 1-3.754-3.763c0-2.068 1.679-3.74 3.754-3.74a3.744 3.744 0 0 1 3.755 3.74 3.76 3.76 0 0 1-3.755 3.763zm0 13.31a3.76 3.76 0 0 1-3.754-3.764 3.746 3.746 0 0 1 3.754-3.747 3.746 3.746 0 0 1 3.755 3.747 3.76 3.76 0 0 1-3.755 3.763zm0 13.301a3.744 3.744 0 0 1-3.754-3.74 3.76 3.76 0 0 1 3.754-3.763 3.76 3.76 0 0 1 3.755 3.764c0 2.067-1.68 3.739-3.755 3.739zm0 13.31a3.746 3.746 0 0 1-3.754-3.748 3.758 3.758 0 0 1 3.754-3.755 3.758 3.758 0 0 1 3.755 3.755 3.746 3.746 0 0 1-3.755 3.748zM377.111 114.4a3.738 3.738 0 0 1-3.747-3.74 3.753 3.753 0 0 1 3.747-3.762 3.76 3.76 0 0 1 3.755 3.763c0 2.068-1.68 3.74-3.755 3.74zm0-13.208a3.738 3.738 0 0 1-3.747-3.739 3.753 3.753 0 0 1 3.747-3.763 3.76 3.76 0 0 1 3.755 3.763c0 2.068-1.68 3.74-3.755 3.74zm0 26.518a3.74 3.74 0 0 1-3.747-3.748 3.751 3.751 0 0 1 3.747-3.755 3.758 3.758 0 0 1 3.755 3.755 3.746 3.746 0 0 1-3.755 3.748zm0 13.325a3.753 3.753 0 0 1-3.747-3.763 3.74 3.74 0 0 1 3.747-3.747 3.746 3.746 0 0 1 3.755 3.747 3.76 3.76 0 0 1-3.755 3.763zm0 13.302a3.751 3.751 0 0 1-3.747-3.755 3.74 3.74 0 0 1 3.747-3.748 3.746 3.746 0 0 1 3.755 3.748 3.758 3.758 0 0 1-3.755 3.755zm0 13.31a3.753 3.753 0 0 1-3.747-3.764 3.738 3.738 0 0 1 3.747-3.74 3.744 3.744 0 0 1 3.755 3.74 3.76 3.76 0 0 1-3.755 3.763zm0 13.309a3.74 3.74 0 0 1-3.747-3.747 3.753 3.753 0 0 1 3.747-3.763 3.76 3.76 0 0 1 3.755 3.763 3.746 3.746 0 0 1-3.755 3.747zm0 13.302a3.738 3.738 0 0 1-3.747-3.74 3.753 3.753 0 0 1 3.747-3.763 3.76 3.76 0 0 1 3.755 3.763c0 2.068-1.68 3.74-3.755 3.74zm0 13.31a3.74 3.74 0 0 1-3.747-3.748 3.751 3.751 0 0 1 3.747-3.755 3.758 3.758 0 0 1 3.755 3.755 3.746 3.746 0 0 1-3.755 3.747zm0 13.309a3.74 3.74 0 0 1-3.747-3.748 3.753 3.753 0 0 1 3.747-3.763 3.76 3.76 0 0 1 3.755 3.763 3.746 3.746 0 0 1-3.755 3.748zm0 13.317a3.746 3.746 0 0 1-3.747-3.755 3.74 3.74 0 0 1 3.747-3.747 3.746 3.746 0 0 1 3.755 3.747 3.753 3.753 0 0 1-3.755 3.755zm0 13.31a3.753 3.753 0 0 1-3.747-3.763 3.738 3.738 0 0 1 3.747-3.74 3.744 3.744 0 0 1 3.755 3.74 3.76 3.76 0 0 1-3.755 3.763zm0 13.31a3.753 3.753 0 0 1-3.747-3.764 3.733 3.733 0 0 1 3.747-3.74 3.74 3.74 0 0 1 3.755 3.74 3.76 3.76 0 0 1-3.755 3.763zm0 13.301a3.733 3.733 0 0 1-3.747-3.74 3.753 3.753 0 0 1 3.747-3.762 3.76 3.76 0 0 1 3.755 3.763 3.74 3.74 0 0 1-3.755 3.739zm0 13.31a3.74 3.74 0 0 1-3.747-3.748 3.751 3.751 0 0 1 3.747-3.755 3.758 3.758 0 0 1 3.755 3.755 3.746 3.746 0 0 1-3.755 3.748zm0 13.31a3.74 3.74 0 0 1-3.747-3.748 3.746 3.746 0 0 1 3.747-3.755 3.753 3.753 0 0 1 3.755 3.755 3.746 3.746 0 0 1-3.755 3.747zm0 13.317a3.746 3.746 0 0 1-3.747-3.756 3.74 3.74 0 0 1 3.747-3.747 3.746 3.746 0 0 1 3.755 3.747 3.753 3.753 0 0 1-3.755 3.756zm0 13.31a3.751 3.751 0 0 1-3.747-3.756 3.74 3.74 0 0 1 3.747-3.747 3.746 3.746 0 0 1 3.755 3.747 3.758 3.758 0 0 1-3.755 3.755zm0 13.309a3.753 3.753 0 0 1-3.747-3.763 3.738 3.738 0 0 1 3.747-3.74 3.744 3.744 0 0 1 3.755 3.74 3.76 3.76 0 0 1-3.755 3.763zm0 13.31a3.753 3.753 0 0 1-3.747-3.764 3.74 3.74 0 0 1 3.747-3.747 3.746 3.746 0 0 1 3.755 3.747 3.76 3.76 0 0 1-3.755 3.763zm0 13.301a3.738 3.738 0 0 1-3.747-3.74 3.753 3.753 0 0 1 3.747-3.763 3.76 3.76 0 0 1 3.755 3.764c0 2.067-1.68 3.739-3.755 3.739zm0 13.31a3.74 3.74 0 0 1-3.747-3.748 3.751 3.751 0 0 1 3.747-3.755 3.758 3.758 0 0 1 3.755 3.755 3.746 3.746 0 0 1-3.755 3.748zm-13.3-279.493a3.746 3.746 0 0 1-3.755-3.748 3.76 3.76 0 0 1 3.755-3.763c2.067 0 3.747 1.688 3.747 3.763a3.744 3.744 0 0 1-3.747 3.748zm0 13.301a3.744 3.744 0 0 1-3.755-3.74 3.76 3.76 0 0 1 3.755-3.762c2.067 0 3.747 1.687 3.747 3.763 0 2.068-1.68 3.74-3.747 3.74zm0 13.31a3.746 3.746 0 0 1-3.755-3.748 3.758 3.758 0 0 1 3.755-3.755 3.756 3.756 0 0 1 3.747 3.755 3.744 3.744 0 0 1-3.747 3.748zm0 13.325a3.76 3.76 0 0 1-3.755-3.763 3.746 3.746 0 0 1 3.755-3.747 3.744 3.744 0 0 1 3.747 3.747c0 2.076-1.68 3.763-3.747 3.763zm0 13.302a3.758 3.758 0 0 1-3.755-3.755 3.746 3.746 0 0 1 3.755-3.748 3.744 3.744 0 0 1 3.747 3.748 3.756 3.756 0 0 1-3.747 3.755zm0 13.31a3.76 3.76 0 0 1-3.755-3.764c0-2.067 1.68-3.74 3.755-3.74a3.743 3.743 0 0 1 3.747 3.74c0 2.076-1.68 3.763-3.747 3.763zm0 13.309a3.746 3.746 0 0 1-3.755-3.747 3.76 3.76 0 0 1 3.755-3.763c2.067 0 3.747 1.687 3.747 3.763a3.744 3.744 0 0 1-3.747 3.747zm0 13.302a3.744 3.744 0 0 1-3.755-3.74 3.76 3.76 0 0 1 3.755-3.763c2.067 0 3.747 1.688 3.747 3.763 0 2.068-1.68 3.74-3.747 3.74zm0 13.31a3.746 3.746 0 0 1-3.755-3.748 3.758 3.758 0 0 1 3.755-3.755 3.756 3.756 0 0 1 3.747 3.755 3.744 3.744 0 0 1-3.747 3.747zm0 13.309a3.746 3.746 0 0 1-3.755-3.748 3.76 3.76 0 0 1 3.755-3.763c2.067 0 3.747 1.688 3.747 3.763a3.744 3.744 0 0 1-3.747 3.748zm0 13.317a3.753 3.753 0 0 1-3.755-3.755 3.746 3.746 0 0 1 3.755-3.747 3.744 3.744 0 0 1 3.747 3.747 3.751 3.751 0 0 1-3.747 3.755zm0 13.31a3.76 3.76 0 0 1-3.755-3.763c0-2.068 1.68-3.74 3.755-3.74a3.743 3.743 0 0 1 3.747 3.74c0 2.075-1.68 3.763-3.747 3.763zm0 13.31a3.76 3.76 0 0 1-3.755-3.764 3.74 3.74 0 0 1 3.755-3.74 3.738 3.738 0 0 1 3.747 3.74c0 2.076-1.68 3.763-3.747 3.763zm0 13.301a3.74 3.74 0 0 1-3.755-3.74 3.76 3.76 0 0 1 3.755-3.762c2.067 0 3.747 1.687 3.747 3.763 0 2.075-1.68 3.739-3.747 3.739zm0 13.31a3.746 3.746 0 0 1-3.755-3.748 3.758 3.758 0 0 1 3.755-3.755 3.756 3.756 0 0 1 3.747 3.755 3.744 3.744 0 0 1-3.747 3.748zm0 13.31a3.746 3.746 0 0 1-3.755-3.748 3.751 3.751 0 0 1 7.502 0 3.744 3.744 0 0 1-3.747 3.747zm0 13.317a3.753 3.753 0 0 1-3.755-3.756 3.746 3.746 0 0 1 3.755-3.747 3.744 3.744 0 0 1 3.747 3.747 3.751 3.751 0 0 1-3.747 3.756zm0 13.31a3.758 3.758 0 0 1-3.755-3.756 3.746 3.746 0 0 1 3.755-3.747 3.744 3.744 0 0 1 3.747 3.747 3.756 3.756 0 0 1-3.747 3.755zm0 13.309a3.76 3.76 0 0 1-3.755-3.763c0-2.068 1.68-3.74 3.755-3.74a3.743 3.743 0 0 1 3.747 3.74c0 2.075-1.68 3.763-3.747 3.763zm0 13.31a3.76 3.76 0 0 1-3.755-3.764 3.746 3.746 0 0 1 3.755-3.747 3.744 3.744 0 0 1 3.747 3.747c0 2.076-1.68 3.763-3.747 3.763zm0 13.301a3.744 3.744 0 0 1-3.755-3.74 3.76 3.76 0 0 1 3.755-3.763c2.067 0 3.747 1.688 3.747 3.764 0 2.067-1.68 3.739-3.747 3.739zm0 13.31a3.746 3.746 0 0 1-3.755-3.748 3.758 3.758 0 0 1 3.755-3.755 3.756 3.756 0 0 1 3.747 3.755 3.744 3.744 0 0 1-3.747 3.748zm0 13.31a3.746 3.746 0 0 1-3.755-3.748 3.76 3.76 0 0 1 3.755-3.763c2.067 0 3.747 1.687 3.747 3.763a3.744 3.744 0 0 1-3.747 3.747zM350.494 101.1a3.746 3.746 0 0 1-3.754-3.748 3.76 3.76 0 0 1 3.754-3.763 3.753 3.753 0 0 1 3.747 3.763 3.74 3.74 0 0 1-3.747 3.748zm0 13.301a3.744 3.744 0 0 1-3.754-3.74 3.76 3.76 0 0 1 3.754-3.762 3.753 3.753 0 0 1 3.747 3.763 3.738 3.738 0 0 1-3.747 3.74zm0 13.31a3.746 3.746 0 0 1-3.754-3.748 3.758 3.758 0 0 1 3.754-3.755 3.751 3.751 0 0 1 3.747 3.755 3.74 3.74 0 0 1-3.747 3.748zm0 13.325a3.76 3.76 0 0 1-3.754-3.763 3.746 3.746 0 0 1 3.754-3.747 3.74 3.74 0 0 1 3.747 3.747 3.753 3.753 0 0 1-3.747 3.763zm0 13.302a3.758 3.758 0 0 1-3.754-3.755 3.746 3.746 0 0 1 3.754-3.748 3.74 3.74 0 0 1 3.747 3.748 3.751 3.751 0 0 1-3.747 3.755zm0 13.31a3.76 3.76 0 0 1-3.754-3.764c0-2.067 1.679-3.74 3.754-3.74a3.738 3.738 0 0 1 3.747 3.74 3.753 3.753 0 0 1-3.747 3.763zm0 13.309a3.746 3.746 0 0 1-3.754-3.747 3.76 3.76 0 0 1 3.754-3.763 3.753 3.753 0 0 1 3.747 3.763 3.74 3.74 0 0 1-3.747 3.747zm0 13.302a3.744 3.744 0 0 1-3.754-3.74 3.76 3.76 0 0 1 3.754-3.763 3.753 3.753 0 0 1 3.747 3.763 3.738 3.738 0 0 1-3.747 3.74zm0 13.31a3.746 3.746 0 0 1-3.754-3.748 3.758 3.758 0 0 1 3.754-3.755 3.751 3.751 0 0 1 3.747 3.755 3.74 3.74 0 0 1-3.747 3.747zm0 13.309a3.746 3.746 0 0 1-3.754-3.748 3.76 3.76 0 0 1 3.754-3.763 3.753 3.753 0 0 1 3.747 3.763 3.74 3.74 0 0 1-3.747 3.748zm0 13.317a3.753 3.753 0 0 1-3.754-3.755 3.746 3.746 0 0 1 3.754-3.747 3.74 3.74 0 0 1 3.747 3.747 3.746 3.746 0 0 1-3.747 3.755zm0 13.31a3.76 3.76 0 0 1-3.754-3.763c0-2.068 1.679-3.74 3.754-3.74a3.738 3.738 0 0 1 3.747 3.74 3.753 3.753 0 0 1-3.747 3.763zm0 13.31a3.76 3.76 0 0 1-3.754-3.764 3.74 3.74 0 0 1 3.754-3.74 3.733 3.733 0 0 1 3.747 3.74 3.753 3.753 0 0 1-3.747 3.763zm0 13.301a3.74 3.74 0 0 1-3.754-3.74 3.76 3.76 0 0 1 3.754-3.762 3.753 3.753 0 0 1 3.747 3.763 3.733 3.733 0 0 1-3.747 3.739zm0 13.31a3.746 3.746 0 0 1-3.754-3.748 3.758 3.758 0 0 1 3.754-3.755 3.751 3.751 0 0 1 3.747 3.755 3.74 3.74 0 0 1-3.747 3.748zm0 13.31a3.746 3.746 0 0 1-3.754-3.748 3.753 3.753 0 0 1 3.754-3.755 3.746 3.746 0 0 1 3.747 3.755 3.74 3.74 0 0 1-3.747 3.747zm0 13.317a3.753 3.753 0 0 1-3.754-3.756 3.746 3.746 0 0 1 3.754-3.747 3.74 3.74 0 0 1 3.747 3.747 3.746 3.746 0 0 1-3.747 3.756zm0 13.31a3.758 3.758 0 0 1-3.754-3.756 3.746 3.746 0 0 1 3.754-3.747 3.74 3.74 0 0 1 3.747 3.747 3.751 3.751 0 0 1-3.747 3.755zm0 13.309a3.76 3.76 0 0 1-3.754-3.763c0-2.068 1.679-3.74 3.754-3.74a3.738 3.738 0 0 1 3.747 3.74 3.753 3.753 0 0 1-3.747 3.763zm0 13.31a3.76 3.76 0 0 1-3.754-3.764 3.746 3.746 0 0 1 3.754-3.747 3.74 3.74 0 0 1 3.747 3.747 3.753 3.753 0 0 1-3.747 3.763zm0 13.301a3.744 3.744 0 0 1-3.754-3.74 3.76 3.76 0 0 1 3.754-3.763 3.753 3.753 0 0 1 3.747 3.764 3.738 3.738 0 0 1-3.747 3.739zm0 13.31a3.746 3.746 0 0 1-3.754-3.748 3.758 3.758 0 0 1 3.754-3.755 3.751 3.751 0 0 1 3.747 3.755 3.74 3.74 0 0 1-3.747 3.748zm0 13.31a3.746 3.746 0 0 1-3.754-3.748 3.76 3.76 0 0 1 3.754-3.763 3.753 3.753 0 0 1 3.747 3.763 3.74 3.74 0 0 1-3.747 3.747zM337.186 101.1a3.74 3.74 0 0 1-3.747-3.748 3.753 3.753 0 0 1 3.747-3.763 3.76 3.76 0 0 1 3.755 3.763 3.746 3.746 0 0 1-3.755 3.748zm39.925-13.114a3.738 3.738 0 0 1-3.747-3.74 3.753 3.753 0 0 1 3.747-3.763 3.76 3.76 0 0 1 3.755 3.763c0 2.068-1.68 3.74-3.755 3.74zm-13.3-.094a3.746 3.746 0 0 1-3.755-3.747 3.76 3.76 0 0 1 3.755-3.764c2.067 0 3.747 1.688 3.747 3.764a3.744 3.744 0 0 1-3.747 3.747zm-13.317 0a3.746 3.746 0 0 1-3.754-3.747 3.76 3.76 0 0 1 3.754-3.764 3.753 3.753 0 0 1 3.747 3.764 3.74 3.74 0 0 1-3.747 3.747zm0-13.208a3.746 3.746 0 0 1-3.754-3.747 3.76 3.76 0 0 1 3.754-3.763 3.753 3.753 0 0 1 3.747 3.763 3.74 3.74 0 0 1-3.747 3.747zm-13.308 13.208a3.74 3.74 0 0 1-3.747-3.747 3.753 3.753 0 0 1 3.747-3.764 3.76 3.76 0 0 1 3.755 3.764 3.746 3.746 0 0 1-3.755 3.747zm0 26.51a3.738 3.738 0 0 1-3.747-3.74 3.753 3.753 0 0 1 3.747-3.763 3.76 3.76 0 0 1 3.755 3.763c0 2.068-1.68 3.74-3.755 3.74zm0 13.309a3.74 3.74 0 0 1-3.747-3.748 3.751 3.751 0 0 1 3.747-3.755 3.758 3.758 0 0 1 3.755 3.755 3.746 3.746 0 0 1-3.755 3.748zm0 13.325a3.753 3.753 0 0 1-3.747-3.763 3.74 3.74 0 0 1 3.747-3.747 3.746 3.746 0 0 1 3.755 3.747 3.76 3.76 0 0 1-3.755 3.763zm0 13.302a3.751 3.751 0 0 1-3.747-3.755 3.74 3.74 0 0 1 3.747-3.748 3.746 3.746 0 0 1 3.755 3.748 3.758 3.758 0 0 1-3.755 3.755zm0 13.31a3.753 3.753 0 0 1-3.747-3.764 3.738 3.738 0 0 1 3.747-3.74 3.744 3.744 0 0 1 3.755 3.74 3.76 3.76 0 0 1-3.755 3.763zm0 13.309a3.74 3.74 0 0 1-3.747-3.747 3.753 3.753 0 0 1 3.747-3.763 3.76 3.76 0 0 1 3.755 3.763 3.746 3.746 0 0 1-3.755 3.747zm0 13.302a3.738 3.738 0 0 1-3.747-3.74 3.753 3.753 0 0 1 3.747-3.763 3.76 3.76 0 0 1 3.755 3.763c0 2.068-1.68 3.74-3.755 3.74zm0 13.31a3.74 3.74 0 0 1-3.747-3.748 3.751 3.751 0 0 1 3.747-3.755 3.758 3.758 0 0 1 3.755 3.755 3.746 3.746 0 0 1-3.755 3.747zm0 13.309a3.74 3.74 0 0 1-3.747-3.748 3.753 3.753 0 0 1 3.747-3.763 3.76 3.76 0 0 1 3.755 3.763 3.746 3.746 0 0 1-3.755 3.748zm0 13.317a3.746 3.746 0 0 1-3.747-3.755 3.74 3.74 0 0 1 3.747-3.747 3.746 3.746 0 0 1 3.755 3.747 3.753 3.753 0 0 1-3.755 3.755zm0 13.31a3.753 3.753 0 0 1-3.747-3.763 3.738 3.738 0 0 1 3.747-3.74 3.744 3.744 0 0 1 3.755 3.74 3.76 3.76 0 0 1-3.755 3.763zm0 13.31a3.753 3.753 0 0 1-3.747-3.764 3.733 3.733 0 0 1 3.747-3.74 3.74 3.74 0 0 1 3.755 3.74 3.76 3.76 0 0 1-3.755 3.763zm0 13.301a3.733 3.733 0 0 1-3.747-3.74 3.753 3.753 0 0 1 3.747-3.762 3.76 3.76 0 0 1 3.755 3.763 3.74 3.74 0 0 1-3.755 3.739zm0 13.31a3.74 3.74 0 0 1-3.747-3.748 3.751 3.751 0 0 1 3.747-3.755 3.758 3.758 0 0 1 3.755 3.755 3.746 3.746 0 0 1-3.755 3.748zm0 13.31a3.74 3.74 0 0 1-3.747-3.748 3.746 3.746 0 0 1 3.747-3.755 3.753 3.753 0 0 1 3.755 3.755 3.746 3.746 0 0 1-3.755 3.747zm0 13.317a3.746 3.746 0 0 1-3.747-3.756 3.74 3.74 0 0 1 3.747-3.747 3.746 3.746 0 0 1 3.755 3.747 3.753 3.753 0 0 1-3.755 3.756zm0 13.31a3.751 3.751 0 0 1-3.747-3.756 3.74 3.74 0 0 1 3.747-3.747 3.746 3.746 0 0 1 3.755 3.747 3.758 3.758 0 0 1-3.755 3.755zm0 13.309a3.753 3.753 0 0 1-3.747-3.763 3.738 3.738 0 0 1 3.747-3.74 3.744 3.744 0 0 1 3.755 3.74 3.76 3.76 0 0 1-3.755 3.763zm0 13.31a3.753 3.753 0 0 1-3.747-3.764 3.74 3.74 0 0 1 3.747-3.747 3.746 3.746 0 0 1 3.755 3.747 3.76 3.76 0 0 1-3.755 3.763zm0 13.301a3.738 3.738 0 0 1-3.747-3.74 3.753 3.753 0 0 1 3.747-3.763 3.76 3.76 0 0 1 3.755 3.764c0 2.067-1.68 3.739-3.755 3.739zm0 13.31a3.74 3.74 0 0 1-3.747-3.748 3.751 3.751 0 0 1 3.747-3.755 3.758 3.758 0 0 1 3.755 3.755 3.746 3.746 0 0 1-3.755 3.748zm0 13.31a3.74 3.74 0 0 1-3.747-3.748 3.753 3.753 0 0 1 3.747-3.763 3.76 3.76 0 0 1 3.755 3.763 3.746 3.746 0 0 1-3.755 3.747zm0 13.317a3.751 3.751 0 0 1-3.747-3.756 3.74 3.74 0 0 1 3.747-3.747 3.746 3.746 0 0 1 3.755 3.747 3.758 3.758 0 0 1-3.755 3.756zm-13.308-279.51a3.744 3.744 0 0 1-3.747-3.747 3.756 3.756 0 0 1 3.747-3.755 3.758 3.758 0 0 1 3.755 3.755 3.746 3.746 0 0 1-3.755 3.748zm0-13.207a3.744 3.744 0 0 1-3.747-3.747 3.756 3.756 0 0 1 3.747-3.755 3.758 3.758 0 0 1 3.755 3.755 3.746 3.746 0 0 1-3.755 3.747zm0 26.533c-2.068 0-3.747-1.687-3.747-3.763a3.744 3.744 0 0 1 3.747-3.747 3.746 3.746 0 0 1 3.755 3.747 3.76 3.76 0 0 1-3.755 3.763zm0 13.302a3.756 3.756 0 0 1-3.747-3.755 3.744 3.744 0 0 1 3.747-3.748 3.746 3.746 0 0 1 3.755 3.748 3.758 3.758 0 0 1-3.755 3.755zm0 13.31c-2.068 0-3.747-1.688-3.747-3.764 0-2.067 1.68-3.74 3.747-3.74a3.744 3.744 0 0 1 3.755 3.74 3.76 3.76 0 0 1-3.755 3.763zm0 13.309a3.744 3.744 0 0 1-3.747-3.747c0-2.076 1.68-3.763 3.747-3.763a3.76 3.76 0 0 1 3.755 3.763 3.746 3.746 0 0 1-3.755 3.747zm0 13.302a3.743 3.743 0 0 1-3.747-3.74c0-2.075 1.68-3.763 3.747-3.763a3.76 3.76 0 0 1 3.755 3.763c0 2.068-1.68 3.74-3.755 3.74zm0 13.31a3.744 3.744 0 0 1-3.747-3.748 3.756 3.756 0 0 1 3.747-3.755 3.758 3.758 0 0 1 3.755 3.755 3.746 3.746 0 0 1-3.755 3.747zm0 13.309a3.744 3.744 0 0 1-3.747-3.748c0-2.075 1.68-3.763 3.747-3.763a3.76 3.76 0 0 1 3.755 3.763 3.746 3.746 0 0 1-3.755 3.748zm0 13.317a3.751 3.751 0 0 1-3.747-3.755 3.744 3.744 0 0 1 3.747-3.747 3.746 3.746 0 0 1 3.755 3.747 3.753 3.753 0 0 1-3.755 3.755zm0 13.31c-2.068 0-3.747-1.688-3.747-3.763 0-2.068 1.68-3.74 3.747-3.74a3.744 3.744 0 0 1 3.755 3.74 3.76 3.76 0 0 1-3.755 3.763zm0 13.31c-2.068 0-3.747-1.688-3.747-3.764 0-2.075 1.68-3.74 3.747-3.74a3.74 3.74 0 0 1 3.755 3.74 3.76 3.76 0 0 1-3.755 3.763zm0 13.301a3.738 3.738 0 0 1-3.747-3.74c0-2.075 1.68-3.762 3.747-3.762a3.76 3.76 0 0 1 3.755 3.763 3.74 3.74 0 0 1-3.755 3.739zm0 13.31a3.744 3.744 0 0 1-3.747-3.748 3.756 3.756 0 0 1 3.747-3.755 3.758 3.758 0 0 1 3.755 3.755 3.746 3.746 0 0 1-3.755 3.748zm0 13.31a3.744 3.744 0 0 1-3.747-3.748 3.751 3.751 0 1 1 3.747 3.747zm0 13.317a3.751 3.751 0 0 1-3.747-3.756 3.744 3.744 0 0 1 3.747-3.747 3.746 3.746 0 0 1 3.755 3.747 3.753 3.753 0 0 1-3.755 3.756zm0 13.31a3.756 3.756 0 0 1-3.747-3.756 3.744 3.744 0 0 1 3.747-3.747 3.746 3.746 0 0 1 3.755 3.747 3.758 3.758 0 0 1-3.755 3.755zm0 13.309c-2.068 0-3.747-1.688-3.747-3.763 0-2.068 1.68-3.74 3.747-3.74a3.744 3.744 0 0 1 3.755 3.74 3.76 3.76 0 0 1-3.755 3.763zm0 13.31c-2.068 0-3.747-1.688-3.747-3.764a3.744 3.744 0 0 1 3.747-3.747 3.746 3.746 0 0 1 3.755 3.747 3.76 3.76 0 0 1-3.755 3.763zm0 13.301a3.743 3.743 0 0 1-3.747-3.74c0-2.075 1.68-3.763 3.747-3.763a3.76 3.76 0 0 1 3.755 3.764c0 2.067-1.68 3.739-3.755 3.739zm0 13.31a3.744 3.744 0 0 1-3.747-3.748 3.756 3.756 0 0 1 3.747-3.755 3.758 3.758 0 0 1 3.755 3.755 3.746 3.746 0 0 1-3.755 3.748zm0 13.31a3.744 3.744 0 0 1-3.747-3.748c0-2.076 1.68-3.763 3.747-3.763a3.76 3.76 0 0 1 3.755 3.763 3.746 3.746 0 0 1-3.755 3.747zm0 13.317a3.756 3.756 0 0 1-3.747-3.756 3.744 3.744 0 0 1 3.747-3.747 3.746 3.746 0 0 1 3.755 3.747 3.758 3.758 0 0 1-3.755 3.756zm0 13.31c-2.068 0-3.747-1.688-3.747-3.764 0-2.068 1.68-3.74 3.747-3.74a3.744 3.744 0 0 1 3.755 3.74 3.76 3.76 0 0 1-3.755 3.763zm-13.208 13.309c-2.067 0-3.747-1.688-3.747-3.763a3.744 3.744 0 0 1 3.747-3.748 3.746 3.746 0 0 1 3.755 3.748 3.76 3.76 0 0 1-3.755 3.763zm0 13.301a3.743 3.743 0 0 1-3.747-3.739c0-2.076 1.68-3.763 3.747-3.763a3.76 3.76 0 0 1 3.755 3.763c0 2.068-1.68 3.74-3.755 3.74zm0 13.31a3.744 3.744 0 0 1-3.747-3.747 3.756 3.756 0 0 1 3.747-3.756 3.758 3.758 0 0 1 3.755 3.756 3.746 3.746 0 0 1-3.755 3.747zm0 13.31a3.744 3.744 0 0 1-3.747-3.748c0-2.075 1.68-3.763 3.747-3.763a3.76 3.76 0 0 1 3.755 3.763 3.746 3.746 0 0 1-3.755 3.747zm13.208-39.921c-2.068 0-3.747-1.688-3.747-3.763a3.744 3.744 0 0 1 3.747-3.748 3.746 3.746 0 0 1 3.755 3.748 3.76 3.76 0 0 1-3.755 3.763zm0 13.301a3.743 3.743 0 0 1-3.747-3.739c0-2.076 1.68-3.763 3.747-3.763a3.76 3.76 0 0 1 3.755 3.763c0 2.068-1.68 3.74-3.755 3.74zm0 13.31a3.744 3.744 0 0 1-3.747-3.747 3.756 3.756 0 0 1 3.747-3.756 3.758 3.758 0 0 1 3.755 3.756 3.746 3.746 0 0 1-3.755 3.747zm-13.3-346.049a3.744 3.744 0 0 1-3.755-3.74 3.76 3.76 0 0 1 3.754-3.762 3.753 3.753 0 0 1 3.747 3.763 3.738 3.738 0 0 1-3.747 3.74zm0 13.31a3.746 3.746 0 0 1-3.755-3.748 3.758 3.758 0 0 1 3.754-3.755 3.751 3.751 0 0 1 3.747 3.755 3.74 3.74 0 0 1-3.747 3.748zm0-39.725a3.744 3.744 0 0 1-3.755-3.74 3.76 3.76 0 0 1 3.754-3.763 3.753 3.753 0 0 1 3.747 3.763 3.738 3.738 0 0 1-3.747 3.74zm0-13.208a3.744 3.744 0 0 1-3.755-3.74 3.76 3.76 0 0 1 3.754-3.762 3.753 3.753 0 0 1 3.747 3.763 3.738 3.738 0 0 1-3.747 3.739zm0 26.517a3.746 3.746 0 0 1-3.755-3.747 3.758 3.758 0 0 1 3.754-3.755 3.751 3.751 0 0 1 3.747 3.755 3.74 3.74 0 0 1-3.747 3.747zm0 39.741a3.76 3.76 0 0 1-3.755-3.763 3.746 3.746 0 0 1 3.754-3.747 3.74 3.74 0 0 1 3.747 3.747 3.753 3.753 0 0 1-3.747 3.763zm0 13.302a3.758 3.758 0 0 1-3.755-3.755 3.746 3.746 0 0 1 3.754-3.748 3.74 3.74 0 0 1 3.747 3.748 3.751 3.751 0 0 1-3.747 3.755zm0 13.31a3.76 3.76 0 0 1-3.755-3.764c0-2.067 1.679-3.74 3.754-3.74a3.738 3.738 0 0 1 3.747 3.74 3.753 3.753 0 0 1-3.747 3.763zm0 13.309a3.746 3.746 0 0 1-3.755-3.747 3.76 3.76 0 0 1 3.754-3.763 3.753 3.753 0 0 1 3.747 3.763 3.74 3.74 0 0 1-3.747 3.747zm0 13.302a3.744 3.744 0 0 1-3.755-3.74 3.76 3.76 0 0 1 3.754-3.763 3.753 3.753 0 0 1 3.747 3.763 3.738 3.738 0 0 1-3.747 3.74zm0 13.31a3.746 3.746 0 0 1-3.755-3.748 3.758 3.758 0 0 1 3.754-3.755 3.751 3.751 0 0 1 3.747 3.755 3.74 3.74 0 0 1-3.747 3.747zm0 13.309a3.746 3.746 0 0 1-3.755-3.748 3.76 3.76 0 0 1 3.754-3.763 3.753 3.753 0 0 1 3.747 3.763 3.74 3.74 0 0 1-3.747 3.748zm0 13.317a3.753 3.753 0 0 1-3.755-3.755 3.746 3.746 0 0 1 3.754-3.747 3.74 3.74 0 0 1 3.747 3.747 3.746 3.746 0 0 1-3.747 3.755zm0 13.31a3.76 3.76 0 0 1-3.755-3.763c0-2.068 1.679-3.74 3.754-3.74a3.738 3.738 0 0 1 3.747 3.74 3.753 3.753 0 0 1-3.747 3.763zm0 13.31a3.76 3.76 0 0 1-3.755-3.764 3.74 3.74 0 0 1 3.754-3.74 3.733 3.733 0 0 1 3.747 3.74 3.753 3.753 0 0 1-3.747 3.763zm0 13.301a3.74 3.74 0 0 1-3.755-3.74 3.76 3.76 0 0 1 3.754-3.762 3.753 3.753 0 0 1 3.747 3.763 3.733 3.733 0 0 1-3.747 3.739zm0 13.31a3.746 3.746 0 0 1-3.755-3.748 3.758 3.758 0 0 1 3.754-3.755 3.751 3.751 0 0 1 3.747 3.755 3.74 3.74 0 0 1-3.747 3.748zm0 13.31a3.746 3.746 0 0 1-3.755-3.748 3.753 3.753 0 0 1 3.754-3.755 3.746 3.746 0 0 1 3.747 3.755 3.74 3.74 0 0 1-3.747 3.747zm0 13.317a3.753 3.753 0 0 1-3.755-3.756 3.746 3.746 0 0 1 3.754-3.747 3.74 3.74 0 0 1 3.747 3.747 3.746 3.746 0 0 1-3.747 3.756zm0 13.31a3.758 3.758 0 0 1-3.755-3.756 3.746 3.746 0 0 1 3.754-3.747 3.74 3.74 0 0 1 3.747 3.747 3.751 3.751 0 0 1-3.747 3.755zm0 13.309a3.76 3.76 0 0 1-3.755-3.763c0-2.068 1.679-3.74 3.754-3.74a3.738 3.738 0 0 1 3.747 3.74 3.753 3.753 0 0 1-3.747 3.763zm0 13.31a3.76 3.76 0 0 1-3.755-3.764 3.746 3.746 0 0 1 3.754-3.747 3.74 3.74 0 0 1 3.747 3.747 3.753 3.753 0 0 1-3.747 3.763zm0 13.301a3.744 3.744 0 0 1-3.755-3.74 3.76 3.76 0 0 1 3.754-3.763 3.753 3.753 0 0 1 3.747 3.764 3.738 3.738 0 0 1-3.747 3.739zm0 13.31a3.746 3.746 0 0 1-3.755-3.748 3.758 3.758 0 0 1 3.754-3.755 3.751 3.751 0 0 1 3.747 3.755 3.74 3.74 0 0 1-3.747 3.748zm0 13.31a3.746 3.746 0 0 1-3.755-3.748 3.76 3.76 0 0 1 3.754-3.763 3.753 3.753 0 0 1 3.747 3.763 3.74 3.74 0 0 1-3.747 3.747zm0 13.317a3.758 3.758 0 0 1-3.755-3.756 3.746 3.746 0 0 1 3.754-3.747 3.74 3.74 0 0 1 3.747 3.747 3.751 3.751 0 0 1-3.747 3.756zm0 13.31a3.76 3.76 0 0 1-3.755-3.764c0-2.068 1.679-3.74 3.754-3.74a3.738 3.738 0 0 1 3.747 3.74 3.753 3.753 0 0 1-3.747 3.763zm-13.208 13.309a3.76 3.76 0 0 1-3.755-3.763 3.746 3.746 0 0 1 3.755-3.748 3.74 3.74 0 0 1 3.747 3.748 3.753 3.753 0 0 1-3.747 3.763zm0 13.301a3.744 3.744 0 0 1-3.755-3.739 3.76 3.76 0 0 1 3.755-3.763 3.753 3.753 0 0 1 3.747 3.763 3.738 3.738 0 0 1-3.747 3.74zm0 13.31a3.746 3.746 0 0 1-3.755-3.747 3.758 3.758 0 0 1 3.755-3.756 3.751 3.751 0 0 1 3.747 3.756 3.74 3.74 0 0 1-3.747 3.747zm0 13.31a3.746 3.746 0 0 1-3.755-3.748 3.76 3.76 0 0 1 3.755-3.763 3.753 3.753 0 0 1 3.747 3.763 3.74 3.74 0 0 1-3.747 3.747zm-.109-372.66a3.746 3.746 0 0 1-3.755-3.748 3.76 3.76 0 0 1 3.755-3.763 3.76 3.76 0 0 1 3.755 3.763 3.746 3.746 0 0 1-3.755 3.748zm0 13.301a3.744 3.744 0 0 1-3.755-3.74 3.76 3.76 0 0 1 3.755-3.762 3.76 3.76 0 0 1 3.755 3.763c0 2.068-1.68 3.74-3.755 3.74zm0 13.31a3.746 3.746 0 0 1-3.755-3.748 3.758 3.758 0 0 1 3.755-3.755 3.758 3.758 0 0 1 3.755 3.755 3.746 3.746 0 0 1-3.755 3.748zm0 13.325a3.76 3.76 0 0 1-3.755-3.763 3.746 3.746 0 0 1 3.755-3.747 3.746 3.746 0 0 1 3.755 3.747 3.76 3.76 0 0 1-3.755 3.763zm0 13.302a3.758 3.758 0 0 1-3.755-3.755 3.746 3.746 0 0 1 3.755-3.748 3.746 3.746 0 0 1 3.755 3.748 3.758 3.758 0 0 1-3.755 3.755zm0 13.31a3.76 3.76 0 0 1-3.755-3.764c0-2.067 1.68-3.74 3.755-3.74a3.744 3.744 0 0 1 3.755 3.74 3.76 3.76 0 0 1-3.755 3.763zm0 13.309a3.746 3.746 0 0 1-3.755-3.747 3.76 3.76 0 0 1 3.755-3.763 3.76 3.76 0 0 1 3.755 3.763 3.746 3.746 0 0 1-3.755 3.747zm0 13.302a3.744 3.744 0 0 1-3.755-3.74 3.76 3.76 0 0 1 3.755-3.763 3.76 3.76 0 0 1 3.755 3.763c0 2.068-1.68 3.74-3.755 3.74zm0 13.31a3.746 3.746 0 0 1-3.755-3.748 3.758 3.758 0 0 1 3.755-3.755 3.758 3.758 0 0 1 3.755 3.755 3.746 3.746 0 0 1-3.755 3.747zm0 13.309a3.746 3.746 0 0 1-3.755-3.748 3.76 3.76 0 0 1 3.755-3.763 3.76 3.76 0 0 1 3.755 3.763 3.746 3.746 0 0 1-3.755 3.748zm0 13.317a3.753 3.753 0 0 1-3.755-3.755 3.746 3.746 0 0 1 3.755-3.747 3.746 3.746 0 0 1 3.755 3.747 3.753 3.753 0 0 1-3.755 3.755zm0 13.31a3.76 3.76 0 0 1-3.755-3.763c0-2.068 1.68-3.74 3.755-3.74a3.744 3.744 0 0 1 3.755 3.74 3.76 3.76 0 0 1-3.755 3.763zm0 13.31a3.76 3.76 0 0 1-3.755-3.764 3.74 3.74 0 0 1 3.755-3.74 3.74 3.74 0 0 1 3.755 3.74 3.76 3.76 0 0 1-3.755 3.763zm0 13.301a3.74 3.74 0 0 1-3.755-3.74 3.76 3.76 0 0 1 3.755-3.762 3.76 3.76 0 0 1 3.755 3.763 3.74 3.74 0 0 1-3.755 3.739zm0 13.31a3.746 3.746 0 0 1-3.755-3.748 3.758 3.758 0 0 1 3.755-3.755 3.758 3.758 0 0 1 3.755 3.755 3.746 3.746 0 0 1-3.755 3.748zm0 13.31a3.746 3.746 0 0 1-3.755-3.748 3.753 3.753 0 0 1 3.755-3.755 3.753 3.753 0 0 1 3.755 3.755 3.746 3.746 0 0 1-3.755 3.747zm0 13.317a3.753 3.753 0 0 1-3.755-3.756 3.746 3.746 0 0 1 3.755-3.747 3.746 3.746 0 0 1 3.755 3.747 3.753 3.753 0 0 1-3.755 3.756zm0 13.31a3.758 3.758 0 0 1-3.755-3.756 3.746 3.746 0 0 1 3.755-3.747 3.746 3.746 0 0 1 3.755 3.747 3.758 3.758 0 0 1-3.755 3.755zm0 13.309a3.76 3.76 0 0 1-3.755-3.763c0-2.068 1.68-3.74 3.755-3.74a3.744 3.744 0 0 1 3.755 3.74 3.76 3.76 0 0 1-3.755 3.763zm0 13.31a3.76 3.76 0 0 1-3.755-3.764 3.746 3.746 0 0 1 3.755-3.747 3.746 3.746 0 0 1 3.755 3.747 3.76 3.76 0 0 1-3.755 3.763zm0 13.301a3.744 3.744 0 0 1-3.755-3.74 3.76 3.76 0 0 1 3.755-3.763 3.76 3.76 0 0 1 3.755 3.764c0 2.067-1.68 3.739-3.755 3.739zm0 13.31a3.746 3.746 0 0 1-3.755-3.748 3.758 3.758 0 0 1 3.755-3.755 3.758 3.758 0 0 1 3.755 3.755 3.746 3.746 0 0 1-3.755 3.748zm0 13.31a3.746 3.746 0 0 1-3.755-3.748 3.76 3.76 0 0 1 3.755-3.763 3.76 3.76 0 0 1 3.755 3.763 3.746 3.746 0 0 1-3.755 3.747zm0 13.317a3.758 3.758 0 0 1-3.755-3.756 3.746 3.746 0 0 1 3.755-3.747 3.746 3.746 0 0 1 3.755 3.747 3.758 3.758 0 0 1-3.755 3.756zm0 13.31a3.76 3.76 0 0 1-3.755-3.764c0-2.068 1.68-3.74 3.755-3.74a3.744 3.744 0 0 1 3.755 3.74 3.76 3.76 0 0 1-3.755 3.763zm-13.208 13.309a3.76 3.76 0 0 1-3.754-3.763 3.746 3.746 0 0 1 3.754-3.748 3.746 3.746 0 0 1 3.755 3.748 3.76 3.76 0 0 1-3.755 3.763zm0 13.301a3.744 3.744 0 0 1-3.754-3.739 3.76 3.76 0 0 1 3.754-3.763 3.76 3.76 0 0 1 3.755 3.763c0 2.068-1.68 3.74-3.755 3.74zm0 13.31a3.746 3.746 0 0 1-3.754-3.747 3.758 3.758 0 0 1 3.754-3.756 3.758 3.758 0 0 1 3.755 3.756 3.746 3.746 0 0 1-3.755 3.747zm0 13.31a3.746 3.746 0 0 1-3.754-3.748 3.76 3.76 0 0 1 3.754-3.763 3.76 3.76 0 0 1 3.755 3.763 3.746 3.746 0 0 1-3.755 3.747zm13.208 13.301a3.744 3.744 0 0 1-3.755-3.74 3.76 3.76 0 0 1 3.755-3.762 3.76 3.76 0 0 1 3.755 3.763c0 2.068-1.68 3.74-3.755 3.74zM283.953 47.87c-2.068 0-3.747-1.687-3.747-3.763 0-2.068 1.68-3.74 3.747-3.74a3.744 3.744 0 0 1 3.755 3.74 3.76 3.76 0 0 1-3.755 3.763zm0-13.208c-2.068 0-3.747-1.687-3.747-3.763 0-2.067 1.68-3.739 3.747-3.739a3.744 3.744 0 0 1 3.755 3.74 3.76 3.76 0 0 1-3.755 3.762zm0 26.518c-2.068 0-3.747-1.688-3.747-3.763a3.744 3.744 0 0 1 3.747-3.748 3.746 3.746 0 0 1 3.755 3.748 3.76 3.76 0 0 1-3.755 3.763zm0 13.301a3.756 3.756 0 0 1-3.747-3.755 3.744 3.744 0 0 1 3.747-3.747 3.746 3.746 0 0 1 3.755 3.747 3.758 3.758 0 0 1-3.755 3.755zm13.208 0a3.756 3.756 0 0 1-3.747-3.755 3.744 3.744 0 0 1 3.747-3.747 3.746 3.746 0 0 1 3.754 3.747 3.758 3.758 0 0 1-3.754 3.755zm-13.208 13.31c-2.068 0-3.747-1.688-3.747-3.763 0-2.068 1.68-3.74 3.747-3.74a3.744 3.744 0 0 1 3.755 3.74 3.76 3.76 0 0 1-3.755 3.763zm0 13.31a3.744 3.744 0 0 1-3.747-3.748c0-2.075 1.68-3.763 3.747-3.763a3.76 3.76 0 0 1 3.755 3.763 3.746 3.746 0 0 1-3.755 3.748zm0 13.301a3.743 3.743 0 0 1-3.747-3.74c0-2.075 1.68-3.762 3.747-3.762a3.76 3.76 0 0 1 3.755 3.763c0 2.068-1.68 3.74-3.755 3.74zm0 13.31a3.744 3.744 0 0 1-3.747-3.748 3.756 3.756 0 0 1 3.747-3.755 3.758 3.758 0 0 1 3.755 3.755 3.746 3.746 0 0 1-3.755 3.748zm0 13.325c-2.068 0-3.747-1.687-3.747-3.763a3.744 3.744 0 0 1 3.747-3.747 3.746 3.746 0 0 1 3.755 3.747 3.76 3.76 0 0 1-3.755 3.763zm0 13.302a3.756 3.756 0 0 1-3.747-3.755 3.744 3.744 0 0 1 3.747-3.748 3.746 3.746 0 0 1 3.755 3.748 3.758 3.758 0 0 1-3.755 3.755zm0 13.31c-2.068 0-3.747-1.688-3.747-3.764 0-2.067 1.68-3.74 3.747-3.74a3.744 3.744 0 0 1 3.755 3.74 3.76 3.76 0 0 1-3.755 3.763zm0 13.309a3.744 3.744 0 0 1-3.747-3.747c0-2.076 1.68-3.763 3.747-3.763a3.76 3.76 0 0 1 3.755 3.763 3.746 3.746 0 0 1-3.755 3.747zm0 13.302a3.743 3.743 0 0 1-3.747-3.74c0-2.075 1.68-3.763 3.747-3.763a3.76 3.76 0 0 1 3.755 3.763c0 2.068-1.68 3.74-3.755 3.74zm0 13.31a3.744 3.744 0 0 1-3.747-3.748 3.756 3.756 0 0 1 3.747-3.755 3.758 3.758 0 0 1 3.755 3.755 3.746 3.746 0 0 1-3.755 3.747zm0 13.309a3.744 3.744 0 0 1-3.747-3.748c0-2.075 1.68-3.763 3.747-3.763a3.76 3.76 0 0 1 3.755 3.763 3.746 3.746 0 0 1-3.755 3.748zm0 13.317a3.751 3.751 0 0 1-3.747-3.755 3.744 3.744 0 0 1 3.747-3.747 3.746 3.746 0 0 1 3.755 3.747 3.753 3.753 0 0 1-3.755 3.755zm0 13.31c-2.068 0-3.747-1.688-3.747-3.763 0-2.068 1.68-3.74 3.747-3.74a3.744 3.744 0 0 1 3.755 3.74 3.76 3.76 0 0 1-3.755 3.763zm0 13.31c-2.068 0-3.747-1.688-3.747-3.764 0-2.075 1.68-3.74 3.747-3.74a3.74 3.74 0 0 1 3.755 3.74 3.76 3.76 0 0 1-3.755 3.763zm0 13.301a3.738 3.738 0 0 1-3.747-3.74c0-2.075 1.68-3.762 3.747-3.762a3.76 3.76 0 0 1 3.755 3.763 3.74 3.74 0 0 1-3.755 3.739zm0 13.31a3.744 3.744 0 0 1-3.747-3.748 3.756 3.756 0 0 1 3.747-3.755 3.758 3.758 0 0 1 3.755 3.755 3.746 3.746 0 0 1-3.755 3.748zm0 13.31a3.744 3.744 0 0 1-3.747-3.748 3.751 3.751 0 1 1 3.747 3.747zm0 13.317a3.751 3.751 0 0 1-3.747-3.756 3.744 3.744 0 0 1 3.747-3.747 3.746 3.746 0 0 1 3.755 3.747 3.753 3.753 0 0 1-3.755 3.756zm0 13.31a3.756 3.756 0 0 1-3.747-3.756 3.744 3.744 0 0 1 3.747-3.747 3.746 3.746 0 0 1 3.755 3.747 3.758 3.758 0 0 1-3.755 3.755zm0 13.309c-2.068 0-3.747-1.688-3.747-3.763 0-2.068 1.68-3.74 3.747-3.74a3.744 3.744 0 0 1 3.755 3.74 3.76 3.76 0 0 1-3.755 3.763zm0 13.31c-2.068 0-3.747-1.688-3.747-3.764a3.744 3.744 0 0 1 3.747-3.747 3.746 3.746 0 0 1 3.755 3.747 3.76 3.76 0 0 1-3.755 3.763zm0 13.301a3.743 3.743 0 0 1-3.747-3.74c0-2.075 1.68-3.763 3.747-3.763a3.76 3.76 0 0 1 3.755 3.764c0 2.067-1.68 3.739-3.755 3.739zm0 13.31a3.744 3.744 0 0 1-3.747-3.748 3.756 3.756 0 0 1 3.747-3.755 3.758 3.758 0 0 1 3.755 3.755 3.746 3.746 0 0 1-3.755 3.748zm0 13.31a3.744 3.744 0 0 1-3.747-3.748c0-2.076 1.68-3.763 3.747-3.763a3.76 3.76 0 0 1 3.755 3.763 3.746 3.746 0 0 1-3.755 3.747zm0 13.317a3.756 3.756 0 0 1-3.747-3.756 3.744 3.744 0 0 1 3.747-3.747 3.746 3.746 0 0 1 3.755 3.747 3.758 3.758 0 0 1-3.755 3.756zm-13.208 0a3.756 3.756 0 0 1-3.747-3.756 3.744 3.744 0 0 1 3.747-3.747 3.746 3.746 0 0 1 3.755 3.747 3.758 3.758 0 0 1-3.755 3.756zm13.208 13.31c-2.068 0-3.747-1.688-3.747-3.764 0-2.068 1.68-3.74 3.747-3.74a3.744 3.744 0 0 1 3.755 3.74 3.76 3.76 0 0 1-3.755 3.763zm-13.208 13.309c-2.067 0-3.747-1.688-3.747-3.763a3.744 3.744 0 0 1 3.747-3.748 3.746 3.746 0 0 1 3.755 3.748 3.76 3.76 0 0 1-3.755 3.763zm0 13.301a3.743 3.743 0 0 1-3.747-3.739c0-2.076 1.68-3.763 3.747-3.763a3.76 3.76 0 0 1 3.755 3.763c0 2.068-1.68 3.74-3.755 3.74zm-13.208 0a3.743 3.743 0 0 1-3.746-3.739c0-2.076 1.679-3.763 3.746-3.763a3.76 3.76 0 0 1 3.755 3.763c0 2.068-1.68 3.74-3.755 3.74zm13.208 13.31a3.744 3.744 0 0 1-3.747-3.747 3.756 3.756 0 0 1 3.747-3.756 3.758 3.758 0 0 1 3.755 3.756 3.746 3.746 0 0 1-3.755 3.747zm0 13.31a3.744 3.744 0 0 1-3.747-3.748c0-2.075 1.68-3.763 3.747-3.763a3.76 3.76 0 0 1 3.755 3.763 3.746 3.746 0 0 1-3.755 3.747zm13.208 13.301a3.743 3.743 0 0 1-3.747-3.74c0-2.075 1.68-3.762 3.747-3.762a3.76 3.76 0 0 1 3.755 3.763c0 2.068-1.68 3.74-3.755 3.74zm0 13.326c-2.068 0-3.747-1.688-3.747-3.764 0-2.067 1.68-3.739 3.747-3.739a3.744 3.744 0 0 1 3.755 3.74 3.76 3.76 0 0 1-3.755 3.763zm-26.508-39.937a3.746 3.746 0 0 1-3.755-3.747 3.758 3.758 0 0 1 3.755-3.756 3.756 3.756 0 0 1 3.747 3.756 3.744 3.744 0 0 1-3.747 3.747zm-13.208 0a3.746 3.746 0 0 1-3.755-3.747 3.758 3.758 0 0 1 3.755-3.756 3.756 3.756 0 0 1 3.747 3.756 3.744 3.744 0 0 1-3.747 3.747zm13.208 13.31a3.746 3.746 0 0 1-3.755-3.748 3.76 3.76 0 0 1 3.755-3.763c2.067 0 3.747 1.688 3.747 3.763a3.744 3.744 0 0 1-3.747 3.747zm13.207 13.301a3.744 3.744 0 0 1-3.754-3.74 3.76 3.76 0 0 1 3.754-3.762c2.068 0 3.747 1.687 3.747 3.763 0 2.068-1.679 3.74-3.747 3.74zm0 13.326a3.76 3.76 0 0 1-3.754-3.764c0-2.067 1.679-3.739 3.754-3.739a3.743 3.743 0 0 1 3.747 3.74c0 2.075-1.679 3.763-3.747 3.763zm0 13.31a3.76 3.76 0 0 1-3.754-3.764 3.746 3.746 0 0 1 3.754-3.747 3.744 3.744 0 0 1 3.747 3.747c0 2.076-1.679 3.763-3.747 3.763zm-26.524-39.938a3.746 3.746 0 0 1-3.754-3.747 3.76 3.76 0 0 1 3.754-3.763 3.76 3.76 0 0 1 3.755 3.763 3.746 3.746 0 0 1-3.755 3.747zm-13.207 0a3.746 3.746 0 0 1-3.755-3.747 3.76 3.76 0 0 1 3.755-3.763 3.76 3.76 0 0 1 3.755 3.763 3.746 3.746 0 0 1-3.755 3.747zm26.415 13.302a3.744 3.744 0 0 1-3.755-3.74 3.76 3.76 0 0 1 3.755-3.762 3.76 3.76 0 0 1 3.755 3.763c0 2.068-1.68 3.74-3.755 3.74zm-13.308 0a3.743 3.743 0 0 1-3.747-3.74c0-2.075 1.68-3.762 3.747-3.762a3.76 3.76 0 0 1 3.755 3.763c0 2.068-1.68 3.74-3.755 3.74zM270.652 61.18a3.76 3.76 0 0 1-3.754-3.763 3.746 3.746 0 0 1 3.754-3.748 3.744 3.744 0 0 1 3.747 3.748c0 2.075-1.679 3.763-3.747 3.763zm0-13.208a3.76 3.76 0 0 1-3.754-3.763 3.746 3.746 0 0 1 3.754-3.747 3.744 3.744 0 0 1 3.747 3.747c0 2.076-1.679 3.763-3.747 3.763zm0 26.51a3.758 3.758 0 0 1-3.754-3.756 3.746 3.746 0 0 1 3.754-3.747 3.744 3.744 0 0 1 3.747 3.747 3.756 3.756 0 0 1-3.747 3.755zm0 13.309a3.76 3.76 0 0 1-3.754-3.763c0-2.068 1.679-3.74 3.754-3.74a3.743 3.743 0 0 1 3.747 3.74c0 2.075-1.679 3.763-3.747 3.763zm0 13.31a3.746 3.746 0 0 1-3.754-3.748 3.76 3.76 0 0 1 3.754-3.763c2.068 0 3.747 1.688 3.747 3.763a3.744 3.744 0 0 1-3.747 3.748zm0 13.301a3.744 3.744 0 0 1-3.754-3.74 3.76 3.76 0 0 1 3.754-3.762c2.068 0 3.747 1.687 3.747 3.763 0 2.068-1.679 3.74-3.747 3.74zm0 13.31a3.746 3.746 0 0 1-3.754-3.748 3.758 3.758 0 0 1 3.754-3.755 3.756 3.756 0 0 1 3.747 3.755 3.744 3.744 0 0 1-3.747 3.748zm0 13.325a3.76 3.76 0 0 1-3.754-3.763 3.746 3.746 0 0 1 3.754-3.747 3.744 3.744 0 0 1 3.747 3.747c0 2.076-1.679 3.763-3.747 3.763zm0 13.302a3.758 3.758 0 0 1-3.754-3.755 3.746 3.746 0 0 1 3.754-3.748 3.744 3.744 0 0 1 3.747 3.748 3.756 3.756 0 0 1-3.747 3.755zm0 13.31a3.76 3.76 0 0 1-3.754-3.764c0-2.067 1.679-3.74 3.754-3.74a3.743 3.743 0 0 1 3.747 3.74c0 2.076-1.679 3.763-3.747 3.763zm0 13.309a3.746 3.746 0 0 1-3.754-3.747 3.76 3.76 0 0 1 3.754-3.763c2.068 0 3.747 1.687 3.747 3.763a3.744 3.744 0 0 1-3.747 3.747zm0 13.302a3.744 3.744 0 0 1-3.754-3.74 3.76 3.76 0 0 1 3.754-3.763c2.068 0 3.747 1.688 3.747 3.763 0 2.068-1.679 3.74-3.747 3.74zm0 13.31a3.746 3.746 0 0 1-3.754-3.748 3.758 3.758 0 0 1 3.754-3.755 3.756 3.756 0 0 1 3.747 3.755 3.744 3.744 0 0 1-3.747 3.747zm0 13.309a3.746 3.746 0 0 1-3.754-3.748 3.76 3.76 0 0 1 3.754-3.763c2.068 0 3.747 1.688 3.747 3.763a3.744 3.744 0 0 1-3.747 3.748zm0 13.317a3.753 3.753 0 0 1-3.754-3.755 3.746 3.746 0 0 1 3.754-3.747 3.744 3.744 0 0 1 3.747 3.747 3.751 3.751 0 0 1-3.747 3.755zm0 13.31a3.76 3.76 0 0 1-3.754-3.763c0-2.068 1.679-3.74 3.754-3.74a3.743 3.743 0 0 1 3.747 3.74c0 2.075-1.679 3.763-3.747 3.763zm0 13.31a3.76 3.76 0 0 1-3.754-3.764 3.74 3.74 0 0 1 3.754-3.74 3.738 3.738 0 0 1 3.747 3.74c0 2.076-1.679 3.763-3.747 3.763zm0 13.301a3.74 3.74 0 0 1-3.754-3.74 3.76 3.76 0 0 1 3.754-3.762c2.068 0 3.747 1.687 3.747 3.763 0 2.075-1.679 3.739-3.747 3.739zm0 13.31a3.746 3.746 0 0 1-3.754-3.748 3.758 3.758 0 0 1 3.754-3.755 3.756 3.756 0 0 1 3.747 3.755 3.744 3.744 0 0 1-3.747 3.748zm0 13.31a3.746 3.746 0 0 1-3.754-3.748 3.751 3.751 0 0 1 7.502 0 3.744 3.744 0 0 1-3.748 3.747zm0 13.317a3.753 3.753 0 0 1-3.754-3.756 3.746 3.746 0 0 1 3.754-3.747 3.744 3.744 0 0 1 3.747 3.747 3.751 3.751 0 0 1-3.747 3.756zm0 13.31a3.758 3.758 0 0 1-3.754-3.756 3.746 3.746 0 0 1 3.754-3.747 3.744 3.744 0 0 1 3.747 3.747 3.756 3.756 0 0 1-3.747 3.755zm0 13.309a3.76 3.76 0 0 1-3.754-3.763c0-2.068 1.679-3.74 3.754-3.74a3.743 3.743 0 0 1 3.747 3.74c0 2.075-1.679 3.763-3.747 3.763zm0 13.31a3.76 3.76 0 0 1-3.754-3.764 3.746 3.746 0 0 1 3.754-3.747 3.744 3.744 0 0 1 3.747 3.747c0 2.076-1.679 3.763-3.747 3.763zm0 13.301a3.744 3.744 0 0 1-3.754-3.74 3.76 3.76 0 0 1 3.754-3.763c2.068 0 3.747 1.688 3.747 3.764 0 2.067-1.679 3.739-3.747 3.739zm0 13.31a3.746 3.746 0 0 1-3.754-3.748 3.758 3.758 0 0 1 3.754-3.755 3.756 3.756 0 0 1 3.747 3.755 3.744 3.744 0 0 1-3.747 3.748zm0 13.31a3.746 3.746 0 0 1-3.754-3.748 3.76 3.76 0 0 1 3.754-3.763c2.068 0 3.747 1.687 3.747 3.763a3.744 3.744 0 0 1-3.747 3.747zm0 26.626a3.76 3.76 0 0 1-3.754-3.763c0-2.068 1.679-3.74 3.754-3.74a3.743 3.743 0 0 1 3.747 3.74c0 2.076-1.679 3.763-3.747 3.763zM257.336 47.87a3.76 3.76 0 0 1-3.755-3.763c0-2.068 1.68-3.74 3.755-3.74a3.744 3.744 0 0 1 3.755 3.74 3.76 3.76 0 0 1-3.755 3.763zm0 13.31a3.76 3.76 0 0 1-3.755-3.763 3.746 3.746 0 0 1 3.755-3.748 3.746 3.746 0 0 1 3.755 3.748 3.76 3.76 0 0 1-3.755 3.763zm0 13.301a3.758 3.758 0 0 1-3.755-3.755 3.746 3.746 0 0 1 3.755-3.747 3.746 3.746 0 0 1 3.755 3.747 3.758 3.758 0 0 1-3.755 3.755zm0 13.31a3.76 3.76 0 0 1-3.755-3.763c0-2.068 1.68-3.74 3.755-3.74a3.744 3.744 0 0 1 3.755 3.74 3.76 3.76 0 0 1-3.755 3.763zm0 13.31a3.746 3.746 0 0 1-3.755-3.748 3.76 3.76 0 0 1 3.755-3.763 3.76 3.76 0 0 1 3.755 3.763 3.746 3.746 0 0 1-3.755 3.748zm0 13.301a3.744 3.744 0 0 1-3.755-3.74 3.76 3.76 0 0 1 3.755-3.762 3.76 3.76 0 0 1 3.755 3.763c0 2.068-1.68 3.74-3.755 3.74zm0 13.31a3.746 3.746 0 0 1-3.755-3.748 3.758 3.758 0 0 1 3.755-3.755 3.758 3.758 0 0 1 3.755 3.755 3.746 3.746 0 0 1-3.755 3.748zm0 13.325a3.76 3.76 0 0 1-3.755-3.763 3.746 3.746 0 0 1 3.755-3.747 3.746 3.746 0 0 1 3.755 3.747 3.76 3.76 0 0 1-3.755 3.763zm0 13.302a3.758 3.758 0 0 1-3.755-3.755 3.746 3.746 0 0 1 3.755-3.748 3.746 3.746 0 0 1 3.755 3.748 3.758 3.758 0 0 1-3.755 3.755zm0 13.31a3.76 3.76 0 0 1-3.755-3.764c0-2.067 1.68-3.74 3.755-3.74a3.744 3.744 0 0 1 3.755 3.74 3.76 3.76 0 0 1-3.755 3.763zm0 13.309a3.746 3.746 0 0 1-3.755-3.747 3.76 3.76 0 0 1 3.755-3.763 3.76 3.76 0 0 1 3.755 3.763 3.746 3.746 0 0 1-3.755 3.747zm0 13.302a3.744 3.744 0 0 1-3.755-3.74 3.76 3.76 0 0 1 3.755-3.763 3.76 3.76 0 0 1 3.755 3.763c0 2.068-1.68 3.74-3.755 3.74zm0 13.31a3.746 3.746 0 0 1-3.755-3.748 3.758 3.758 0 0 1 3.755-3.755 3.758 3.758 0 0 1 3.755 3.755 3.746 3.746 0 0 1-3.755 3.747zm0 13.309a3.746 3.746 0 0 1-3.755-3.748 3.76 3.76 0 0 1 3.755-3.763 3.76 3.76 0 0 1 3.755 3.763 3.746 3.746 0 0 1-3.755 3.748zm0 13.317a3.753 3.753 0 0 1-3.755-3.755 3.746 3.746 0 0 1 3.755-3.747 3.746 3.746 0 0 1 3.755 3.747 3.753 3.753 0 0 1-3.755 3.755zm0 13.31a3.76 3.76 0 0 1-3.755-3.763c0-2.068 1.68-3.74 3.755-3.74a3.744 3.744 0 0 1 3.755 3.74 3.76 3.76 0 0 1-3.755 3.763zm0 13.31a3.76 3.76 0 0 1-3.755-3.764 3.74 3.74 0 0 1 3.755-3.74 3.74 3.74 0 0 1 3.755 3.74 3.76 3.76 0 0 1-3.755 3.763zm0 13.301a3.74 3.74 0 0 1-3.755-3.74 3.76 3.76 0 0 1 3.755-3.762 3.76 3.76 0 0 1 3.755 3.763 3.74 3.74 0 0 1-3.755 3.739zm0 13.31a3.746 3.746 0 0 1-3.755-3.748 3.758 3.758 0 0 1 3.755-3.755 3.758 3.758 0 0 1 3.755 3.755 3.746 3.746 0 0 1-3.755 3.748zm0 13.31a3.746 3.746 0 0 1-3.755-3.748 3.753 3.753 0 0 1 3.755-3.755 3.753 3.753 0 0 1 3.755 3.755 3.746 3.746 0 0 1-3.755 3.747zm0 13.317a3.753 3.753 0 0 1-3.755-3.756 3.746 3.746 0 0 1 3.755-3.747 3.746 3.746 0 0 1 3.755 3.747 3.753 3.753 0 0 1-3.755 3.756zm0 13.31a3.758 3.758 0 0 1-3.755-3.756 3.746 3.746 0 0 1 3.755-3.747 3.746 3.746 0 0 1 3.755 3.747 3.758 3.758 0 0 1-3.755 3.755zm0 13.309a3.76 3.76 0 0 1-3.755-3.763c0-2.068 1.68-3.74 3.755-3.74a3.744 3.744 0 0 1 3.755 3.74 3.76 3.76 0 0 1-3.755 3.763zm0 13.31a3.76 3.76 0 0 1-3.755-3.764 3.746 3.746 0 0 1 3.755-3.747 3.746 3.746 0 0 1 3.755 3.747 3.76 3.76 0 0 1-3.755 3.763zm0 13.301a3.744 3.744 0 0 1-3.755-3.74 3.76 3.76 0 0 1 3.755-3.763 3.76 3.76 0 0 1 3.755 3.764c0 2.067-1.68 3.739-3.755 3.739zm0 13.31a3.746 3.746 0 0 1-3.755-3.748 3.758 3.758 0 0 1 3.755-3.755 3.758 3.758 0 0 1 3.755 3.755 3.746 3.746 0 0 1-3.755 3.748zm-13.208 0a3.746 3.746 0 0 1-3.754-3.748 3.758 3.758 0 0 1 3.754-3.755 3.758 3.758 0 0 1 3.755 3.755 3.746 3.746 0 0 1-3.755 3.748zm13.208 13.31a3.746 3.746 0 0 1-3.755-3.748 3.76 3.76 0 0 1 3.755-3.763 3.76 3.76 0 0 1 3.755 3.763 3.746 3.746 0 0 1-3.755 3.747zM244.028 61.178c-2.068 0-3.747-1.688-3.747-3.763a3.744 3.744 0 0 1 3.747-3.748 3.746 3.746 0 0 1 3.755 3.748 3.76 3.76 0 0 1-3.755 3.763zm0-13.208c-2.068 0-3.747-1.687-3.747-3.763a3.744 3.744 0 0 1 3.747-3.747 3.746 3.746 0 0 1 3.755 3.747 3.76 3.76 0 0 1-3.755 3.763zm13.308-13.31a3.76 3.76 0 0 1-3.755-3.763c0-2.067 1.68-3.739 3.755-3.739a3.744 3.744 0 0 1 3.755 3.74 3.76 3.76 0 0 1-3.755 3.762zm-13.308.102c-2.068 0-3.747-1.687-3.747-3.763a3.744 3.744 0 0 1 3.747-3.747A3.746 3.746 0 0 1 247.783 31a3.76 3.76 0 0 1-3.755 3.763zm0 39.717a3.756 3.756 0 0 1-3.747-3.755 3.744 3.744 0 0 1 3.747-3.747 3.746 3.746 0 0 1 3.755 3.747 3.758 3.758 0 0 1-3.755 3.755zm0 13.31c-2.068 0-3.747-1.688-3.747-3.763 0-2.068 1.68-3.74 3.747-3.74a3.744 3.744 0 0 1 3.755 3.74 3.76 3.76 0 0 1-3.755 3.763zm0 13.31a3.744 3.744 0 0 1-3.747-3.748c0-2.075 1.68-3.763 3.747-3.763a3.76 3.76 0 0 1 3.755 3.763 3.746 3.746 0 0 1-3.755 3.748zm0 13.301a3.743 3.743 0 0 1-3.747-3.74c0-2.075 1.68-3.762 3.747-3.762a3.76 3.76 0 0 1 3.755 3.763c0 2.068-1.68 3.74-3.755 3.74zm0 13.31a3.744 3.744 0 0 1-3.747-3.748 3.756 3.756 0 0 1 3.747-3.755 3.758 3.758 0 0 1 3.755 3.755 3.746 3.746 0 0 1-3.755 3.748zm0 13.325c-2.068 0-3.747-1.687-3.747-3.763a3.744 3.744 0 0 1 3.747-3.747 3.746 3.746 0 0 1 3.755 3.747 3.76 3.76 0 0 1-3.755 3.763zm0 13.302a3.756 3.756 0 0 1-3.747-3.755 3.744 3.744 0 0 1 3.747-3.748 3.746 3.746 0 0 1 3.755 3.748 3.758 3.758 0 0 1-3.755 3.755zm0 13.31c-2.068 0-3.747-1.688-3.747-3.764 0-2.067 1.68-3.74 3.747-3.74a3.744 3.744 0 0 1 3.755 3.74 3.76 3.76 0 0 1-3.755 3.763zm0 13.309a3.744 3.744 0 0 1-3.747-3.747c0-2.076 1.68-3.763 3.747-3.763a3.76 3.76 0 0 1 3.755 3.763 3.746 3.746 0 0 1-3.755 3.747zm0 13.302a3.743 3.743 0 0 1-3.747-3.74c0-2.075 1.68-3.763 3.747-3.763a3.76 3.76 0 0 1 3.755 3.763c0 2.068-1.68 3.74-3.755 3.74zm0 13.31a3.744 3.744 0 0 1-3.747-3.748 3.756 3.756 0 0 1 3.747-3.755 3.758 3.758 0 0 1 3.755 3.755 3.746 3.746 0 0 1-3.755 3.747zm0 13.309a3.744 3.744 0 0 1-3.747-3.748c0-2.075 1.68-3.763 3.747-3.763a3.76 3.76 0 0 1 3.755 3.763 3.746 3.746 0 0 1-3.755 3.748zm0 13.317a3.751 3.751 0 0 1-3.747-3.755 3.744 3.744 0 0 1 3.747-3.747 3.746 3.746 0 0 1 3.755 3.747 3.753 3.753 0 0 1-3.755 3.755zm0 13.31c-2.068 0-3.747-1.688-3.747-3.763 0-2.068 1.68-3.74 3.747-3.74a3.744 3.744 0 0 1 3.755 3.74 3.76 3.76 0 0 1-3.755 3.763zm0 13.31c-2.068 0-3.747-1.688-3.747-3.764 0-2.075 1.68-3.74 3.747-3.74a3.74 3.74 0 0 1 3.755 3.74 3.76 3.76 0 0 1-3.755 3.763zm0 13.301a3.738 3.738 0 0 1-3.747-3.74c0-2.075 1.68-3.762 3.747-3.762a3.76 3.76 0 0 1 3.755 3.763 3.74 3.74 0 0 1-3.755 3.739zm0 13.31a3.744 3.744 0 0 1-3.747-3.748 3.756 3.756 0 0 1 3.747-3.755 3.758 3.758 0 0 1 3.755 3.755 3.746 3.746 0 0 1-3.755 3.748zm0 13.31a3.744 3.744 0 0 1-3.747-3.748 3.751 3.751 0 1 1 3.747 3.747zm0 13.317a3.751 3.751 0 0 1-3.747-3.756 3.744 3.744 0 0 1 3.747-3.747 3.746 3.746 0 0 1 3.755 3.747 3.753 3.753 0 0 1-3.755 3.756zm0 13.31a3.756 3.756 0 0 1-3.747-3.756 3.744 3.744 0 0 1 3.747-3.747 3.746 3.746 0 0 1 3.755 3.747 3.758 3.758 0 0 1-3.755 3.755zm0 13.309c-2.068 0-3.747-1.688-3.747-3.763 0-2.068 1.68-3.74 3.747-3.74a3.744 3.744 0 0 1 3.755 3.74 3.76 3.76 0 0 1-3.755 3.763zm0 13.31c-2.068 0-3.747-1.688-3.747-3.764a3.744 3.744 0 0 1 3.747-3.747 3.746 3.746 0 0 1 3.755 3.747 3.76 3.76 0 0 1-3.755 3.763zm0 13.301a3.743 3.743 0 0 1-3.747-3.74c0-2.075 1.68-3.763 3.747-3.763a3.76 3.76 0 0 1 3.755 3.764c0 2.067-1.68 3.739-3.755 3.739zm-13.3-306.104a3.76 3.76 0 0 1-3.755-3.763 3.746 3.746 0 0 1 3.754-3.748 3.744 3.744 0 0 1 3.747 3.748c0 2.075-1.679 3.763-3.747 3.763zm0 13.301a3.758 3.758 0 0 1-3.755-3.755 3.746 3.746 0 0 1 3.754-3.747 3.744 3.744 0 0 1 3.747 3.747 3.756 3.756 0 0 1-3.747 3.755zm0 13.31a3.76 3.76 0 0 1-3.755-3.763c0-2.068 1.679-3.74 3.754-3.74a3.743 3.743 0 0 1 3.747 3.74c0 2.075-1.679 3.763-3.747 3.763zm0 13.31a3.746 3.746 0 0 1-3.755-3.748 3.76 3.76 0 0 1 3.754-3.763c2.068 0 3.747 1.688 3.747 3.763a3.744 3.744 0 0 1-3.747 3.748zm0 13.301a3.744 3.744 0 0 1-3.755-3.74 3.76 3.76 0 0 1 3.754-3.762c2.068 0 3.747 1.687 3.747 3.763 0 2.068-1.679 3.74-3.747 3.74zm0 13.31a3.746 3.746 0 0 1-3.755-3.748 3.758 3.758 0 0 1 3.754-3.755 3.756 3.756 0 0 1 3.747 3.755 3.744 3.744 0 0 1-3.747 3.748zm0 13.325a3.76 3.76 0 0 1-3.755-3.763 3.746 3.746 0 0 1 3.754-3.747 3.744 3.744 0 0 1 3.747 3.747c0 2.076-1.679 3.763-3.747 3.763zm0 13.302a3.758 3.758 0 0 1-3.755-3.755 3.746 3.746 0 0 1 3.754-3.748 3.744 3.744 0 0 1 3.747 3.748 3.756 3.756 0 0 1-3.747 3.755zm0 13.31a3.76 3.76 0 0 1-3.755-3.764c0-2.067 1.679-3.74 3.754-3.74a3.743 3.743 0 0 1 3.747 3.74c0 2.076-1.679 3.763-3.747 3.763zm0 13.309a3.746 3.746 0 0 1-3.755-3.747 3.76 3.76 0 0 1 3.754-3.763c2.068 0 3.747 1.687 3.747 3.763a3.744 3.744 0 0 1-3.747 3.747zm0 13.302a3.744 3.744 0 0 1-3.755-3.74 3.76 3.76 0 0 1 3.754-3.763c2.068 0 3.747 1.688 3.747 3.763 0 2.068-1.679 3.74-3.747 3.74zm0 13.31a3.746 3.746 0 0 1-3.755-3.748 3.758 3.758 0 0 1 3.754-3.755 3.756 3.756 0 0 1 3.747 3.755 3.744 3.744 0 0 1-3.747 3.747zm0 13.309a3.746 3.746 0 0 1-3.755-3.748 3.76 3.76 0 0 1 3.754-3.763c2.068 0 3.747 1.688 3.747 3.763a3.744 3.744 0 0 1-3.747 3.748zm0 13.317a3.753 3.753 0 0 1-3.755-3.755 3.746 3.746 0 0 1 3.754-3.747 3.744 3.744 0 0 1 3.747 3.747 3.751 3.751 0 0 1-3.747 3.755zm0 13.31a3.76 3.76 0 0 1-3.755-3.763c0-2.068 1.679-3.74 3.754-3.74a3.743 3.743 0 0 1 3.747 3.74c0 2.075-1.679 3.763-3.747 3.763zm0 13.31a3.76 3.76 0 0 1-3.755-3.764 3.74 3.74 0 0 1 3.754-3.74 3.738 3.738 0 0 1 3.747 3.74c0 2.076-1.679 3.763-3.747 3.763zm0 13.301a3.74 3.74 0 0 1-3.755-3.74 3.76 3.76 0 0 1 3.754-3.762c2.068 0 3.747 1.687 3.747 3.763 0 2.075-1.679 3.739-3.747 3.739zm0 13.31a3.746 3.746 0 0 1-3.755-3.748 3.758 3.758 0 0 1 3.754-3.755 3.756 3.756 0 0 1 3.747 3.755 3.744 3.744 0 0 1-3.747 3.748zm0 13.31a3.746 3.746 0 0 1-3.755-3.748 3.751 3.751 0 0 1 7.502 0 3.744 3.744 0 0 1-3.748 3.747zm0 13.317a3.753 3.753 0 0 1-3.755-3.756 3.746 3.746 0 0 1 3.754-3.747 3.744 3.744 0 0 1 3.747 3.747 3.751 3.751 0 0 1-3.747 3.756zm-13.208 0a3.753 3.753 0 0 1-3.755-3.756 3.746 3.746 0 0 1 3.755-3.747 3.744 3.744 0 0 1 3.747 3.747 3.751 3.751 0 0 1-3.747 3.756zm13.207 13.31a3.758 3.758 0 0 1-3.754-3.756 3.746 3.746 0 0 1 3.754-3.747 3.744 3.744 0 0 1 3.747 3.747 3.756 3.756 0 0 1-3.747 3.755zm0 13.309a3.76 3.76 0 0 1-3.754-3.763c0-2.068 1.679-3.74 3.754-3.74a3.743 3.743 0 0 1 3.747 3.74c0 2.075-1.679 3.763-3.747 3.763zm-13.207 0a3.76 3.76 0 0 1-3.755-3.763c0-2.068 1.68-3.74 3.755-3.74a3.743 3.743 0 0 1 3.747 3.74c0 2.075-1.68 3.763-3.747 3.763zm13.207 13.31a3.76 3.76 0 0 1-3.754-3.764 3.746 3.746 0 0 1 3.754-3.747 3.744 3.744 0 0 1 3.747 3.747c0 2.076-1.679 3.763-3.747 3.763zm-13.207 0a3.76 3.76 0 0 1-3.755-3.764 3.746 3.746 0 0 1 3.755-3.747 3.744 3.744 0 0 1 3.747 3.747c0 2.076-1.68 3.763-3.747 3.763zm13.207 13.301a3.744 3.744 0 0 1-3.754-3.74 3.76 3.76 0 0 1 3.754-3.763c2.068 0 3.747 1.688 3.747 3.764 0 2.067-1.679 3.739-3.747 3.739zm-13.207 0a3.744 3.744 0 0 1-3.755-3.74 3.76 3.76 0 0 1 3.755-3.763c2.067 0 3.747 1.688 3.747 3.764 0 2.067-1.68 3.739-3.747 3.739zm-.109-306.104a3.76 3.76 0 0 1-3.755-3.763 3.746 3.746 0 0 1 3.755-3.748 3.746 3.746 0 0 1 3.755 3.748 3.76 3.76 0 0 1-3.755 3.763zm13.316-13.208a3.76 3.76 0 0 1-3.754-3.763 3.746 3.746 0 0 1 3.754-3.747 3.744 3.744 0 0 1 3.747 3.747c0 2.076-1.679 3.763-3.747 3.763zm-13.316 0a3.76 3.76 0 0 1-3.755-3.763 3.746 3.746 0 0 1 3.755-3.747 3.746 3.746 0 0 1 3.755 3.747 3.76 3.76 0 0 1-3.755 3.763zm0 26.51a3.758 3.758 0 0 1-3.755-3.756 3.746 3.746 0 0 1 3.755-3.747 3.746 3.746 0 0 1 3.755 3.747 3.758 3.758 0 0 1-3.755 3.755zm0 13.309a3.76 3.76 0 0 1-3.755-3.763c0-2.068 1.68-3.74 3.755-3.74a3.744 3.744 0 0 1 3.755 3.74 3.76 3.76 0 0 1-3.755 3.763zm0 13.31a3.746 3.746 0 0 1-3.755-3.748 3.76 3.76 0 0 1 3.755-3.763 3.76 3.76 0 0 1 3.755 3.763 3.746 3.746 0 0 1-3.755 3.748zm0 13.301a3.744 3.744 0 0 1-3.755-3.74 3.76 3.76 0 0 1 3.755-3.762 3.76 3.76 0 0 1 3.755 3.763c0 2.068-1.68 3.74-3.755 3.74zm0 13.31a3.746 3.746 0 0 1-3.755-3.748 3.758 3.758 0 0 1 3.755-3.755 3.758 3.758 0 0 1 3.755 3.755 3.746 3.746 0 0 1-3.755 3.748zm0 13.325a3.76 3.76 0 0 1-3.755-3.763 3.746 3.746 0 0 1 3.755-3.747 3.746 3.746 0 0 1 3.755 3.747 3.76 3.76 0 0 1-3.755 3.763zm0 13.302a3.758 3.758 0 0 1-3.755-3.755 3.746 3.746 0 0 1 3.755-3.748 3.746 3.746 0 0 1 3.755 3.748 3.758 3.758 0 0 1-3.755 3.755zm0 13.31a3.76 3.76 0 0 1-3.755-3.764c0-2.067 1.68-3.74 3.755-3.74a3.744 3.744 0 0 1 3.755 3.74 3.76 3.76 0 0 1-3.755 3.763zm0 13.309a3.746 3.746 0 0 1-3.755-3.747 3.76 3.76 0 0 1 3.755-3.763 3.76 3.76 0 0 1 3.755 3.763 3.746 3.746 0 0 1-3.755 3.747zm0 13.302a3.744 3.744 0 0 1-3.755-3.74 3.76 3.76 0 0 1 3.755-3.763 3.76 3.76 0 0 1 3.755 3.763c0 2.068-1.68 3.74-3.755 3.74zm0 13.31a3.746 3.746 0 0 1-3.755-3.748 3.758 3.758 0 0 1 3.755-3.755 3.758 3.758 0 0 1 3.755 3.755 3.746 3.746 0 0 1-3.755 3.747zm0 13.309a3.746 3.746 0 0 1-3.755-3.748 3.76 3.76 0 0 1 3.755-3.763 3.76 3.76 0 0 1 3.755 3.763 3.746 3.746 0 0 1-3.755 3.748zm0 13.317a3.753 3.753 0 0 1-3.755-3.755 3.746 3.746 0 0 1 3.755-3.747 3.746 3.746 0 0 1 3.755 3.747 3.753 3.753 0 0 1-3.755 3.755zm0 13.31a3.76 3.76 0 0 1-3.755-3.763c0-2.068 1.68-3.74 3.755-3.74a3.744 3.744 0 0 1 3.755 3.74 3.76 3.76 0 0 1-3.755 3.763zm0 13.31a3.76 3.76 0 0 1-3.755-3.764 3.74 3.74 0 0 1 3.755-3.74 3.74 3.74 0 0 1 3.755 3.74 3.76 3.76 0 0 1-3.755 3.763zm0 13.301a3.74 3.74 0 0 1-3.755-3.74 3.76 3.76 0 0 1 3.755-3.762 3.76 3.76 0 0 1 3.755 3.763 3.74 3.74 0 0 1-3.755 3.739zm0 13.31a3.746 3.746 0 0 1-3.755-3.748 3.758 3.758 0 0 1 3.755-3.755 3.758 3.758 0 0 1 3.755 3.755 3.746 3.746 0 0 1-3.755 3.748zm0 13.31a3.746 3.746 0 0 1-3.755-3.748 3.753 3.753 0 0 1 3.755-3.755 3.753 3.753 0 0 1 3.755 3.755 3.746 3.746 0 0 1-3.755 3.747zM204.103 61.178c-2.068 0-3.747-1.688-3.747-3.763a3.744 3.744 0 0 1 3.747-3.748 3.746 3.746 0 0 1 3.755 3.748 3.76 3.76 0 0 1-3.755 3.763zm0 13.301a3.756 3.756 0 0 1-3.747-3.755 3.744 3.744 0 0 1 3.747-3.747 3.746 3.746 0 0 1 3.755 3.747 3.758 3.758 0 0 1-3.755 3.755zm0 13.31c-2.068 0-3.747-1.688-3.747-3.763 0-2.068 1.68-3.74 3.747-3.74a3.744 3.744 0 0 1 3.755 3.74 3.76 3.76 0 0 1-3.755 3.763zm0 13.31a3.744 3.744 0 0 1-3.747-3.748c0-2.075 1.68-3.763 3.747-3.763a3.76 3.76 0 0 1 3.755 3.763 3.746 3.746 0 0 1-3.755 3.748zm0 13.301a3.743 3.743 0 0 1-3.747-3.74c0-2.075 1.68-3.762 3.747-3.762a3.76 3.76 0 0 1 3.755 3.763c0 2.068-1.68 3.74-3.755 3.74zm0 13.31a3.744 3.744 0 0 1-3.747-3.748 3.756 3.756 0 0 1 3.747-3.755 3.758 3.758 0 0 1 3.755 3.755 3.746 3.746 0 0 1-3.755 3.748zm0 13.325c-2.068 0-3.747-1.687-3.747-3.763a3.744 3.744 0 0 1 3.747-3.747 3.746 3.746 0 0 1 3.755 3.747 3.76 3.76 0 0 1-3.755 3.763zm0 13.302a3.756 3.756 0 0 1-3.747-3.755 3.744 3.744 0 0 1 3.747-3.748 3.746 3.746 0 0 1 3.755 3.748 3.758 3.758 0 0 1-3.755 3.755zm0 13.31c-2.068 0-3.747-1.688-3.747-3.764 0-2.067 1.68-3.74 3.747-3.74a3.744 3.744 0 0 1 3.755 3.74 3.76 3.76 0 0 1-3.755 3.763zm0 13.309a3.744 3.744 0 0 1-3.747-3.747c0-2.076 1.68-3.763 3.747-3.763a3.76 3.76 0 0 1 3.755 3.763 3.746 3.746 0 0 1-3.755 3.747zm0 13.302a3.743 3.743 0 0 1-3.747-3.74c0-2.075 1.68-3.763 3.747-3.763a3.76 3.76 0 0 1 3.755 3.763c0 2.068-1.68 3.74-3.755 3.74zm0 13.31a3.744 3.744 0 0 1-3.747-3.748 3.756 3.756 0 0 1 3.747-3.755 3.758 3.758 0 0 1 3.755 3.755 3.746 3.746 0 0 1-3.755 3.747zm0 13.309a3.744 3.744 0 0 1-3.747-3.748c0-2.075 1.68-3.763 3.747-3.763a3.76 3.76 0 0 1 3.755 3.763 3.746 3.746 0 0 1-3.755 3.748zm0 13.317a3.751 3.751 0 0 1-3.747-3.755 3.744 3.744 0 0 1 3.747-3.747 3.746 3.746 0 0 1 3.755 3.747 3.753 3.753 0 0 1-3.755 3.755zm0 13.31c-2.068 0-3.747-1.688-3.747-3.763 0-2.068 1.68-3.74 3.747-3.74a3.744 3.744 0 0 1 3.755 3.74 3.76 3.76 0 0 1-3.755 3.763zm0 13.31c-2.068 0-3.747-1.688-3.747-3.764 0-2.075 1.68-3.74 3.747-3.74a3.74 3.74 0 0 1 3.755 3.74 3.76 3.76 0 0 1-3.755 3.763zm0 13.301a3.738 3.738 0 0 1-3.747-3.74c0-2.075 1.68-3.762 3.747-3.762a3.76 3.76 0 0 1 3.755 3.763 3.74 3.74 0 0 1-3.755 3.739zm0 13.31a3.744 3.744 0 0 1-3.747-3.748 3.756 3.756 0 0 1 3.747-3.755 3.758 3.758 0 0 1 3.755 3.755 3.746 3.746 0 0 1-3.755 3.748zm-13.3-226.247a3.76 3.76 0 0 1-3.755-3.763 3.746 3.746 0 0 1 3.755-3.748 3.744 3.744 0 0 1 3.746 3.748c0 2.075-1.679 3.763-3.746 3.763zm0-13.208a3.76 3.76 0 0 1-3.755-3.763 3.746 3.746 0 0 1 3.755-3.747 3.744 3.744 0 0 1 3.746 3.747c0 2.076-1.679 3.763-3.746 3.763zm0 26.51a3.758 3.758 0 0 1-3.755-3.756 3.746 3.746 0 0 1 3.755-3.747 3.744 3.744 0 0 1 3.746 3.747 3.756 3.756 0 0 1-3.746 3.755zm0 13.309a3.76 3.76 0 0 1-3.755-3.763c0-2.068 1.679-3.74 3.755-3.74a3.743 3.743 0 0 1 3.746 3.74c0 2.075-1.679 3.763-3.746 3.763zm0 13.31a3.746 3.746 0 0 1-3.755-3.748 3.76 3.76 0 0 1 3.755-3.763c2.067 0 3.746 1.688 3.746 3.763a3.744 3.744 0 0 1-3.746 3.748zm0 13.301a3.744 3.744 0 0 1-3.755-3.74 3.76 3.76 0 0 1 3.755-3.762c2.067 0 3.746 1.687 3.746 3.763 0 2.068-1.679 3.74-3.746 3.74zm0 13.31a3.746 3.746 0 0 1-3.755-3.748 3.758 3.758 0 0 1 3.755-3.755 3.756 3.756 0 0 1 3.746 3.755 3.744 3.744 0 0 1-3.746 3.748zm0 13.325a3.76 3.76 0 0 1-3.755-3.763 3.746 3.746 0 0 1 3.755-3.747 3.744 3.744 0 0 1 3.746 3.747c0 2.076-1.679 3.763-3.746 3.763zm0 13.302a3.758 3.758 0 0 1-3.755-3.755 3.746 3.746 0 0 1 3.755-3.748 3.744 3.744 0 0 1 3.746 3.748 3.756 3.756 0 0 1-3.746 3.755zm0 13.31a3.76 3.76 0 0 1-3.755-3.764c0-2.067 1.679-3.74 3.755-3.74a3.743 3.743 0 0 1 3.746 3.74c0 2.076-1.679 3.763-3.746 3.763zm0 13.309a3.746 3.746 0 0 1-3.755-3.747 3.76 3.76 0 0 1 3.755-3.763c2.067 0 3.746 1.687 3.746 3.763a3.744 3.744 0 0 1-3.746 3.747zm0 13.302a3.744 3.744 0 0 1-3.755-3.74 3.76 3.76 0 0 1 3.755-3.763c2.067 0 3.746 1.688 3.746 3.763 0 2.068-1.679 3.74-3.746 3.74zm0 13.31a3.746 3.746 0 0 1-3.755-3.748 3.758 3.758 0 0 1 3.755-3.755 3.756 3.756 0 0 1 3.746 3.755 3.744 3.744 0 0 1-3.746 3.747zm0 13.309a3.746 3.746 0 0 1-3.755-3.748 3.76 3.76 0 0 1 3.755-3.763c2.067 0 3.746 1.688 3.746 3.763a3.744 3.744 0 0 1-3.746 3.748zm0 13.317a3.753 3.753 0 0 1-3.755-3.755 3.746 3.746 0 0 1 3.755-3.747 3.744 3.744 0 0 1 3.746 3.747 3.751 3.751 0 0 1-3.746 3.755zm0 13.31a3.76 3.76 0 0 1-3.755-3.763c0-2.068 1.679-3.74 3.755-3.74a3.743 3.743 0 0 1 3.746 3.74c0 2.075-1.679 3.763-3.746 3.763zm0 13.31a3.76 3.76 0 0 1-3.755-3.764 3.74 3.74 0 0 1 3.755-3.74 3.738 3.738 0 0 1 3.746 3.74c0 2.076-1.679 3.763-3.746 3.763zm-13.208 0a3.76 3.76 0 0 1-3.755-3.764 3.74 3.74 0 0 1 3.755-3.74 3.738 3.738 0 0 1 3.747 3.74c0 2.076-1.68 3.763-3.747 3.763zm13.208 13.301a3.74 3.74 0 0 1-3.755-3.74 3.76 3.76 0 0 1 3.755-3.762c2.067 0 3.746 1.687 3.746 3.763 0 2.075-1.679 3.739-3.746 3.739zm0 13.31a3.746 3.746 0 0 1-3.755-3.748 3.758 3.758 0 0 1 3.755-3.755 3.756 3.756 0 0 1 3.746 3.755 3.744 3.744 0 0 1-3.746 3.748zM177.494 7.933a3.746 3.746 0 0 1-3.755-3.748A3.753 3.753 0 0 1 177.494.43a3.753 3.753 0 0 1 3.755 3.755 3.746 3.746 0 0 1-3.755 3.748zm0 13.31a3.746 3.746 0 0 1-3.755-3.748 3.76 3.76 0 0 1 3.755-3.763 3.76 3.76 0 0 1 3.755 3.763 3.746 3.746 0 0 1-3.755 3.747zm0 13.3a3.744 3.744 0 0 1-3.755-3.739 3.76 3.76 0 0 1 3.755-3.763 3.76 3.76 0 0 1 3.755 3.763c0 2.068-1.68 3.74-3.755 3.74zm0 13.326a3.76 3.76 0 0 1-3.755-3.763c0-2.068 1.68-3.74 3.755-3.74a3.744 3.744 0 0 1 3.755 3.74 3.76 3.76 0 0 1-3.755 3.763zm0 13.31a3.76 3.76 0 0 1-3.755-3.763 3.746 3.746 0 0 1 3.755-3.748 3.746 3.746 0 0 1 3.755 3.748 3.76 3.76 0 0 1-3.755 3.763zm0 13.301a3.758 3.758 0 0 1-3.755-3.755 3.746 3.746 0 0 1 3.755-3.747 3.746 3.746 0 0 1 3.755 3.747 3.758 3.758 0 0 1-3.755 3.755zm0 13.31a3.76 3.76 0 0 1-3.755-3.763c0-2.068 1.68-3.74 3.755-3.74a3.744 3.744 0 0 1 3.755 3.74 3.76 3.76 0 0 1-3.755 3.763zm0 13.31a3.746 3.746 0 0 1-3.755-3.748 3.76 3.76 0 0 1 3.755-3.763 3.76 3.76 0 0 1 3.755 3.763 3.746 3.746 0 0 1-3.755 3.748zm0 13.301a3.744 3.744 0 0 1-3.755-3.74 3.76 3.76 0 0 1 3.755-3.762 3.76 3.76 0 0 1 3.755 3.763c0 2.068-1.68 3.74-3.755 3.74zm0 13.31a3.746 3.746 0 0 1-3.755-3.748 3.758 3.758 0 0 1 3.755-3.755 3.758 3.758 0 0 1 3.755 3.755 3.746 3.746 0 0 1-3.755 3.748zm0 13.325a3.76 3.76 0 0 1-3.755-3.763 3.746 3.746 0 0 1 3.755-3.747 3.746 3.746 0 0 1 3.755 3.747 3.76 3.76 0 0 1-3.755 3.763zm0 13.302a3.758 3.758 0 0 1-3.755-3.755 3.746 3.746 0 0 1 3.755-3.748 3.746 3.746 0 0 1 3.755 3.748 3.758 3.758 0 0 1-3.755 3.755zm0 13.31a3.76 3.76 0 0 1-3.755-3.764c0-2.067 1.68-3.74 3.755-3.74a3.744 3.744 0 0 1 3.755 3.74 3.76 3.76 0 0 1-3.755 3.763zm0 13.309a3.746 3.746 0 0 1-3.755-3.747 3.76 3.76 0 0 1 3.755-3.763 3.76 3.76 0 0 1 3.755 3.763 3.746 3.746 0 0 1-3.755 3.747zm0 13.302a3.744 3.744 0 0 1-3.755-3.74 3.76 3.76 0 0 1 3.755-3.763 3.76 3.76 0 0 1 3.755 3.763c0 2.068-1.68 3.74-3.755 3.74zm0 13.31a3.746 3.746 0 0 1-3.755-3.748 3.758 3.758 0 0 1 3.755-3.755 3.758 3.758 0 0 1 3.755 3.755 3.746 3.746 0 0 1-3.755 3.747zm0 13.309a3.746 3.746 0 0 1-3.755-3.748 3.76 3.76 0 0 1 3.755-3.763 3.76 3.76 0 0 1 3.755 3.763 3.746 3.746 0 0 1-3.755 3.748zm0 13.317a3.753 3.753 0 0 1-3.755-3.755 3.746 3.746 0 0 1 3.755-3.747 3.746 3.746 0 0 1 3.755 3.747 3.753 3.753 0 0 1-3.755 3.755zm0 13.31a3.76 3.76 0 0 1-3.755-3.763c0-2.068 1.68-3.74 3.755-3.74a3.744 3.744 0 0 1 3.755 3.74 3.76 3.76 0 0 1-3.755 3.763zM164.178 21.242a3.744 3.744 0 0 1-3.747-3.747c0-2.076 1.68-3.763 3.747-3.763a3.76 3.76 0 0 1 3.755 3.763 3.746 3.746 0 0 1-3.755 3.747zm0-13.208a3.744 3.744 0 0 1-3.747-3.747c0-2.076 1.68-3.763 3.747-3.763a3.76 3.76 0 0 1 3.755 3.763 3.746 3.746 0 0 1-3.755 3.747zm0 26.51a3.743 3.743 0 0 1-3.747-3.74c0-2.075 1.68-3.763 3.747-3.763a3.76 3.76 0 0 1 3.755 3.763c0 2.068-1.68 3.74-3.755 3.74zm0 13.325c-2.068 0-3.747-1.687-3.747-3.763 0-2.068 1.68-3.74 3.747-3.74a3.744 3.744 0 0 1 3.755 3.74 3.76 3.76 0 0 1-3.755 3.763zm0 13.31c-2.068 0-3.747-1.688-3.747-3.763a3.744 3.744 0 0 1 3.747-3.748 3.746 3.746 0 0 1 3.755 3.748 3.76 3.76 0 0 1-3.755 3.763zm0 13.301a3.756 3.756 0 0 1-3.747-3.755 3.744 3.744 0 0 1 3.747-3.747 3.746 3.746 0 0 1 3.755 3.747 3.758 3.758 0 0 1-3.755 3.755zm0 13.31c-2.068 0-3.747-1.688-3.747-3.763 0-2.068 1.68-3.74 3.747-3.74a3.744 3.744 0 0 1 3.755 3.74 3.76 3.76 0 0 1-3.755 3.763zm0 13.31a3.744 3.744 0 0 1-3.747-3.748c0-2.075 1.68-3.763 3.747-3.763a3.76 3.76 0 0 1 3.755 3.763 3.746 3.746 0 0 1-3.755 3.748zm0 13.301a3.743 3.743 0 0 1-3.747-3.74c0-2.075 1.68-3.762 3.747-3.762a3.76 3.76 0 0 1 3.755 3.763c0 2.068-1.68 3.74-3.755 3.74zm0 13.31a3.744 3.744 0 0 1-3.747-3.748 3.756 3.756 0 0 1 3.747-3.755 3.758 3.758 0 0 1 3.755 3.755 3.746 3.746 0 0 1-3.755 3.748zm0 13.325c-2.068 0-3.747-1.687-3.747-3.763a3.744 3.744 0 0 1 3.747-3.747 3.746 3.746 0 0 1 3.755 3.747 3.76 3.76 0 0 1-3.755 3.763zm0 13.302a3.756 3.756 0 0 1-3.747-3.755 3.744 3.744 0 0 1 3.747-3.748 3.746 3.746 0 0 1 3.755 3.748 3.758 3.758 0 0 1-3.755 3.755zm0 13.31c-2.068 0-3.747-1.688-3.747-3.764 0-2.067 1.68-3.74 3.747-3.74a3.744 3.744 0 0 1 3.755 3.74 3.76 3.76 0 0 1-3.755 3.763zm0 13.309a3.744 3.744 0 0 1-3.747-3.747c0-2.076 1.68-3.763 3.747-3.763a3.76 3.76 0 0 1 3.755 3.763 3.746 3.746 0 0 1-3.755 3.747zm0 13.302a3.743 3.743 0 0 1-3.747-3.74c0-2.075 1.68-3.763 3.747-3.763a3.76 3.76 0 0 1 3.755 3.763c0 2.068-1.68 3.74-3.755 3.74zm0 13.31a3.744 3.744 0 0 1-3.747-3.748 3.756 3.756 0 0 1 3.747-3.755 3.758 3.758 0 0 1 3.755 3.755 3.746 3.746 0 0 1-3.755 3.747zm0 13.309a3.744 3.744 0 0 1-3.747-3.748c0-2.075 1.68-3.763 3.747-3.763a3.76 3.76 0 0 1 3.755 3.763 3.746 3.746 0 0 1-3.755 3.748zm0 13.317a3.751 3.751 0 0 1-3.747-3.755 3.744 3.744 0 0 1 3.747-3.747 3.746 3.746 0 0 1 3.755 3.747 3.753 3.753 0 0 1-3.755 3.755zm0 13.31c-2.068 0-3.747-1.688-3.747-3.763 0-2.068 1.68-3.74 3.747-3.74a3.744 3.744 0 0 1 3.755 3.74 3.76 3.76 0 0 1-3.755 3.763zm-13.3-226.263a3.746 3.746 0 0 1-3.755-3.747 3.76 3.76 0 0 1 3.755-3.763c2.067 0 3.746 1.687 3.746 3.763a3.744 3.744 0 0 1-3.746 3.747zm0 13.302a3.744 3.744 0 0 1-3.755-3.74 3.76 3.76 0 0 1 3.755-3.763c2.067 0 3.746 1.688 3.746 3.763 0 2.068-1.679 3.74-3.746 3.74zm-13.208 0a3.744 3.744 0 0 1-3.755-3.74 3.76 3.76 0 0 1 3.755-3.763c2.067 0 3.747 1.688 3.747 3.763 0 2.068-1.68 3.74-3.747 3.74zm13.208 13.325a3.76 3.76 0 0 1-3.755-3.763c0-2.068 1.68-3.74 3.755-3.74a3.743 3.743 0 0 1 3.746 3.74c0 2.076-1.679 3.763-3.746 3.763zm0 13.31a3.76 3.76 0 0 1-3.755-3.763 3.746 3.746 0 0 1 3.755-3.748 3.744 3.744 0 0 1 3.746 3.748c0 2.075-1.679 3.763-3.746 3.763zm0 13.301a3.758 3.758 0 0 1-3.755-3.755 3.746 3.746 0 0 1 3.755-3.747 3.744 3.744 0 0 1 3.746 3.747 3.756 3.756 0 0 1-3.746 3.755zm0 13.31a3.76 3.76 0 0 1-3.755-3.763c0-2.068 1.68-3.74 3.755-3.74a3.743 3.743 0 0 1 3.746 3.74c0 2.075-1.679 3.763-3.746 3.763zm0 13.31a3.746 3.746 0 0 1-3.755-3.748 3.76 3.76 0 0 1 3.755-3.763c2.067 0 3.746 1.688 3.746 3.763a3.744 3.744 0 0 1-3.746 3.748zm0 13.301a3.744 3.744 0 0 1-3.755-3.74 3.76 3.76 0 0 1 3.755-3.762c2.067 0 3.746 1.687 3.746 3.763 0 2.068-1.679 3.74-3.746 3.74zm0 13.31a3.746 3.746 0 0 1-3.755-3.748 3.758 3.758 0 0 1 3.755-3.755 3.756 3.756 0 0 1 3.746 3.755 3.744 3.744 0 0 1-3.746 3.748zm0 13.325a3.76 3.76 0 0 1-3.755-3.763 3.746 3.746 0 0 1 3.755-3.747 3.744 3.744 0 0 1 3.746 3.747c0 2.076-1.679 3.763-3.746 3.763zm0 13.302a3.758 3.758 0 0 1-3.755-3.755 3.746 3.746 0 0 1 3.755-3.748 3.744 3.744 0 0 1 3.746 3.748 3.756 3.756 0 0 1-3.746 3.755zm0 13.31a3.76 3.76 0 0 1-3.755-3.764c0-2.067 1.68-3.74 3.755-3.74a3.743 3.743 0 0 1 3.746 3.74c0 2.076-1.679 3.763-3.746 3.763zm0 13.309a3.746 3.746 0 0 1-3.755-3.747 3.76 3.76 0 0 1 3.755-3.763c2.067 0 3.746 1.687 3.746 3.763a3.744 3.744 0 0 1-3.746 3.747zm0 13.302a3.744 3.744 0 0 1-3.755-3.74 3.76 3.76 0 0 1 3.755-3.763c2.067 0 3.746 1.688 3.746 3.763 0 2.068-1.679 3.74-3.746 3.74zm0 13.31a3.746 3.746 0 0 1-3.755-3.748 3.758 3.758 0 0 1 3.755-3.755 3.756 3.756 0 0 1 3.746 3.755 3.744 3.744 0 0 1-3.746 3.747zm0 13.309a3.746 3.746 0 0 1-3.755-3.748 3.76 3.76 0 0 1 3.755-3.763c2.067 0 3.746 1.688 3.746 3.763a3.744 3.744 0 0 1-3.746 3.748zm0 13.317a3.753 3.753 0 0 1-3.755-3.755 3.746 3.746 0 0 1 3.755-3.747 3.744 3.744 0 0 1 3.746 3.747 3.751 3.751 0 0 1-3.746 3.755zm0 13.31a3.76 3.76 0 0 1-3.755-3.763c0-2.068 1.68-3.74 3.755-3.74a3.743 3.743 0 0 1 3.746 3.74c0 2.075-1.679 3.763-3.746 3.763zM137.569 21.242a3.746 3.746 0 0 1-3.755-3.747 3.76 3.76 0 0 1 3.755-3.763 3.76 3.76 0 0 1 3.755 3.763 3.746 3.746 0 0 1-3.755 3.747zm-13.208 0a3.746 3.746 0 0 1-3.754-3.747 3.76 3.76 0 0 1 3.754-3.763 3.76 3.76 0 0 1 3.755 3.763 3.746 3.746 0 0 1-3.755 3.747zM137.57 47.87a3.76 3.76 0 0 1-3.755-3.763c0-2.068 1.68-3.74 3.755-3.74a3.744 3.744 0 0 1 3.755 3.74 3.76 3.76 0 0 1-3.755 3.763zm0 13.31a3.76 3.76 0 0 1-3.755-3.763 3.746 3.746 0 0 1 3.755-3.748 3.746 3.746 0 0 1 3.755 3.748 3.76 3.76 0 0 1-3.755 3.763zm0 13.301a3.758 3.758 0 0 1-3.755-3.755 3.746 3.746 0 0 1 3.755-3.747 3.746 3.746 0 0 1 3.755 3.747 3.758 3.758 0 0 1-3.755 3.755zm0 13.31a3.76 3.76 0 0 1-3.755-3.763c0-2.068 1.68-3.74 3.755-3.74a3.744 3.744 0 0 1 3.755 3.74 3.76 3.76 0 0 1-3.755 3.763zm0 13.31a3.746 3.746 0 0 1-3.755-3.748 3.76 3.76 0 0 1 3.755-3.763 3.76 3.76 0 0 1 3.755 3.763 3.746 3.746 0 0 1-3.755 3.748zm0 13.301a3.744 3.744 0 0 1-3.755-3.74 3.76 3.76 0 0 1 3.755-3.762 3.76 3.76 0 0 1 3.755 3.763c0 2.068-1.68 3.74-3.755 3.74zm0 13.31a3.746 3.746 0 0 1-3.755-3.748 3.758 3.758 0 0 1 3.755-3.755 3.758 3.758 0 0 1 3.755 3.755 3.746 3.746 0 0 1-3.755 3.748zm0 13.325a3.76 3.76 0 0 1-3.755-3.763 3.746 3.746 0 0 1 3.755-3.747 3.746 3.746 0 0 1 3.755 3.747 3.76 3.76 0 0 1-3.755 3.763zm0 13.302a3.758 3.758 0 0 1-3.755-3.755 3.746 3.746 0 0 1 3.755-3.748 3.746 3.746 0 0 1 3.755 3.748 3.758 3.758 0 0 1-3.755 3.755zm0 13.31a3.76 3.76 0 0 1-3.755-3.764c0-2.067 1.68-3.74 3.755-3.74a3.744 3.744 0 0 1 3.755 3.74 3.76 3.76 0 0 1-3.755 3.763zm0 13.309a3.746 3.746 0 0 1-3.755-3.747 3.76 3.76 0 0 1 3.755-3.763 3.76 3.76 0 0 1 3.755 3.763 3.746 3.746 0 0 1-3.755 3.747zm0 13.302a3.744 3.744 0 0 1-3.755-3.74 3.76 3.76 0 0 1 3.755-3.763 3.76 3.76 0 0 1 3.755 3.763c0 2.068-1.68 3.74-3.755 3.74zm0 13.31a3.746 3.746 0 0 1-3.755-3.748 3.758 3.758 0 0 1 3.755-3.755 3.758 3.758 0 0 1 3.755 3.755 3.746 3.746 0 0 1-3.755 3.747zm0 13.309a3.746 3.746 0 0 1-3.755-3.748 3.76 3.76 0 0 1 3.755-3.763 3.76 3.76 0 0 1 3.755 3.763 3.746 3.746 0 0 1-3.755 3.748zm0 13.317a3.753 3.753 0 0 1-3.755-3.755 3.746 3.746 0 0 1 3.755-3.747 3.746 3.746 0 0 1 3.755 3.747 3.753 3.753 0 0 1-3.755 3.755zM124.253 61.18c-2.068 0-3.747-1.688-3.747-3.763a3.744 3.744 0 0 1 3.747-3.748 3.746 3.746 0 0 1 3.755 3.748 3.76 3.76 0 0 1-3.755 3.763zm0-13.208c-2.068 0-3.747-1.687-3.747-3.763a3.744 3.744 0 0 1 3.747-3.747 3.746 3.746 0 0 1 3.755 3.747 3.76 3.76 0 0 1-3.755 3.763zm0 26.51a3.756 3.756 0 0 1-3.747-3.756 3.744 3.744 0 0 1 3.747-3.747 3.746 3.746 0 0 1 3.755 3.747 3.758 3.758 0 0 1-3.755 3.755zm0 13.309c-2.068 0-3.747-1.688-3.747-3.763 0-2.068 1.68-3.74 3.747-3.74a3.744 3.744 0 0 1 3.755 3.74 3.76 3.76 0 0 1-3.755 3.763zm0 13.31a3.744 3.744 0 0 1-3.747-3.748c0-2.075 1.68-3.763 3.747-3.763a3.76 3.76 0 0 1 3.755 3.763 3.746 3.746 0 0 1-3.755 3.748zm0 13.301a3.743 3.743 0 0 1-3.747-3.74c0-2.075 1.68-3.762 3.747-3.762a3.76 3.76 0 0 1 3.755 3.763c0 2.068-1.68 3.74-3.755 3.74zm0 13.31a3.744 3.744 0 0 1-3.747-3.748 3.756 3.756 0 0 1 3.747-3.755 3.758 3.758 0 0 1 3.755 3.755 3.746 3.746 0 0 1-3.755 3.748zm0 13.325c-2.068 0-3.747-1.687-3.747-3.763a3.744 3.744 0 0 1 3.747-3.747 3.746 3.746 0 0 1 3.755 3.747 3.76 3.76 0 0 1-3.755 3.763zm0 13.302a3.756 3.756 0 0 1-3.747-3.755 3.744 3.744 0 0 1 3.747-3.748 3.746 3.746 0 0 1 3.755 3.748 3.758 3.758 0 0 1-3.755 3.755zm0 13.31c-2.068 0-3.747-1.688-3.747-3.764 0-2.067 1.68-3.74 3.747-3.74a3.744 3.744 0 0 1 3.755 3.74 3.76 3.76 0 0 1-3.755 3.763zm0 13.309a3.744 3.744 0 0 1-3.747-3.747c0-2.076 1.68-3.763 3.747-3.763a3.76 3.76 0 0 1 3.755 3.763 3.746 3.746 0 0 1-3.755 3.747zm0 13.302a3.743 3.743 0 0 1-3.747-3.74c0-2.075 1.68-3.763 3.747-3.763a3.76 3.76 0 0 1 3.755 3.763c0 2.068-1.68 3.74-3.755 3.74zm0 13.31a3.744 3.744 0 0 1-3.747-3.748 3.756 3.756 0 0 1 3.747-3.755 3.758 3.758 0 0 1 3.755 3.755 3.746 3.746 0 0 1-3.755 3.747zm0 13.309a3.744 3.744 0 0 1-3.747-3.748c0-2.075 1.68-3.763 3.747-3.763a3.76 3.76 0 0 1 3.755 3.763 3.746 3.746 0 0 1-3.755 3.748zm-13.208-13.31a3.744 3.744 0 0 1-3.747-3.747 3.756 3.756 0 0 1 3.747-3.755 3.758 3.758 0 0 1 3.755 3.755 3.746 3.746 0 0 1-3.755 3.747zm0 13.31a3.744 3.744 0 0 1-3.747-3.748c0-2.075 1.68-3.763 3.747-3.763a3.76 3.76 0 0 1 3.755 3.763 3.746 3.746 0 0 1-3.755 3.748zm13.208 13.317a3.751 3.751 0 0 1-3.747-3.755 3.744 3.744 0 0 1 3.747-3.747 3.746 3.746 0 0 1 3.755 3.747 3.753 3.753 0 0 1-3.755 3.755zm-13.3-159.715a3.758 3.758 0 0 1-3.755-3.755 3.746 3.746 0 0 1 3.755-3.747 3.744 3.744 0 0 1 3.746 3.747 3.756 3.756 0 0 1-3.746 3.755zm0 13.31a3.76 3.76 0 0 1-3.755-3.763c0-2.068 1.68-3.74 3.755-3.74a3.743 3.743 0 0 1 3.746 3.74c0 2.075-1.679 3.763-3.746 3.763zm0 13.31a3.746 3.746 0 0 1-3.755-3.748 3.76 3.76 0 0 1 3.755-3.763c2.067 0 3.746 1.688 3.746 3.763a3.744 3.744 0 0 1-3.746 3.748zm0 13.301a3.744 3.744 0 0 1-3.755-3.74 3.76 3.76 0 0 1 3.755-3.762c2.067 0 3.746 1.687 3.746 3.763 0 2.068-1.679 3.74-3.746 3.74zm0 13.31a3.746 3.746 0 0 1-3.755-3.748 3.758 3.758 0 0 1 3.755-3.755 3.756 3.756 0 0 1 3.746 3.755 3.744 3.744 0 0 1-3.746 3.748zm0 13.325a3.76 3.76 0 0 1-3.755-3.763 3.746 3.746 0 0 1 3.755-3.747 3.744 3.744 0 0 1 3.746 3.747c0 2.076-1.679 3.763-3.746 3.763zm0 13.302a3.758 3.758 0 0 1-3.755-3.755 3.746 3.746 0 0 1 3.755-3.748 3.744 3.744 0 0 1 3.746 3.748 3.756 3.756 0 0 1-3.746 3.755zm0 13.31a3.76 3.76 0 0 1-3.755-3.764c0-2.067 1.68-3.74 3.755-3.74a3.743 3.743 0 0 1 3.746 3.74c0 2.076-1.679 3.763-3.746 3.763zm0 13.309a3.746 3.746 0 0 1-3.755-3.747 3.76 3.76 0 0 1 3.755-3.763c2.067 0 3.746 1.687 3.746 3.763a3.744 3.744 0 0 1-3.746 3.747zm0 13.302a3.744 3.744 0 0 1-3.755-3.74 3.76 3.76 0 0 1 3.755-3.763c2.067 0 3.746 1.688 3.746 3.763 0 2.068-1.679 3.74-3.746 3.74zM97.644 74.48a3.758 3.758 0 0 1-3.755-3.755 3.746 3.746 0 0 1 3.755-3.747 3.746 3.746 0 0 1 3.755 3.747 3.758 3.758 0 0 1-3.755 3.755zm13.309-13.207a3.758 3.758 0 0 1-3.755-3.756 3.746 3.746 0 0 1 3.755-3.747 3.744 3.744 0 0 1 3.746 3.747 3.756 3.756 0 0 1-3.746 3.756zm-13.309 0a3.758 3.758 0 0 1-3.755-3.756 3.746 3.746 0 0 1 3.755-3.747 3.746 3.746 0 0 1 3.755 3.747 3.758 3.758 0 0 1-3.755 3.756zm0 26.517a3.76 3.76 0 0 1-3.755-3.763c0-2.068 1.68-3.74 3.755-3.74a3.744 3.744 0 0 1 3.755 3.74 3.76 3.76 0 0 1-3.755 3.763zm0 13.31a3.746 3.746 0 0 1-3.755-3.748 3.76 3.76 0 0 1 3.755-3.763 3.76 3.76 0 0 1 3.755 3.763 3.746 3.746 0 0 1-3.755 3.748zm0 13.301a3.744 3.744 0 0 1-3.755-3.74 3.76 3.76 0 0 1 3.755-3.762 3.76 3.76 0 0 1 3.755 3.763c0 2.068-1.68 3.74-3.755 3.74zm0 13.31a3.746 3.746 0 0 1-3.755-3.748 3.758 3.758 0 0 1 3.755-3.755 3.758 3.758 0 0 1 3.755 3.755 3.746 3.746 0 0 1-3.755 3.748zm0 13.325a3.76 3.76 0 0 1-3.755-3.763 3.746 3.746 0 0 1 3.755-3.747 3.746 3.746 0 0 1 3.755 3.747 3.76 3.76 0 0 1-3.755 3.763zm0 13.302a3.758 3.758 0 0 1-3.755-3.755 3.746 3.746 0 0 1 3.755-3.748 3.746 3.746 0 0 1 3.755 3.748 3.758 3.758 0 0 1-3.755 3.755zm0 13.31a3.76 3.76 0 0 1-3.755-3.764c0-2.067 1.68-3.74 3.755-3.74a3.744 3.744 0 0 1 3.755 3.74 3.76 3.76 0 0 1-3.755 3.763zm0 13.309a3.746 3.746 0 0 1-3.755-3.747 3.76 3.76 0 0 1 3.755-3.763 3.76 3.76 0 0 1 3.755 3.763 3.746 3.746 0 0 1-3.755 3.747zm0 13.302a3.744 3.744 0 0 1-3.755-3.74 3.76 3.76 0 0 1 3.755-3.763 3.76 3.76 0 0 1 3.755 3.763c0 2.068-1.68 3.74-3.755 3.74zM84.328 61.179c-2.068 0-3.747-1.688-3.747-3.763a3.744 3.744 0 0 1 3.747-3.748 3.746 3.746 0 0 1 3.755 3.748 3.76 3.76 0 0 1-3.755 3.763zm0-13.208c-2.068 0-3.747-1.687-3.747-3.763a3.744 3.744 0 0 1 3.747-3.747 3.746 3.746 0 0 1 3.755 3.747 3.76 3.76 0 0 1-3.755 3.763zm0 26.51a3.756 3.756 0 0 1-3.747-3.756 3.744 3.744 0 0 1 3.747-3.747 3.746 3.746 0 0 1 3.755 3.747 3.758 3.758 0 0 1-3.755 3.755zm0 13.309c-2.068 0-3.747-1.688-3.747-3.763 0-2.068 1.68-3.74 3.747-3.74a3.744 3.744 0 0 1 3.755 3.74 3.76 3.76 0 0 1-3.755 3.763zm0 13.31a3.744 3.744 0 0 1-3.747-3.748c0-2.075 1.68-3.763 3.747-3.763a3.76 3.76 0 0 1 3.755 3.763 3.746 3.746 0 0 1-3.755 3.748zm0 13.301a3.743 3.743 0 0 1-3.747-3.74c0-2.075 1.68-3.762 3.747-3.762a3.76 3.76 0 0 1 3.755 3.763c0 2.068-1.68 3.74-3.755 3.74zm0 13.31a3.744 3.744 0 0 1-3.747-3.748 3.756 3.756 0 0 1 3.747-3.755 3.758 3.758 0 0 1 3.755 3.755 3.746 3.746 0 0 1-3.755 3.748zm0 13.325c-2.068 0-3.747-1.687-3.747-3.763a3.744 3.744 0 0 1 3.747-3.747 3.746 3.746 0 0 1 3.755 3.747 3.76 3.76 0 0 1-3.755 3.763zm0 13.302a3.756 3.756 0 0 1-3.747-3.755 3.744 3.744 0 0 1 3.747-3.748 3.746 3.746 0 0 1 3.755 3.748 3.758 3.758 0 0 1-3.755 3.755zm0 13.31c-2.068 0-3.747-1.688-3.747-3.764 0-2.067 1.68-3.74 3.747-3.74a3.744 3.744 0 0 1 3.755 3.74 3.76 3.76 0 0 1-3.755 3.763zm0 13.309a3.744 3.744 0 0 1-3.747-3.747c0-2.076 1.68-3.763 3.747-3.763a3.76 3.76 0 0 1 3.755 3.763 3.746 3.746 0 0 1-3.755 3.747zm0 13.302a3.743 3.743 0 0 1-3.747-3.74c0-2.075 1.68-3.763 3.747-3.763a3.76 3.76 0 0 1 3.755 3.763c0 2.068-1.68 3.74-3.755 3.74zm-13.3-133.08a3.76 3.76 0 0 1-3.755-3.763 3.746 3.746 0 0 1 3.755-3.748 3.744 3.744 0 0 1 3.747 3.748c0 2.075-1.68 3.763-3.747 3.763zm-13.208 0a3.76 3.76 0 0 1-3.755-3.763 3.746 3.746 0 0 1 3.755-3.748 3.744 3.744 0 0 1 3.747 3.748c0 2.075-1.68 3.763-3.747 3.763zM71.028 47.97a3.76 3.76 0 0 1-3.755-3.763 3.746 3.746 0 0 1 3.755-3.747 3.744 3.744 0 0 1 3.747 3.747c0 2.076-1.68 3.763-3.747 3.763zm-13.208 0a3.76 3.76 0 0 1-3.755-3.763 3.746 3.746 0 0 1 3.755-3.747 3.744 3.744 0 0 1 3.747 3.747c0 2.076-1.68 3.763-3.747 3.763zm13.208 26.51a3.758 3.758 0 0 1-3.755-3.756 3.746 3.746 0 0 1 3.755-3.747 3.744 3.744 0 0 1 3.747 3.747 3.756 3.756 0 0 1-3.747 3.755zm0 13.309a3.76 3.76 0 0 1-3.755-3.763c0-2.068 1.68-3.74 3.755-3.74a3.743 3.743 0 0 1 3.747 3.74c0 2.075-1.68 3.763-3.747 3.763zm0 13.31a3.746 3.746 0 0 1-3.755-3.748 3.76 3.76 0 0 1 3.755-3.763c2.067 0 3.747 1.688 3.747 3.763a3.744 3.744 0 0 1-3.747 3.748zM57.82 87.79a3.76 3.76 0 0 1-3.755-3.763c0-2.068 1.68-3.74 3.755-3.74a3.743 3.743 0 0 1 3.747 3.74c0 2.075-1.68 3.763-3.747 3.763zm0 13.31a3.746 3.746 0 0 1-3.755-3.748 3.76 3.76 0 0 1 3.755-3.763c2.067 0 3.747 1.688 3.747 3.763a3.744 3.744 0 0 1-3.747 3.748zM71.028 114.4a3.744 3.744 0 0 1-3.755-3.74 3.76 3.76 0 0 1 3.755-3.762c2.067 0 3.747 1.687 3.747 3.763 0 2.068-1.68 3.74-3.747 3.74zm0 13.31a3.746 3.746 0 0 1-3.755-3.748 3.758 3.758 0 0 1 3.755-3.755 3.756 3.756 0 0 1 3.747 3.755 3.744 3.744 0 0 1-3.747 3.748zm0 13.325a3.76 3.76 0 0 1-3.755-3.763 3.746 3.746 0 0 1 3.755-3.747 3.744 3.744 0 0 1 3.747 3.747c0 2.076-1.68 3.763-3.747 3.763zm0 13.302a3.758 3.758 0 0 1-3.755-3.755 3.746 3.746 0 0 1 3.755-3.748 3.744 3.744 0 0 1 3.747 3.748 3.756 3.756 0 0 1-3.747 3.755zm0 13.31a3.76 3.76 0 0 1-3.755-3.764c0-2.067 1.68-3.74 3.755-3.74a3.743 3.743 0 0 1 3.747 3.74c0 2.076-1.68 3.763-3.747 3.763zm0 13.309a3.746 3.746 0 0 1-3.755-3.747 3.76 3.76 0 0 1 3.755-3.763c2.067 0 3.747 1.687 3.747 3.763a3.744 3.744 0 0 1-3.747 3.747zm0 13.302a3.744 3.744 0 0 1-3.755-3.74 3.76 3.76 0 0 1 3.755-3.763c2.067 0 3.747 1.688 3.747 3.763 0 2.068-1.68 3.74-3.747 3.74zm0 13.31a3.746 3.746 0 0 1-3.755-3.748 3.758 3.758 0 0 1 3.755-3.755 3.756 3.756 0 0 1 3.747 3.755 3.744 3.744 0 0 1-3.747 3.747zm13.207 0a3.746 3.746 0 0 1-3.755-3.748 3.758 3.758 0 0 1 3.755-3.755 3.756 3.756 0 0 1 3.747 3.755 3.744 3.744 0 0 1-3.747 3.747zM57.72 74.48a3.758 3.758 0 0 1-3.755-3.755 3.746 3.746 0 0 1 3.755-3.747 3.74 3.74 0 0 1 3.747 3.747 3.751 3.751 0 0 1-3.747 3.755zm0 39.921a3.744 3.744 0 0 1-3.755-3.74 3.76 3.76 0 0 1 3.755-3.762 3.753 3.753 0 0 1 3.747 3.763 3.738 3.738 0 0 1-3.747 3.74zm0 13.31a3.746 3.746 0 0 1-3.755-3.748 3.758 3.758 0 0 1 3.755-3.755 3.751 3.751 0 0 1 3.747 3.755 3.74 3.74 0 0 1-3.747 3.748zm0 13.325a3.76 3.76 0 0 1-3.755-3.763 3.746 3.746 0 0 1 3.755-3.747 3.74 3.74 0 0 1 3.747 3.747 3.753 3.753 0 0 1-3.747 3.763zm0 13.302a3.758 3.758 0 0 1-3.755-3.755 3.746 3.746 0 0 1 3.755-3.748 3.74 3.74 0 0 1 3.747 3.748 3.751 3.751 0 0 1-3.747 3.755zm0 13.31a3.76 3.76 0 0 1-3.755-3.764c0-2.067 1.68-3.74 3.755-3.74a3.738 3.738 0 0 1 3.747 3.74 3.753 3.753 0 0 1-3.747 3.763zm0 13.309a3.746 3.746 0 0 1-3.755-3.747 3.76 3.76 0 0 1 3.755-3.763 3.753 3.753 0 0 1 3.747 3.763 3.74 3.74 0 0 1-3.747 3.747zm0 13.302a3.744 3.744 0 0 1-3.755-3.74 3.76 3.76 0 0 1 3.755-3.763 3.753 3.753 0 0 1 3.747 3.763 3.738 3.738 0 0 1-3.747 3.74zm0 13.31a3.746 3.746 0 0 1-3.755-3.748 3.758 3.758 0 0 1 3.755-3.755 3.751 3.751 0 0 1 3.747 3.755 3.74 3.74 0 0 1-3.747 3.747zm-13.308-66.533a3.753 3.753 0 0 1-3.747-3.763 3.74 3.74 0 0 1 3.747-3.747 3.746 3.746 0 0 1 3.755 3.747 3.76 3.76 0 0 1-3.755 3.763zm0 13.302a3.751 3.751 0 0 1-3.747-3.755 3.74 3.74 0 0 1 3.747-3.748 3.746 3.746 0 0 1 3.755 3.748 3.758 3.758 0 0 1-3.755 3.755zm0 13.31a3.753 3.753 0 0 1-3.747-3.764 3.738 3.738 0 0 1 3.747-3.74 3.744 3.744 0 0 1 3.755 3.74 3.76 3.76 0 0 1-3.755 3.763zm0 13.309a3.74 3.74 0 0 1-3.747-3.747 3.753 3.753 0 0 1 3.747-3.763 3.76 3.76 0 0 1 3.755 3.763 3.746 3.746 0 0 1-3.755 3.747zm0 13.302a3.738 3.738 0 0 1-3.747-3.74 3.753 3.753 0 0 1 3.747-3.763 3.76 3.76 0 0 1 3.755 3.763c0 2.068-1.68 3.74-3.755 3.74zm0 13.31a3.74 3.74 0 0 1-3.747-3.748 3.751 3.751 0 0 1 3.747-3.755 3.758 3.758 0 0 1 3.755 3.755 3.746 3.746 0 0 1-3.755 3.747zm26.617 13.207a3.746 3.746 0 0 1-3.755-3.747 3.758 3.758 0 0 1 3.755-3.756 3.756 3.756 0 0 1 3.747 3.756 3.744 3.744 0 0 1-3.747 3.747zm-13.309 0a3.746 3.746 0 0 1-3.755-3.747 3.758 3.758 0 0 1 3.755-3.756 3.751 3.751 0 0 1 3.747 3.756 3.74 3.74 0 0 1-3.747 3.747zm-13.308 0a3.74 3.74 0 0 1-3.747-3.747 3.751 3.751 0 0 1 3.747-3.756 3.758 3.758 0 0 1 3.755 3.756 3.746 3.746 0 0 1-3.755 3.747zm-13.308-79.74a3.76 3.76 0 0 1-3.755-3.763 3.746 3.746 0 0 1 3.755-3.747 3.744 3.744 0 0 1 3.747 3.747c0 2.076-1.68 3.763-3.747 3.763zm0 13.302a3.758 3.758 0 0 1-3.755-3.755 3.746 3.746 0 0 1 3.755-3.748 3.744 3.744 0 0 1 3.747 3.748 3.756 3.756 0 0 1-3.747 3.755zm0 13.31a3.76 3.76 0 0 1-3.755-3.764c0-2.067 1.68-3.74 3.755-3.74a3.743 3.743 0 0 1 3.747 3.74c0 2.076-1.68 3.763-3.747 3.763zm0 13.309a3.746 3.746 0 0 1-3.755-3.747 3.76 3.76 0 0 1 3.755-3.763c2.067 0 3.747 1.687 3.747 3.763a3.744 3.744 0 0 1-3.747 3.747zm0 13.302a3.744 3.744 0 0 1-3.755-3.74 3.76 3.76 0 0 1 3.755-3.763c2.067 0 3.747 1.688 3.747 3.763 0 2.068-1.68 3.74-3.747 3.74zm-13.309-53.223a3.76 3.76 0 0 1-3.755-3.763 3.746 3.746 0 0 1 3.755-3.747 3.74 3.74 0 0 1 3.747 3.747 3.753 3.753 0 0 1-3.747 3.763zm0 13.302a3.758 3.758 0 0 1-3.755-3.755 3.746 3.746 0 0 1 3.755-3.748 3.74 3.74 0 0 1 3.747 3.748 3.751 3.751 0 0 1-3.747 3.755zm-13.207 0a3.758 3.758 0 0 1-3.755-3.755 3.746 3.746 0 0 1 3.755-3.748 3.74 3.74 0 0 1 3.746 3.748 3.751 3.751 0 0 1-3.746 3.755zm13.207 13.31a3.76 3.76 0 0 1-3.755-3.764c0-2.067 1.68-3.74 3.755-3.74a3.738 3.738 0 0 1 3.747 3.74 3.753 3.753 0 0 1-3.747 3.763zm0 13.309a3.746 3.746 0 0 1-3.755-3.747 3.76 3.76 0 0 1 3.755-3.763 3.753 3.753 0 0 1 3.747 3.763 3.74 3.74 0 0 1-3.747 3.747zm0 13.302a3.744 3.744 0 0 1-3.755-3.74 3.76 3.76 0 0 1 3.755-3.763 3.753 3.753 0 0 1 3.747 3.763 3.738 3.738 0 0 1-3.747 3.74zm13.309 13.207a3.744 3.744 0 0 1-3.755-3.74 3.76 3.76 0 0 1 3.755-3.762c2.067 0 3.747 1.687 3.747 3.763 0 2.068-1.68 3.74-3.747 3.74zM4.486 167.647a3.76 3.76 0 0 1-3.755-3.763c0-2.067 1.68-3.74 3.755-3.74a3.744 3.744 0 0 1 3.755 3.74 3.76 3.76 0 0 1-3.755 3.763zm0 13.31a3.746 3.746 0 0 1-3.755-3.747 3.76 3.76 0 0 1 3.755-3.763 3.76 3.76 0 0 1 3.755 3.763 3.746 3.746 0 0 1-3.755 3.747zM297.261 53.668a3.746 3.746 0 0 1 3.755 3.748 3.76 3.76 0 0 1-3.755 3.763 3.76 3.76 0 0 1-3.755-3.763 3.746 3.746 0 0 1 3.755-3.748zm0-13.301a3.744 3.744 0 0 1 3.755 3.74 3.76 3.76 0 0 1-3.755 3.762 3.76 3.76 0 0 1-3.755-3.763c0-2.068 1.68-3.74 3.755-3.74zm0-13.208a3.744 3.744 0 0 1 3.755 3.74 3.76 3.76 0 0 1-3.755 3.762 3.76 3.76 0 0 1-3.755-3.763c0-2.067 1.68-3.739 3.755-3.739zm0-13.208a3.744 3.744 0 0 1 3.755 3.74 3.76 3.76 0 0 1-3.755 3.763 3.76 3.76 0 0 1-3.755-3.763c0-2.068 1.68-3.74 3.755-3.74zm13.316 39.717a3.74 3.74 0 0 1 3.747 3.748 3.753 3.753 0 0 1-3.747 3.763 3.76 3.76 0 0 1-3.754-3.763 3.746 3.746 0 0 1 3.754-3.748zm0-13.207a3.74 3.74 0 0 1 3.747 3.747 3.753 3.753 0 0 1-3.747 3.763 3.76 3.76 0 0 1-3.754-3.763 3.746 3.746 0 0 1 3.754-3.747zm13.3 39.826a3.744 3.744 0 0 1 3.756 3.74 3.76 3.76 0 0 1-3.755 3.763c-2.068 0-3.747-1.688-3.747-3.763 0-2.068 1.68-3.74 3.747-3.74zm0-13.207a3.744 3.744 0 0 1 3.756 3.74 3.76 3.76 0 0 1-3.755 3.762c-2.068 0-3.747-1.687-3.747-3.763 0-2.068 1.68-3.74 3.747-3.74z"/><path fill="#0CF" d="M297.261 380.593a3.746 3.746 0 0 1-3.755-3.748 3.758 3.758 0 0 1 3.755-3.755 3.758 3.758 0 0 1 3.755 3.755 3.746 3.746 0 0 1-3.755 3.748zM283.953 367.283a3.743 3.743 0 0 1-3.747-3.74c0-2.075 1.68-3.763 3.747-3.763a3.76 3.76 0 0 1 3.755 3.764c0 2.067-1.68 3.739-3.755 3.739z"/></g></svg>